<svg xmlns="http://www.w3.org/2000/svg" viewBox="0 0 48 48" width="36" height="36">
  <defs>
    <linearGradient id="logoGrad" x1="0%" y1="0%" x2="100%" y2="100%">
      <stop offset="0%" stop-color="#00cfff"/>
      <stop offset="100%" stop-color="#0066aa"/>
    </linearGradient>
  </defs>
  <circle cx="24" cy="24" r="23" fill="url(#logoGrad)" opacity="0.9"/>
  <path d="M8 28 Q14 22 24 26 Q34 30 40 24" stroke="#fff" stroke-width="2.5" fill="none" stroke-linecap="round"/>
  <path d="M8 32 Q14 26 24 30 Q34 34 40 28" stroke="rgba(255,255,255,0.4)" stroke-width="1.5" fill="none" stroke-linecap="round"/>
  <path d="M18 24 L20 26 L32 26 L34 24 L32 22 L28 18 L26 16 L24 16 L22 18 L20 22 Z" fill="#fff" opacity="0.95"/>
  <rect x="25" y="12" width="1.5" height="5" rx="0.5" fill="#fff"/>
  <polygon points="27,12 27,15 31,13.5" fill="rgba(255,255,255,0.8)"/>
</svg>
