<svg width="5640" height="8951" viewBox="0 0 5640 8951" fill="none" xmlns="http://www.w3.org/2000/svg">
<g filter="url(#filter0_d_51_2561)">
<mask id="path-1-inside-1_51_2561" fill="white">
<path d="M167.457 191.378H5424.46V8759.38H167.457V191.378Z"/>
</mask>
<path d="M167.457 191.378H5424.46V8759.38H167.457V191.378Z" fill="url(#paint0_linear_51_2561)" shape-rendering="crispEdges"/>
<path d="M5424.46 191.378H5412.5V8759.38H5424.46H5436.42V191.378H5424.46Z" fill="#1A2840" mask="url(#path-1-inside-1_51_2561)"/>
<path d="M4145.43 1506.38V1291.63H4226C4242.4 1291.63 4255.54 1293.83 4265.4 1298.22C4275.36 1302.52 4283.12 1309.21 4288.69 1318.29C4294.36 1327.28 4297.19 1336.7 4297.19 1346.56C4297.19 1355.74 4294.7 1364.39 4289.72 1372.49C4284.74 1380.6 4277.22 1387.14 4267.16 1392.12C4280.15 1395.93 4290.11 1402.42 4297.04 1411.6C4304.07 1420.78 4307.59 1431.62 4307.59 1444.12C4307.59 1454.18 4305.44 1463.56 4301.14 1472.25C4296.94 1480.84 4291.72 1487.48 4285.47 1492.17C4279.22 1496.86 4271.36 1500.42 4261.88 1502.86C4252.51 1505.21 4240.99 1506.38 4227.31 1506.38H4145.43ZM4173.85 1381.87H4220.28C4232.88 1381.87 4241.91 1381.04 4247.38 1379.38C4254.61 1377.23 4260.03 1373.66 4263.64 1368.68C4267.35 1363.7 4269.21 1357.45 4269.21 1349.93C4269.21 1342.8 4267.5 1336.55 4264.08 1331.18C4260.66 1325.71 4255.78 1322 4249.43 1320.05C4243.09 1318 4232.2 1316.97 4216.77 1316.97H4173.85V1381.87ZM4173.85 1481.04H4227.31C4236.49 1481.04 4242.94 1480.69 4246.65 1480.01C4253.19 1478.84 4258.66 1476.89 4263.06 1474.15C4267.45 1471.42 4271.06 1467.46 4273.9 1462.29C4276.73 1457.01 4278.14 1450.96 4278.14 1444.12C4278.14 1436.11 4276.09 1429.18 4271.99 1423.32C4267.89 1417.36 4262.18 1413.21 4254.85 1410.87C4247.63 1408.43 4237.18 1407.21 4223.51 1407.21H4173.85V1481.04ZM4445.28 1506.38V1483.53C4433.17 1501.1 4416.72 1509.89 4395.92 1509.89C4386.74 1509.89 4378.14 1508.14 4370.14 1504.62C4362.23 1501.1 4356.32 1496.71 4352.41 1491.44C4348.6 1486.07 4345.92 1479.52 4344.36 1471.81C4343.28 1466.63 4342.74 1458.43 4342.74 1447.2V1350.81H4369.11V1437.09C4369.11 1450.86 4369.65 1460.14 4370.72 1464.92C4372.38 1471.86 4375.9 1477.32 4381.27 1481.33C4386.64 1485.24 4393.28 1487.19 4401.19 1487.19C4409.1 1487.19 4416.52 1485.19 4423.46 1481.18C4430.39 1477.08 4435.27 1471.56 4438.11 1464.63C4441.04 1457.6 4442.5 1447.44 4442.5 1434.16V1350.81H4468.87V1506.38H4445.28ZM4567.89 1482.79L4571.7 1506.08C4564.28 1507.65 4557.64 1508.43 4551.78 1508.43C4542.21 1508.43 4534.79 1506.91 4529.51 1503.89C4524.24 1500.86 4520.53 1496.91 4518.38 1492.02C4516.23 1487.04 4515.16 1476.64 4515.16 1460.82V1371.32H4495.82V1350.81H4515.16V1312.29L4541.38 1296.47V1350.81H4567.89V1371.32H4541.38V1462.29C4541.38 1469.81 4541.82 1474.64 4542.7 1476.79C4543.67 1478.94 4545.19 1480.65 4547.24 1481.91C4549.38 1483.18 4552.41 1483.82 4556.32 1483.82C4559.25 1483.82 4563.11 1483.48 4567.89 1482.79ZM4651.39 1482.79L4655.2 1506.08C4647.77 1507.65 4641.13 1508.43 4635.27 1508.43C4625.7 1508.43 4618.28 1506.91 4613.01 1503.89C4607.73 1500.86 4604.02 1496.91 4601.88 1492.02C4599.73 1487.04 4598.65 1476.64 4598.65 1460.82V1371.32H4579.32V1350.81H4598.65V1312.29L4624.87 1296.47V1350.81H4651.39V1371.32H4624.87V1462.29C4624.87 1469.81 4625.31 1474.64 4626.19 1476.79C4627.17 1478.94 4628.68 1480.65 4630.73 1481.91C4632.88 1483.18 4635.91 1483.82 4639.81 1483.82C4642.74 1483.82 4646.6 1483.48 4651.39 1482.79ZM4667.5 1428.59C4667.5 1399.79 4675.51 1378.45 4691.52 1364.58C4704.9 1353.06 4721.21 1347.3 4740.45 1347.3C4761.84 1347.3 4779.32 1354.33 4792.89 1368.39C4806.46 1382.35 4813.25 1401.69 4813.25 1426.4C4813.25 1446.42 4810.22 1462.19 4804.17 1473.71C4798.21 1485.14 4789.47 1494.02 4777.95 1500.37C4766.52 1506.72 4754.02 1509.89 4740.45 1509.89C4718.67 1509.89 4701.04 1502.91 4687.57 1488.95C4674.19 1474.98 4667.5 1454.86 4667.5 1428.59ZM4694.6 1428.59C4694.6 1448.52 4698.95 1463.46 4707.64 1473.42C4716.33 1483.28 4727.27 1488.21 4740.45 1488.21C4753.54 1488.21 4764.42 1483.23 4773.12 1473.27C4781.81 1463.31 4786.15 1448.13 4786.15 1427.72C4786.15 1408.48 4781.76 1393.93 4772.97 1384.06C4764.28 1374.1 4753.44 1369.12 4740.45 1369.12C4727.27 1369.12 4716.33 1374.05 4707.64 1383.92C4698.95 1393.78 4694.6 1408.67 4694.6 1428.59ZM4844.31 1506.38V1350.81H4868.04V1372.93C4879.46 1355.84 4895.97 1347.3 4917.55 1347.3C4926.92 1347.3 4935.52 1349 4943.33 1352.42C4951.24 1355.74 4957.15 1360.14 4961.05 1365.61C4964.96 1371.07 4967.7 1377.57 4969.26 1385.09C4970.23 1389.97 4970.72 1398.52 4970.72 1410.72V1506.38H4944.36V1411.75C4944.36 1401.01 4943.33 1393 4941.28 1387.73C4939.23 1382.35 4935.57 1378.11 4930.29 1374.98C4925.12 1371.76 4919.01 1370.15 4911.98 1370.15C4900.75 1370.15 4891.04 1373.71 4882.83 1380.84C4874.73 1387.97 4870.67 1401.49 4870.67 1421.42V1506.38H4844.31ZM5000.75 1459.94L5026.83 1455.84C5028.29 1466.29 5032.34 1474.3 5038.98 1479.86C5045.72 1485.43 5055.1 1488.21 5067.11 1488.21C5079.22 1488.21 5088.2 1485.77 5094.06 1480.89C5099.92 1475.91 5102.85 1470.1 5102.85 1463.46C5102.85 1457.5 5100.26 1452.81 5095.09 1449.4C5091.47 1447.05 5082.49 1444.07 5068.13 1440.46C5048.8 1435.58 5035.37 1431.38 5027.85 1427.86C5020.43 1424.25 5014.77 1419.32 5010.86 1413.07C5007.05 1406.72 5005.15 1399.74 5005.15 1392.12C5005.15 1385.19 5006.71 1378.79 5009.83 1372.93C5013.06 1366.97 5017.4 1362.04 5022.87 1358.14C5026.97 1355.11 5032.54 1352.57 5039.57 1350.52C5046.7 1348.37 5054.32 1347.3 5062.42 1347.3C5074.63 1347.3 5085.32 1349.05 5094.5 1352.57C5103.78 1356.08 5110.62 1360.87 5115.01 1366.92C5119.4 1372.88 5122.43 1380.89 5124.09 1390.95L5098.31 1394.46C5097.14 1386.46 5093.72 1380.21 5088.06 1375.71C5082.49 1371.22 5074.58 1368.98 5064.33 1368.98C5052.22 1368.98 5043.57 1370.98 5038.4 1374.98C5033.22 1378.99 5030.63 1383.67 5030.63 1389.04C5030.63 1392.46 5031.71 1395.54 5033.86 1398.27C5036.01 1401.1 5039.38 1403.45 5043.96 1405.3C5046.6 1406.28 5054.37 1408.53 5067.26 1412.04C5085.91 1417.02 5098.9 1421.12 5106.22 1424.35C5113.64 1427.47 5119.45 1432.06 5123.65 1438.12C5127.85 1444.17 5129.95 1451.69 5129.95 1460.67C5129.95 1469.46 5127.36 1477.76 5122.19 1485.58C5117.11 1493.29 5109.74 1499.3 5100.07 1503.59C5090.4 1507.79 5079.46 1509.89 5067.26 1509.89C5047.04 1509.89 5031.61 1505.69 5020.97 1497.3C5010.42 1488.9 5003.68 1476.45 5000.75 1459.94Z" fill="white"/>
<path d="M1752.6 8174.38V7959.63H1833.61C1847.87 7959.63 1858.75 7960.32 1866.27 7961.68C1876.82 7963.44 1885.66 7966.81 1892.79 7971.79C1899.92 7976.67 1905.63 7983.56 1909.93 7992.44C1914.32 8001.33 1916.52 8011.1 1916.52 8021.74C1916.52 8040 1910.71 8055.48 1899.09 8068.18C1887.46 8080.77 1866.47 8087.07 1836.1 8087.07H1781.02V8174.38H1752.6ZM1781.02 8061.73H1836.54C1854.9 8061.73 1867.93 8058.31 1875.65 8051.48C1883.36 8044.64 1887.22 8035.02 1887.22 8022.62C1887.22 8013.64 1884.93 8005.97 1880.34 7999.62C1875.84 7993.18 1869.89 7988.93 1862.46 7986.88C1857.68 7985.61 1848.84 7984.97 1835.95 7984.97H1781.02V8061.73ZM2055.82 8124.28L2083.07 8127.65C2078.77 8143.57 2070.81 8155.92 2059.19 8164.71C2047.57 8173.5 2032.73 8177.89 2014.66 8177.89C1991.91 8177.89 1973.84 8170.91 1960.46 8156.95C1947.18 8142.88 1940.54 8123.21 1940.54 8097.91C1940.54 8071.74 1947.28 8051.43 1960.76 8036.98C1974.23 8022.52 1991.71 8015.3 2013.2 8015.3C2034 8015.3 2050.99 8022.38 2064.17 8036.54C2077.36 8050.7 2083.95 8070.62 2083.95 8096.3C2083.95 8097.86 2083.9 8100.21 2083.8 8103.33H1967.79C1968.76 8120.42 1973.6 8133.51 1982.29 8142.59C1990.98 8151.67 2001.82 8156.21 2014.81 8156.21C2024.48 8156.21 2032.73 8153.67 2039.56 8148.6C2046.4 8143.52 2051.82 8135.41 2055.82 8124.28ZM1969.25 8081.65H2056.12C2054.95 8068.57 2051.62 8058.75 2046.16 8052.21C2037.76 8042.05 2026.87 8036.98 2013.49 8036.98C2001.38 8036.98 1991.18 8041.03 1982.88 8049.13C1974.67 8057.24 1970.13 8068.08 1969.25 8081.65ZM2116.03 8174.38V8018.81H2139.76V8042.4C2145.81 8031.36 2151.38 8024.08 2156.46 8020.57C2161.63 8017.05 2167.3 8015.3 2173.45 8015.3C2182.34 8015.3 2191.37 8018.13 2200.55 8023.79L2191.47 8048.25C2185.02 8044.45 2178.58 8042.54 2172.13 8042.54C2166.37 8042.54 2161.2 8044.3 2156.61 8047.82C2152.02 8051.23 2148.74 8056.02 2146.79 8062.17C2143.86 8071.55 2142.4 8081.8 2142.4 8092.93V8174.38H2116.03ZM2317.74 8117.4L2343.67 8120.76C2340.83 8138.64 2333.56 8152.65 2321.84 8162.81C2310.22 8172.86 2295.91 8177.89 2278.92 8177.89C2257.63 8177.89 2240.49 8170.96 2227.5 8157.09C2214.61 8143.13 2208.17 8123.16 2208.17 8097.18C2208.17 8080.38 2210.95 8065.69 2216.52 8053.09C2222.08 8040.49 2230.53 8031.07 2241.86 8024.82C2253.29 8018.47 2265.69 8015.3 2279.07 8015.3C2295.96 8015.3 2309.78 8019.59 2320.52 8028.19C2331.26 8036.68 2338.15 8048.79 2341.18 8064.51L2315.54 8068.47C2313.1 8058.02 2308.75 8050.16 2302.5 8044.89C2296.35 8039.61 2288.88 8036.98 2280.09 8036.98C2266.81 8036.98 2256.02 8041.76 2247.72 8051.33C2239.42 8060.8 2235.27 8075.84 2235.27 8096.45C2235.27 8117.35 2239.27 8132.53 2247.28 8142C2255.29 8151.48 2265.74 8156.21 2278.63 8156.21C2288.98 8156.21 2297.62 8153.04 2304.55 8146.69C2311.49 8140.34 2315.88 8130.58 2317.74 8117.4ZM2472.72 8124.28L2499.96 8127.65C2495.67 8143.57 2487.71 8155.92 2476.09 8164.71C2464.47 8173.5 2449.62 8177.89 2431.56 8177.89C2408.8 8177.89 2390.74 8170.91 2377.36 8156.95C2364.08 8142.88 2357.44 8123.21 2357.44 8097.91C2357.44 8071.74 2364.17 8051.43 2377.65 8036.98C2391.13 8022.52 2408.61 8015.3 2430.09 8015.3C2450.89 8015.3 2467.88 8022.38 2481.07 8036.54C2494.25 8050.7 2500.84 8070.62 2500.84 8096.3C2500.84 8097.86 2500.79 8100.21 2500.7 8103.33H2384.68C2385.66 8120.42 2390.49 8133.51 2399.18 8142.59C2407.88 8151.67 2418.71 8156.21 2431.7 8156.21C2441.37 8156.21 2449.62 8153.67 2456.46 8148.6C2463.29 8143.52 2468.71 8135.41 2472.72 8124.28ZM2386.15 8081.65H2473.01C2471.84 8068.57 2468.52 8058.75 2463.05 8052.21C2454.65 8042.05 2443.76 8036.98 2430.38 8036.98C2418.28 8036.98 2408.07 8041.03 2399.77 8049.13C2391.57 8057.24 2387.03 8068.08 2386.15 8081.65ZM2533.22 8174.38V8018.81H2556.95V8040.93C2568.37 8023.84 2584.88 8015.3 2606.46 8015.3C2615.83 8015.3 2624.43 8017 2632.24 8020.42C2640.15 8023.74 2646.06 8028.14 2649.96 8033.61C2653.87 8039.07 2656.61 8045.57 2658.17 8053.09C2659.14 8057.97 2659.63 8066.52 2659.63 8078.72V8174.38H2633.27V8079.75C2633.27 8069.01 2632.24 8061 2630.19 8055.73C2628.14 8050.35 2624.48 8046.11 2619.2 8042.98C2614.03 8039.76 2607.92 8038.15 2600.89 8038.15C2589.66 8038.15 2579.95 8041.71 2571.74 8048.84C2563.64 8055.97 2559.58 8069.49 2559.58 8089.42V8174.38H2533.22ZM2757.78 8150.79L2761.59 8174.08C2754.16 8175.65 2747.52 8176.43 2741.66 8176.43C2732.09 8176.43 2724.67 8174.91 2719.4 8171.89C2714.12 8168.86 2710.41 8164.91 2708.27 8160.02C2706.12 8155.04 2705.04 8144.64 2705.04 8128.82V8039.32H2685.71V8018.81H2705.04V7980.29L2731.26 7964.47V8018.81H2757.78V8039.32H2731.26V8130.29C2731.26 8137.81 2731.7 8142.64 2732.58 8144.79C2733.56 8146.94 2735.07 8148.65 2737.12 8149.91C2739.27 8151.18 2742.3 8151.82 2746.21 8151.82C2749.13 8151.82 2752.99 8151.48 2757.78 8150.79ZM2885.22 8155.19C2875.45 8163.49 2866.03 8169.35 2856.95 8172.77C2847.96 8176.18 2838.29 8177.89 2827.94 8177.89C2810.85 8177.89 2797.72 8173.74 2788.54 8165.44C2779.36 8157.04 2774.77 8146.35 2774.77 8133.36C2774.77 8125.74 2776.48 8118.81 2779.9 8112.56C2783.41 8106.21 2787.95 8101.14 2793.52 8097.33C2799.18 8093.52 2805.53 8090.64 2812.56 8088.68C2817.74 8087.32 2825.55 8086 2836 8084.73C2857.29 8082.19 2872.96 8079.16 2883.02 8075.65C2883.12 8072.03 2883.17 8069.74 2883.17 8068.76C2883.17 8058.02 2880.68 8050.45 2875.7 8046.06C2868.96 8040.1 2858.95 8037.12 2845.67 8037.12C2833.27 8037.12 2824.09 8039.32 2818.13 8043.71C2812.27 8048.01 2807.92 8055.68 2805.09 8066.71L2779.31 8063.2C2781.65 8052.16 2785.51 8043.27 2790.88 8036.54C2796.25 8029.7 2804.02 8024.48 2814.17 8020.86C2824.33 8017.15 2836.1 8015.3 2849.48 8015.3C2862.76 8015.3 2873.55 8016.86 2881.85 8019.98C2890.15 8023.11 2896.25 8027.06 2900.16 8031.85C2904.07 8036.54 2906.8 8042.49 2908.36 8049.72C2909.24 8054.21 2909.68 8062.32 2909.68 8074.04V8109.19C2909.68 8133.7 2910.22 8149.23 2911.29 8155.77C2912.46 8162.22 2914.71 8168.42 2918.03 8174.38H2890.49C2887.76 8168.91 2886 8162.51 2885.22 8155.19ZM2883.02 8096.3C2873.45 8100.21 2859.1 8103.53 2839.96 8106.26C2829.12 8107.82 2821.45 8109.58 2816.96 8111.54C2812.46 8113.49 2809 8116.37 2806.56 8120.18C2804.12 8123.89 2802.89 8128.04 2802.89 8132.63C2802.89 8139.66 2805.53 8145.52 2810.8 8150.21C2816.18 8154.9 2823.99 8157.24 2834.24 8157.24C2844.4 8157.24 2853.43 8155.04 2861.34 8150.65C2869.25 8146.16 2875.06 8140.05 2878.77 8132.34C2881.61 8126.38 2883.02 8117.59 2883.02 8105.97V8096.3ZM2945.86 8187.27L2971.5 8191.08C2972.57 8198.99 2975.55 8204.75 2980.43 8208.36C2986.98 8213.24 2995.91 8215.69 3007.24 8215.69C3019.45 8215.69 3028.87 8213.24 3035.51 8208.36C3042.15 8203.48 3046.64 8196.64 3048.99 8187.85C3050.36 8182.48 3050.99 8171.2 3050.89 8154.02C3039.37 8167.59 3025.01 8174.38 3007.83 8174.38C2986.44 8174.38 2969.89 8166.66 2958.17 8151.23C2946.45 8135.8 2940.59 8117.3 2940.59 8095.72C2940.59 8080.87 2943.28 8067.2 2948.65 8054.7C2954.02 8042.1 2961.78 8032.39 2971.94 8025.55C2982.19 8018.71 2994.2 8015.3 3007.97 8015.3C3026.33 8015.3 3041.47 8022.72 3053.38 8037.56V8018.81H3077.7V8153.28C3077.7 8177.5 3075.21 8194.64 3070.23 8204.7C3065.35 8214.86 3057.53 8222.86 3046.79 8228.72C3036.15 8234.58 3023.01 8237.51 3007.39 8237.51C2988.83 8237.51 2973.84 8233.31 2962.42 8224.91C2950.99 8216.61 2945.47 8204.07 2945.86 8187.27ZM2967.69 8093.81C2967.69 8114.22 2971.74 8129.11 2979.85 8138.49C2987.95 8147.86 2998.11 8152.55 3010.32 8152.55C3022.43 8152.55 3032.58 8147.91 3040.79 8138.64C3048.99 8129.26 3053.09 8114.61 3053.09 8094.69C3053.09 8075.65 3048.84 8061.29 3040.35 8051.62C3031.95 8041.96 3021.79 8037.12 3009.88 8037.12C2998.16 8037.12 2988.2 8041.91 2979.99 8051.48C2971.79 8060.95 2967.69 8075.06 2967.69 8093.81ZM3224.18 8124.28L3251.43 8127.65C3247.13 8143.57 3239.17 8155.92 3227.55 8164.71C3215.93 8173.5 3201.09 8177.89 3183.02 8177.89C3160.27 8177.89 3142.2 8170.91 3128.82 8156.95C3115.54 8142.88 3108.9 8123.21 3108.9 8097.91C3108.9 8071.74 3115.64 8051.43 3129.12 8036.98C3142.59 8022.52 3160.07 8015.3 3181.56 8015.3C3202.36 8015.3 3219.35 8022.38 3232.53 8036.54C3245.72 8050.7 3252.31 8070.62 3252.31 8096.3C3252.31 8097.86 3252.26 8100.21 3252.16 8103.33H3136.15C3137.12 8120.42 3141.96 8133.51 3150.65 8142.59C3159.34 8151.67 3170.18 8156.21 3183.17 8156.21C3192.84 8156.21 3201.09 8153.67 3207.92 8148.6C3214.76 8143.52 3220.18 8135.41 3224.18 8124.28ZM3137.61 8081.65H3224.48C3223.3 8068.57 3219.98 8058.75 3214.52 8052.21C3206.12 8042.05 3195.23 8036.98 3181.85 8036.98C3169.74 8036.98 3159.54 8041.03 3151.23 8049.13C3143.03 8057.24 3138.49 8068.08 3137.61 8081.65ZM3370.38 8174.38V7959.63H3450.94C3467.35 7959.63 3480.48 7961.83 3490.35 7966.22C3500.31 7970.52 3508.07 7977.21 3513.64 7986.29C3519.3 7995.28 3522.13 8004.7 3522.13 8014.56C3522.13 8023.74 3519.64 8032.39 3514.66 8040.49C3509.68 8048.6 3502.16 8055.14 3492.1 8060.12C3505.09 8063.93 3515.05 8070.42 3521.99 8079.6C3529.02 8088.78 3532.53 8099.62 3532.53 8112.12C3532.53 8122.18 3530.38 8131.56 3526.09 8140.25C3521.89 8148.84 3516.66 8155.48 3510.41 8160.17C3504.16 8164.86 3496.3 8168.42 3486.83 8170.86C3477.46 8173.21 3465.93 8174.38 3452.26 8174.38H3370.38ZM3398.79 8049.87H3445.23C3457.83 8049.87 3466.86 8049.04 3472.33 8047.38C3479.55 8045.23 3484.97 8041.66 3488.59 8036.68C3492.3 8031.7 3494.15 8025.45 3494.15 8017.93C3494.15 8010.8 3492.45 8004.55 3489.03 7999.18C3485.61 7993.71 3480.73 7990 3474.38 7988.05C3468.03 7986 3457.14 7984.97 3441.71 7984.97H3398.79V8049.87ZM3398.79 8149.04H3452.26C3461.44 8149.04 3467.88 8148.69 3471.6 8148.01C3478.14 8146.84 3483.61 8144.89 3488 8142.15C3492.4 8139.42 3496.01 8135.46 3498.84 8130.29C3501.67 8125.01 3503.09 8118.96 3503.09 8112.12C3503.09 8104.11 3501.04 8097.18 3496.94 8091.32C3492.84 8085.36 3487.12 8081.21 3479.8 8078.87C3472.57 8076.43 3462.12 8075.21 3448.45 8075.21H3398.79V8149.04ZM3669.79 8155.19C3660.02 8163.49 3650.6 8169.35 3641.52 8172.77C3632.53 8176.18 3622.87 8177.89 3612.51 8177.89C3595.42 8177.89 3582.29 8173.74 3573.11 8165.44C3563.93 8157.04 3559.34 8146.35 3559.34 8133.36C3559.34 8125.74 3561.05 8118.81 3564.47 8112.56C3567.98 8106.21 3572.52 8101.14 3578.09 8097.33C3583.75 8093.52 3590.1 8090.64 3597.13 8088.68C3602.31 8087.32 3610.12 8086 3620.57 8084.73C3641.86 8082.19 3657.53 8079.16 3667.59 8075.65C3667.69 8072.03 3667.74 8069.74 3667.74 8068.76C3667.74 8058.02 3665.25 8050.45 3660.27 8046.06C3653.53 8040.1 3643.52 8037.12 3630.24 8037.12C3617.84 8037.12 3608.66 8039.32 3602.7 8043.71C3596.84 8048.01 3592.49 8055.68 3589.66 8066.71L3563.88 8063.2C3566.22 8052.16 3570.08 8043.27 3575.45 8036.54C3580.82 8029.7 3588.59 8024.48 3598.74 8020.86C3608.9 8017.15 3620.67 8015.3 3634.05 8015.3C3647.33 8015.3 3658.12 8016.86 3666.42 8019.98C3674.72 8023.11 3680.82 8027.06 3684.73 8031.85C3688.64 8036.54 3691.37 8042.49 3692.93 8049.72C3693.81 8054.21 3694.25 8062.32 3694.25 8074.04V8109.19C3694.25 8133.7 3694.79 8149.23 3695.86 8155.77C3697.04 8162.22 3699.28 8168.42 3702.6 8174.38H3675.06C3672.33 8168.91 3670.57 8162.51 3669.79 8155.19ZM3667.59 8096.3C3658.02 8100.21 3643.67 8103.53 3624.53 8106.26C3613.69 8107.82 3606.02 8109.58 3601.53 8111.54C3597.04 8113.49 3593.57 8116.37 3591.13 8120.18C3588.69 8123.89 3587.46 8128.04 3587.46 8132.63C3587.46 8139.66 3590.1 8145.52 3595.38 8150.21C3600.75 8154.9 3608.56 8157.24 3618.81 8157.24C3628.97 8157.24 3638 8155.04 3645.91 8150.65C3653.82 8146.16 3659.63 8140.05 3663.34 8132.34C3666.18 8126.38 3667.59 8117.59 3667.59 8105.97V8096.3ZM3734.97 8174.38V8018.81H3758.71V8042.4C3764.76 8031.36 3770.33 8024.08 3775.4 8020.57C3780.58 8017.05 3786.24 8015.3 3792.4 8015.3C3801.28 8015.3 3810.32 8018.13 3819.5 8023.79L3810.41 8048.25C3803.97 8044.45 3797.52 8042.54 3791.08 8042.54C3785.32 8042.54 3780.14 8044.3 3775.55 8047.82C3770.96 8051.23 3767.69 8056.02 3765.74 8062.17C3762.81 8071.55 3761.34 8081.8 3761.34 8092.93V8174.38H3734.97Z" fill="white"/>
<line x1="3967.46" y1="590.378" x2="3967.46" y2="2598.38" stroke="white" stroke-width="18"/>
<line x1="3958.46" y1="599.378" x2="3291.46" y2="599.378" stroke="white" stroke-width="18"/>
<line x1="3977.46" y1="2607.38" x2="3310.46" y2="2607.38" stroke="white" stroke-width="18"/>
<mask id="path-8-inside-2_51_2561" fill="white">
<path d="M260.457 1402.48C260.457 1047.3 548.382 759.378 903.555 759.378H2619.36C2974.53 759.378 3262.46 1047.3 3262.46 1402.48V1402.48C3262.46 1757.65 2974.53 2045.57 2619.36 2045.57H903.555C548.382 2045.57 260.457 1757.65 260.457 1402.48V1402.48Z"/>
</mask>
<path d="M260.457 1402.48C260.457 1047.3 548.382 759.378 903.555 759.378H2619.36C2974.53 759.378 3262.46 1047.3 3262.46 1402.48V1402.48C3262.46 1757.65 2974.53 2045.57 2619.36 2045.57H903.555C548.382 2045.57 260.457 1757.65 260.457 1402.48V1402.48Z" fill="white" fill-opacity="0.08"/>
<path d="M260.457 1402.48M3262.46 1402.48M3262.46 1402.48M260.457 1402.48M903.555 759.378V801.548H2619.36V759.378V717.207H903.555V759.378ZM3262.46 1402.48M2619.36 2045.57V2003.4H903.555V2045.57V2087.74H2619.36V2045.57ZM260.457 1402.48M903.555 2045.57V2003.4C571.672 2003.4 302.627 1734.36 302.627 1402.48H260.457H218.287C218.287 1780.94 525.092 2087.74 903.555 2087.74V2045.57ZM3262.46 1402.48H3220.29C3220.29 1734.36 2951.24 2003.4 2619.36 2003.4V2045.57V2087.74C2997.82 2087.74 3304.63 1780.94 3304.63 1402.48H3262.46ZM2619.36 759.378V801.548C2951.24 801.548 3220.29 1070.59 3220.29 1402.48H3262.46H3304.63C3304.63 1024.01 2997.82 717.207 2619.36 717.207V759.378ZM903.555 759.378V717.207C525.092 717.207 218.287 1024.01 218.287 1402.48H260.457H302.627C302.627 1070.59 571.672 801.548 903.555 801.548V759.378Z" fill="white" fill-opacity="0.15" mask="url(#path-8-inside-2_51_2561)"/>
<path d="M1090.24 1487.07C1074.79 1487.07 1060.64 1483.27 1047.81 1475.67C1034.98 1468.07 1024.76 1457.86 1017.16 1445.02C1009.56 1432.19 1005.76 1418.05 1005.76 1402.6C1005.76 1387.02 1009.56 1372.88 1017.16 1360.17C1024.76 1347.34 1034.98 1337.12 1047.81 1329.52C1060.64 1321.92 1074.79 1318.12 1090.24 1318.12C1105.81 1318.12 1119.95 1321.92 1132.66 1329.52C1145.49 1337.12 1155.71 1347.34 1163.31 1360.17C1170.91 1372.88 1174.71 1387.02 1174.71 1402.6C1174.71 1418.05 1170.91 1432.19 1163.31 1445.02C1155.71 1457.86 1145.49 1468.07 1132.66 1475.67C1119.95 1483.27 1105.81 1487.07 1090.24 1487.07ZM1072.29 1280.75V1167.12H1108.18V1280.75H1072.29ZM1188.91 1329.34L1163.5 1303.92L1244.23 1223.18L1269.65 1248.6L1188.91 1329.34ZM1212.09 1420.54V1384.66H1325.72V1420.54H1212.09ZM1244.23 1582.01L1163.5 1501.28L1188.91 1475.86L1269.65 1556.6L1244.23 1582.01ZM1072.29 1638.08V1524.45H1108.18V1638.08H1072.29ZM936.237 1582.01L910.82 1556.6L991.557 1475.86L1016.97 1501.28L936.237 1582.01ZM854.753 1420.54V1384.66H968.383V1420.54H854.753ZM991.557 1329.34L910.82 1248.6L936.237 1223.18L1016.97 1303.92L991.557 1329.34ZM1565.78 1593.98V1211.22H1612.13V1552.86H1790.05V1593.98H1565.78ZM1855.84 1593.98V1306.91H1899.94V1593.98H1855.84ZM1878.26 1259.07C1869.67 1259.07 1862.25 1256.14 1856.02 1250.28C1849.92 1244.43 1846.86 1237.39 1846.86 1229.16C1846.86 1220.94 1849.92 1213.9 1856.02 1208.04C1862.25 1202.19 1869.67 1199.26 1878.26 1199.26C1886.86 1199.26 1894.21 1202.19 1900.32 1208.04C1906.55 1213.9 1909.66 1220.94 1909.66 1229.16C1909.66 1237.39 1906.55 1244.43 1900.32 1250.28C1894.21 1256.14 1886.86 1259.07 1878.26 1259.07ZM2096.6 1707.6C2075.29 1707.6 2056.98 1704.86 2041.65 1699.38C2026.33 1694.02 2013.56 1686.92 2003.34 1678.08C1993.25 1669.35 1985.21 1660.01 1979.23 1650.04L2014.37 1625.37C2018.35 1630.61 2023.4 1636.59 2029.5 1643.31C2035.61 1650.17 2043.96 1656.09 2054.55 1661.07C2065.26 1666.18 2079.28 1668.73 2096.6 1668.73C2119.77 1668.73 2138.9 1663.12 2153.97 1651.91C2169.05 1640.7 2176.59 1623.13 2176.59 1599.21V1540.9H2172.85C2169.61 1546.13 2165 1552.61 2159.02 1560.33C2153.16 1567.93 2144.69 1574.73 2133.6 1580.71C2122.64 1586.56 2107.81 1589.49 2089.12 1589.49C2065.95 1589.49 2045.14 1584.01 2026.7 1573.04C2008.39 1562.08 1993.87 1546.13 1983.16 1525.2C1972.56 1504.27 1967.27 1478.85 1967.27 1448.95C1967.27 1419.54 1972.44 1393.94 1982.78 1372.14C1993.12 1350.21 2007.51 1333.26 2025.95 1321.3C2044.39 1309.22 2065.7 1303.17 2089.87 1303.17C2108.56 1303.17 2123.39 1306.29 2134.35 1312.52C2145.44 1318.62 2153.91 1325.6 2159.77 1333.45C2165.75 1341.17 2170.36 1347.53 2173.6 1352.51H2178.08V1306.91H2220.69V1602.2C2220.69 1626.87 2215.09 1646.93 2203.87 1662.38C2192.78 1677.95 2177.83 1689.35 2159.02 1696.58C2140.33 1703.93 2119.52 1707.6 2096.6 1707.6ZM2095.1 1549.87C2112.8 1549.87 2127.75 1545.82 2139.96 1537.72C2152.17 1529.62 2161.45 1517.97 2167.8 1502.77C2174.16 1487.57 2177.34 1469.38 2177.34 1448.2C2177.34 1427.52 2174.22 1409.26 2167.99 1393.44C2161.76 1377.62 2152.54 1365.22 2140.33 1356.25C2128.12 1347.28 2113.04 1342.79 2095.1 1342.79C2076.41 1342.79 2060.84 1347.53 2048.38 1357C2036.05 1366.47 2026.76 1379.17 2020.53 1395.12C2014.43 1411.07 2011.38 1428.76 2011.38 1448.2C2011.38 1468.14 2014.49 1485.77 2020.72 1501.09C2027.07 1516.29 2036.42 1528.25 2048.75 1536.97C2061.21 1545.57 2076.66 1549.87 2095.1 1549.87ZM2345.54 1421.29V1593.98H2301.43V1211.22H2345.54V1351.76H2349.28C2356 1336.94 2366.1 1325.16 2379.55 1316.44C2393.13 1307.6 2411.2 1303.17 2433.75 1303.17C2453.31 1303.17 2470.44 1307.1 2485.15 1314.95C2499.85 1322.67 2511.25 1334.57 2519.35 1350.64C2527.57 1366.59 2531.68 1386.9 2531.68 1411.57V1593.98H2487.57V1414.56C2487.57 1391.76 2481.66 1374.13 2469.82 1361.67C2458.11 1349.09 2441.85 1342.79 2421.04 1342.79C2406.59 1342.79 2393.63 1345.85 2382.17 1351.95C2370.83 1358.06 2361.86 1366.96 2355.26 1378.68C2348.78 1390.39 2345.54 1404.59 2345.54 1421.29ZM2737.21 1306.91V1344.29H2588.45V1306.91H2737.21ZM2631.81 1238.13H2675.91V1511.74C2675.91 1524.2 2677.72 1533.55 2681.33 1539.78C2685.07 1545.88 2689.81 1549.99 2695.54 1552.11C2701.39 1554.1 2707.56 1555.1 2714.04 1555.1C2718.9 1555.1 2722.89 1554.85 2726 1554.35C2729.12 1553.73 2731.61 1553.23 2733.48 1552.86L2742.45 1592.48C2739.46 1593.6 2735.28 1594.72 2729.93 1595.84C2724.57 1597.09 2717.78 1597.71 2709.55 1597.71C2697.1 1597.71 2684.88 1595.03 2672.92 1589.68C2661.09 1584.32 2651.24 1576.16 2643.4 1565.19C2635.67 1554.23 2631.81 1540.4 2631.81 1523.7V1238.13Z" fill="white" fill-opacity="0.8"/>
<g clip-path="url(#clip0_51_2561)">
<path d="M336.457 7215.63C336.457 7192.29 355.374 7173.38 378.709 7173.38H5147.95C5171.29 7173.38 5190.21 7192.29 5190.21 7215.63V7215.63C5190.21 7238.97 5171.29 7257.88 5147.95 7257.88H378.71C355.374 7257.88 336.457 7238.97 336.457 7215.63V7215.63Z" fill="white" fill-opacity="0.05"/>
<path d="M336.457 7215.63C336.457 7192.29 355.374 7173.38 378.709 7173.38H3390.85C3414.18 7173.38 3433.1 7192.29 3433.1 7215.63V7215.63C3433.1 7238.97 3414.18 7257.88 3390.85 7257.88H378.709C355.374 7257.88 336.457 7238.97 336.457 7215.63V7215.63Z" fill="#E74C3C"/>
</g>
</g>
<defs>
<filter id="filter0_d_51_2561" x="0.00164986" y="0.000106812" width="5639.76" height="8950.76" filterUnits="userSpaceOnUse" color-interpolation-filters="sRGB">
<feFlood flood-opacity="0" result="BackgroundImageFix"/>
<feColorMatrix in="SourceAlpha" type="matrix" values="0 0 0 0 0 0 0 0 0 0 0 0 0 0 0 0 0 0 127 0" result="hardAlpha"/>
<feOffset dx="23.9222"/>
<feGaussianBlur stdDeviation="95.6888"/>
<feComposite in2="hardAlpha" operator="out"/>
<feColorMatrix type="matrix" values="0 0 0 0 0 0 0 0 0 0 0 0 0 0 0 0 0 0 0.5 0"/>
<feBlend mode="normal" in2="BackgroundImageFix" result="effect1_dropShadow_51_2561"/>
<feBlend mode="normal" in="SourceGraphic" in2="effect1_dropShadow_51_2561" result="shape"/>
</filter>
<linearGradient id="paint0_linear_51_2561" x1="2795.96" y1="191.378" x2="2795.96" y2="8759.38" gradientUnits="userSpaceOnUse">
<stop stop-color="#080F1C"/>
<stop offset="1" stop-color="#060B14"/>
</linearGradient>
<clipPath id="clip0_51_2561">
<path d="M336.457 7215.63C336.457 7192.29 355.374 7173.38 378.709 7173.38H5147.95C5171.29 7173.38 5190.21 7192.29 5190.21 7215.63V7215.63C5190.21 7238.97 5171.29 7257.88 5147.95 7257.88H378.71C355.374 7257.88 336.457 7238.97 336.457 7215.63V7215.63Z" fill="white"/>
</clipPath>
</defs>
</svg>
