<svg width="5640" height="7779" viewBox="0 0 5640 7779" fill="none" xmlns="http://www.w3.org/2000/svg">
<g filter="url(#filter0_d_51_548)">
<mask id="path-1-inside-1_51_548" fill="white">
<path d="M167.457 191.377H5424.46V7587.38H167.457V191.377Z"/>
</mask>
<path d="M167.457 191.377H5424.46V7587.38H167.457V191.377Z" fill="url(#paint0_linear_51_548)" shape-rendering="crispEdges"/>
<path d="M5424.46 191.377H5412.5V7587.38H5424.46H5436.42V191.377H5424.46Z" fill="#1A2840" mask="url(#path-1-inside-1_51_548)"/>
<path d="M550.71 1352.52L638.425 1226.43V1352.52H550.71ZM592.649 1330.59H616.496V1296.33L592.649 1330.59ZM654.872 1352.52C657.065 1347.4 659.44 1338.45 661.998 1325.66C664.557 1312.87 665.836 1299.89 665.836 1286.74C665.836 1273.58 664.603 1260.06 662.136 1246.17C659.669 1232.28 657.247 1222.05 654.872 1215.47C666.019 1218.76 677.12 1224.88 688.176 1233.83C699.232 1242.79 709.191 1253.48 718.054 1265.9C726.917 1278.33 734.135 1291.99 739.708 1306.88C745.282 1321.78 748.069 1336.99 748.069 1352.52H654.872ZM683.379 1330.59H723.947C720.84 1316.52 715.769 1303.64 708.734 1291.94C701.699 1280.25 694.252 1270.29 686.394 1262.07C686.76 1265.9 687.079 1269.88 687.354 1273.99C687.628 1278.1 687.765 1282.35 687.765 1286.74C687.765 1295.32 687.354 1303.27 686.531 1310.58C685.709 1317.89 684.658 1324.56 683.379 1330.59ZM616.496 1412.83C609.918 1412.83 603.796 1411.27 598.131 1408.17C592.466 1405.06 587.624 1401.13 583.603 1396.38C581.045 1399.12 578.258 1401.68 575.243 1404.05C572.228 1406.43 568.893 1408.35 565.238 1409.81C558.842 1405.06 553.406 1399.17 548.929 1392.13C544.452 1385.09 541.391 1377.37 539.746 1368.97H759.033C757.388 1377.37 754.327 1385.09 749.85 1392.13C745.373 1399.17 739.937 1405.06 733.541 1409.81C729.886 1408.35 726.551 1406.43 723.536 1404.05C720.521 1401.68 717.734 1399.12 715.176 1396.38C710.973 1401.13 706.084 1405.06 700.511 1408.17C694.937 1411.27 688.861 1412.83 682.283 1412.83C675.704 1412.83 669.582 1411.27 663.917 1408.17C658.252 1405.06 653.41 1401.13 649.39 1396.38C645.369 1401.13 640.527 1405.06 634.862 1408.17C629.197 1411.27 623.075 1412.83 616.496 1412.83ZM539.746 1456.68V1434.75H550.71C556.558 1434.75 562.269 1433.84 567.842 1432.01C573.416 1430.19 578.67 1427.44 583.603 1423.79C588.537 1427.44 593.791 1430.14 599.365 1431.88C604.938 1433.61 610.649 1434.48 616.496 1434.48C622.344 1434.48 628.009 1433.61 633.491 1431.88C638.973 1430.14 644.273 1427.44 649.39 1423.79C654.323 1427.44 659.577 1430.14 665.151 1431.88C670.724 1433.61 676.435 1434.48 682.283 1434.48C688.13 1434.48 693.795 1433.61 699.277 1431.88C704.759 1430.14 710.059 1427.44 715.176 1423.79C720.292 1427.44 725.592 1430.19 731.074 1432.01C736.556 1433.84 742.221 1434.75 748.069 1434.75H759.033V1456.68H748.069C742.404 1456.68 736.83 1456 731.348 1454.63C725.866 1453.26 720.475 1451.2 715.176 1448.46C709.876 1451.2 704.485 1453.26 699.003 1454.63C693.521 1456 687.947 1456.68 682.283 1456.68C676.618 1456.68 671.044 1456 665.562 1454.63C660.08 1453.26 654.689 1451.2 649.39 1448.46C644.09 1451.2 638.699 1453.26 633.217 1454.63C627.735 1456 622.161 1456.68 616.496 1456.68C610.832 1456.68 605.258 1456 599.776 1454.63C594.294 1453.26 588.903 1451.2 583.603 1448.46C578.304 1451.2 572.913 1453.26 567.431 1454.63C561.949 1456 556.375 1456.68 550.71 1456.68H539.746Z" fill="#E3E3E3"/>
<path d="M615.126 1965.97C603.431 1961.95 592.832 1956.47 583.33 1949.52C573.827 1942.58 566.015 1934.45 559.894 1925.13C553.772 1915.81 550.711 1905.85 550.711 1895.25V1862.35L594.568 1895.25L577.574 1912.24C582.873 1921.56 591.279 1929.6 602.792 1936.36C614.304 1943.13 626.182 1947.42 638.426 1949.25V1851.39H605.533V1829.46H638.426V1816.58C632.03 1814.2 626.776 1810.23 622.664 1804.65C618.553 1799.08 616.497 1792.73 616.497 1785.6C616.497 1776.47 619.695 1768.7 626.091 1762.31C632.487 1755.91 640.253 1752.71 649.39 1752.71C658.527 1752.71 666.293 1755.91 672.689 1762.31C679.085 1768.7 682.283 1776.47 682.283 1785.6C682.283 1792.73 680.227 1799.08 676.116 1804.65C672.004 1810.23 666.75 1814.2 660.354 1816.58V1829.46H693.247V1851.39H660.354V1949.25C672.598 1947.42 684.476 1943.13 695.988 1936.36C707.501 1929.6 715.907 1921.56 721.206 1912.24L704.212 1895.25L748.069 1862.35V1895.25C748.069 1905.85 745.008 1915.81 738.886 1925.13C732.765 1934.45 724.953 1942.58 715.45 1949.52C705.948 1956.47 695.349 1961.95 683.654 1965.97C671.958 1969.99 660.537 1972 649.39 1972C638.243 1972 626.822 1969.99 615.126 1965.97ZM649.39 1796.57C652.497 1796.57 655.101 1795.52 657.202 1793.42C659.304 1791.32 660.354 1788.71 660.354 1785.6C660.354 1782.5 659.304 1779.89 657.202 1777.79C655.101 1775.69 652.497 1774.64 649.39 1774.64C646.283 1774.64 643.679 1775.69 641.578 1777.79C639.476 1779.89 638.426 1782.5 638.426 1785.6C638.426 1788.71 639.476 1791.32 641.578 1793.42C643.679 1795.52 646.283 1796.57 649.39 1796.57Z" fill="#E3E3E3"/>
<path d="M726.136 2357.14H572.636C560.525 2357.14 550.707 2366.96 550.707 2379.07V2510.64C550.707 2522.76 560.525 2532.57 572.636 2532.57H726.136C738.247 2532.57 748.065 2522.76 748.065 2510.64V2379.07C748.065 2366.96 738.247 2357.14 726.136 2357.14Z" stroke="white" stroke-width="18.6394" stroke-linecap="round" stroke-linejoin="round"/>
<path d="M594.562 2411.96H704.206" stroke="white" stroke-width="18.6394" stroke-linecap="round" stroke-linejoin="round"/>
<path d="M594.562 2455.82H660.349" stroke="white" stroke-width="18.6394" stroke-linecap="round" stroke-linejoin="round"/>
<path d="M594.562 2499.67H638.42" stroke="white" stroke-width="18.6394" stroke-linecap="round" stroke-linejoin="round"/>
<path d="M616.492 2960.18L649.385 2993.08L759.029 2883.43" stroke="white" stroke-width="18.6394" stroke-linecap="round" stroke-linejoin="round"/>
<path d="M748.065 2971.14V3047.89C748.065 3053.71 745.755 3059.29 741.642 3063.4C737.53 3067.51 731.952 3069.82 726.136 3069.82H572.636C566.82 3069.82 561.242 3067.51 557.13 3063.4C553.017 3059.29 550.707 3053.71 550.707 3047.89V2894.39C550.707 2888.58 553.017 2883 557.13 2878.89C561.242 2874.77 566.82 2872.46 572.636 2872.46H693.243" stroke="white" stroke-width="18.6394" stroke-linecap="round" stroke-linejoin="round"/>
<path d="M640.722 3587.1H664.358V3570.22C675.613 3568.19 685.292 3563.8 693.396 3557.05C701.499 3550.3 705.551 3540.28 705.551 3527C705.551 3517.54 702.85 3508.88 697.448 3501C692.045 3493.12 681.24 3486.25 665.033 3480.4C651.527 3475.9 642.185 3471.96 637.008 3468.58C631.83 3465.21 629.242 3460.59 629.242 3454.74C629.242 3448.89 631.324 3444.27 635.488 3440.9C639.653 3437.52 645.674 3435.83 653.553 3435.83C660.756 3435.83 666.383 3437.58 670.435 3441.07C674.487 3444.55 677.413 3448.89 679.214 3454.07L700.824 3445.29C698.348 3437.41 693.79 3430.54 687.149 3424.69C680.509 3418.84 673.137 3415.57 665.033 3414.9V3398.01H641.397V3414.9C630.142 3417.37 621.363 3422.33 615.06 3429.75C608.757 3437.18 605.606 3445.51 605.606 3454.74C605.606 3465.32 608.701 3473.87 614.891 3480.4C621.082 3486.93 630.817 3492.56 644.098 3497.28C658.28 3502.46 668.128 3507.08 673.643 3511.13C679.158 3515.18 681.916 3520.47 681.916 3527C681.916 3534.43 679.271 3539.89 673.981 3543.37C668.691 3546.86 662.332 3548.61 654.903 3548.61C647.475 3548.61 640.891 3546.3 635.151 3541.69C629.411 3537.07 625.19 3530.15 622.489 3520.92L600.204 3529.7C603.355 3540.5 608.251 3549.23 614.891 3555.87C621.532 3562.51 630.142 3567.07 640.722 3569.54V3587.1ZM652.877 3627.62C634.194 3627.62 616.636 3624.07 600.204 3616.98C583.771 3609.89 569.477 3600.27 557.322 3588.11C545.166 3575.96 535.543 3561.66 528.452 3545.23C521.362 3528.8 517.816 3511.24 517.816 3492.56C517.816 3473.87 521.362 3456.32 528.452 3439.88C535.543 3423.45 545.166 3409.16 557.322 3397C569.477 3384.85 583.771 3375.22 600.204 3368.13C616.636 3361.04 634.194 3357.5 652.877 3357.5C671.561 3357.5 689.119 3361.04 705.551 3368.13C721.984 3375.22 736.278 3384.85 748.433 3397C760.589 3409.16 770.212 3423.45 777.302 3439.88C784.393 3456.32 787.938 3473.87 787.938 3492.56C787.938 3511.24 784.393 3528.8 777.302 3545.23C770.212 3561.66 760.589 3575.96 748.433 3588.11C736.278 3600.27 721.984 3609.89 705.551 3616.98C689.119 3624.07 671.561 3627.62 652.877 3627.62ZM652.877 3600.61C683.041 3600.61 708.59 3590.14 729.525 3569.2C750.459 3548.27 760.926 3522.72 760.926 3492.56C760.926 3462.39 750.459 3436.84 729.525 3415.91C708.59 3394.98 683.041 3384.51 652.877 3384.51C622.714 3384.51 597.165 3394.98 576.23 3415.91C555.296 3436.84 544.829 3462.39 544.829 3492.56C544.829 3522.72 555.296 3548.27 576.23 3569.2C597.165 3590.14 622.714 3600.61 652.877 3600.61Z" fill="#E3E3E3"/>
<path d="M748.065 3925.04H726.136C720.081 3925.04 715.172 3929.95 715.172 3936.01V4111.44C715.172 4117.49 720.081 4122.4 726.136 4122.4H748.065C754.12 4122.4 759.029 4117.49 759.029 4111.44V3936.01C759.029 3929.95 754.12 3925.04 748.065 3925.04Z" stroke="white" stroke-width="18.6394" stroke-linecap="round" stroke-linejoin="round"/>
<path d="M660.35 3979.86H638.421C632.366 3979.86 627.457 3984.77 627.457 3990.82V4111.43C627.457 4117.49 632.366 4122.4 638.421 4122.4H660.35C666.405 4122.4 671.314 4117.49 671.314 4111.43V3990.82C671.314 3984.77 666.405 3979.86 660.35 3979.86Z" stroke="white" stroke-width="18.6394" stroke-linecap="round" stroke-linejoin="round"/>
<path d="M572.635 4034.69H550.707C544.651 4034.69 539.742 4039.6 539.742 4045.65V4111.44C539.742 4117.5 544.651 4122.4 550.707 4122.4H572.635C578.691 4122.4 583.6 4117.5 583.6 4111.44V4045.65C583.6 4039.6 578.691 4034.69 572.635 4034.69Z" stroke="white" stroke-width="18.6394" stroke-linecap="round" stroke-linejoin="round"/>
<path d="M649.385 4582.9C667.552 4582.9 682.278 4568.17 682.278 4550.01C682.278 4531.84 667.552 4517.12 649.385 4517.12C631.219 4517.12 616.492 4531.84 616.492 4550.01C616.492 4568.17 631.219 4582.9 649.385 4582.9Z" stroke="white" stroke-width="18.6394" stroke-linecap="round" stroke-linejoin="round"/>
<path d="M649.386 4440.36V4462.29M649.386 4637.72V4659.65M564.083 4464.7L579.652 4480.27M719.119 4619.74L734.688 4635.31M539.742 4550H561.671M737.1 4550H759.029M564.083 4635.31L579.652 4619.74M719.119 4480.27L734.688 4464.7" stroke="white" stroke-width="18.6394" stroke-linecap="round" stroke-linejoin="round"/>
<path d="M715.172 5032.44C715.172 5014.99 708.241 4998.25 695.904 4985.92C683.567 4973.58 666.834 4966.65 649.386 4966.65C631.939 4966.65 615.206 4973.58 602.868 4985.92C590.531 4998.25 583.6 5014.99 583.6 5032.44C583.6 5109.19 550.707 5131.11 550.707 5131.11H748.065C748.065 5131.11 715.172 5109.19 715.172 5032.44Z" stroke="white" stroke-width="18.6394" stroke-linecap="round" stroke-linejoin="round"/>
<path d="M668.355 5174.98C666.427 5178.3 663.66 5181.06 660.331 5182.97C657.002 5184.89 653.228 5185.9 649.386 5185.9C645.545 5185.9 641.77 5184.89 638.441 5182.97C635.112 5181.06 632.346 5178.3 630.418 5174.98" stroke="white" stroke-width="18.6394" stroke-linecap="round" stroke-linejoin="round"/>
<path d="M748.065 5635.48C748.065 5641.3 745.755 5646.87 741.642 5650.99C737.53 5655.1 731.952 5657.41 726.136 5657.41H594.564L550.707 5701.27V5525.84C550.707 5520.02 553.017 5514.44 557.13 5510.33C561.242 5506.22 566.82 5503.91 572.636 5503.91H726.136C731.952 5503.91 737.53 5506.22 741.642 5510.33C745.755 5514.44 748.065 5520.02 748.065 5525.84V5635.48Z" stroke="white" stroke-width="18.6394" stroke-linecap="round" stroke-linejoin="round"/>
<path d="M649.385 6128.88C673.606 6128.88 693.242 6109.24 693.242 6085.02C693.242 6060.8 673.606 6041.16 649.385 6041.16C625.163 6041.16 605.527 6060.8 605.527 6085.02C605.527 6109.24 625.163 6128.88 649.385 6128.88Z" stroke="white" stroke-width="18.6394" stroke-linecap="round" stroke-linejoin="round"/>
<path d="M561.668 6216.59C561.668 6172.74 601.14 6139.84 649.383 6139.84C697.626 6139.84 737.097 6172.74 737.097 6216.59" stroke="white" stroke-width="18.6394" stroke-linecap="round" stroke-linejoin="round"/>
<path d="M2414.43 3720.38V3505.63H2442.85V3695.04H2548.61V3720.38H2414.43ZM2685.72 3670.28L2712.96 3673.65C2708.67 3689.57 2700.71 3701.92 2689.09 3710.71C2677.47 3719.5 2662.62 3723.89 2644.56 3723.89C2621.8 3723.89 2603.74 3716.91 2590.36 3702.95C2577.08 3688.88 2570.44 3669.21 2570.44 3643.91C2570.44 3617.74 2577.17 3597.43 2590.65 3582.98C2604.13 3568.52 2621.61 3561.3 2643.09 3561.3C2663.89 3561.3 2680.88 3568.38 2694.07 3582.54C2707.25 3596.7 2713.84 3616.62 2713.84 3642.3C2713.84 3643.86 2713.79 3646.21 2713.7 3649.33H2597.68C2598.66 3666.42 2603.49 3679.51 2612.18 3688.59C2620.88 3697.67 2631.71 3702.21 2644.7 3702.21C2654.37 3702.21 2662.62 3699.67 2669.46 3694.6C2676.29 3689.52 2681.71 3681.41 2685.72 3670.28ZM2599.15 3627.65H2686.01C2684.84 3614.57 2681.52 3604.75 2676.05 3598.21C2667.65 3588.05 2656.76 3582.98 2643.38 3582.98C2631.28 3582.98 2621.07 3587.03 2612.77 3595.13C2604.57 3603.24 2600.03 3614.08 2599.15 3627.65ZM2752.52 3720.38V3585.32H2729.22V3564.81H2752.52V3548.26C2752.52 3537.81 2753.44 3530.05 2755.3 3524.97C2757.84 3518.13 2762.28 3512.61 2768.63 3508.41C2775.07 3504.12 2784.06 3501.97 2795.58 3501.97C2803 3501.97 2811.21 3502.85 2820.19 3504.61L2816.24 3527.6C2810.77 3526.63 2805.59 3526.14 2800.71 3526.14C2792.7 3526.14 2787.04 3527.85 2783.72 3531.27C2780.4 3534.68 2778.74 3541.08 2778.74 3550.46V3564.81H2809.06V3585.32H2778.74V3720.38H2752.52ZM2887.28 3696.79L2891.09 3720.08C2883.67 3721.65 2877.03 3722.43 2871.17 3722.43C2861.6 3722.43 2854.18 3720.91 2848.9 3717.89C2843.63 3714.86 2839.92 3710.9 2837.77 3706.02C2835.62 3701.04 2834.55 3690.64 2834.55 3674.82V3585.32H2815.21V3564.81H2834.55V3526.29L2860.77 3510.47V3564.81H2887.28V3585.32H2860.77V3676.29C2860.77 3683.81 2861.21 3688.64 2862.09 3690.79C2863.06 3692.94 2864.58 3694.65 2866.63 3695.91C2868.78 3697.18 2871.8 3697.82 2875.71 3697.82C2878.64 3697.82 2882.5 3697.48 2887.28 3696.79ZM2999.78 3720.38V3505.63H3028.93L3141.72 3674.23V3505.63H3168.97V3720.38H3139.82L3027.03 3551.63V3720.38H2999.78ZM3315.02 3701.19C3305.25 3709.49 3295.83 3715.35 3286.74 3718.77C3277.76 3722.18 3268.09 3723.89 3257.74 3723.89C3240.65 3723.89 3227.52 3719.74 3218.34 3711.44C3209.16 3703.04 3204.57 3692.35 3204.57 3679.36C3204.57 3671.74 3206.28 3664.81 3209.69 3658.56C3213.21 3652.21 3217.75 3647.14 3223.32 3643.33C3228.98 3639.52 3235.33 3636.64 3242.36 3634.68C3247.54 3633.32 3255.35 3632 3265.8 3630.73C3287.09 3628.19 3302.76 3625.16 3312.82 3621.65C3312.92 3618.03 3312.96 3615.74 3312.96 3614.76C3312.96 3604.02 3310.47 3596.45 3305.49 3592.06C3298.76 3586.1 3288.75 3583.12 3275.46 3583.12C3263.06 3583.12 3253.88 3585.32 3247.93 3589.71C3242.07 3594.01 3237.72 3601.68 3234.89 3612.71L3209.11 3609.2C3211.45 3598.16 3215.31 3589.27 3220.68 3582.54C3226.05 3575.7 3233.81 3570.48 3243.97 3566.86C3254.13 3563.15 3265.89 3561.3 3279.27 3561.3C3292.55 3561.3 3303.35 3562.86 3311.65 3565.98C3319.95 3569.11 3326.05 3573.06 3329.96 3577.85C3333.86 3582.54 3336.6 3588.49 3338.16 3595.72C3339.04 3600.21 3339.48 3608.32 3339.48 3620.04V3655.19C3339.48 3679.7 3340.02 3695.23 3341.09 3701.77C3342.26 3708.22 3344.51 3714.42 3347.83 3720.38H3320.29C3317.55 3714.91 3315.8 3708.51 3315.02 3701.19ZM3312.82 3642.3C3303.25 3646.21 3288.89 3649.53 3269.75 3652.26C3258.91 3653.82 3251.25 3655.58 3246.75 3657.54C3242.26 3659.49 3238.79 3662.37 3236.35 3666.18C3233.91 3669.89 3232.69 3674.04 3232.69 3678.63C3232.69 3685.66 3235.33 3691.52 3240.6 3696.21C3245.97 3700.9 3253.79 3703.24 3264.04 3703.24C3274.2 3703.24 3283.23 3701.04 3291.14 3696.65C3299.05 3692.15 3304.86 3686.05 3308.57 3678.34C3311.4 3672.38 3312.82 3663.59 3312.82 3651.97V3642.3ZM3423.71 3720.38L3364.53 3564.81H3392.36L3425.76 3657.98C3429.37 3668.03 3432.69 3678.48 3435.72 3689.32C3438.06 3681.12 3441.33 3671.26 3445.53 3659.73L3480.1 3564.81H3507.2L3448.32 3720.38H3423.71ZM3616.19 3720.38V3505.63H3696.75C3713.16 3505.63 3726.29 3507.83 3736.16 3512.22C3746.12 3516.52 3753.88 3523.21 3759.45 3532.29C3765.11 3541.28 3767.95 3550.7 3767.95 3560.56C3767.95 3569.74 3765.46 3578.39 3760.47 3586.49C3755.49 3594.6 3747.97 3601.14 3737.92 3606.12C3750.9 3609.93 3760.87 3616.42 3767.8 3625.6C3774.83 3634.78 3778.35 3645.62 3778.35 3658.12C3778.35 3668.18 3776.2 3677.56 3771.9 3686.25C3767.7 3694.84 3762.48 3701.48 3756.23 3706.17C3749.98 3710.86 3742.12 3714.42 3732.64 3716.86C3723.27 3719.21 3711.74 3720.38 3698.07 3720.38H3616.19ZM3644.61 3595.87H3691.04C3703.64 3595.87 3712.67 3595.04 3718.14 3593.38C3725.37 3591.23 3730.79 3587.66 3734.4 3582.68C3738.11 3577.7 3739.97 3571.45 3739.97 3563.93C3739.97 3556.8 3738.26 3550.55 3734.84 3545.18C3731.42 3539.71 3726.54 3536 3720.19 3534.05C3713.84 3532 3702.96 3530.97 3687.53 3530.97H3644.61V3595.87ZM3644.61 3695.04H3698.07C3707.25 3695.04 3713.7 3694.69 3717.41 3694.01C3723.95 3692.84 3729.42 3690.89 3733.81 3688.15C3738.21 3685.42 3741.82 3681.46 3744.65 3676.29C3747.49 3671.01 3748.9 3664.96 3748.9 3658.12C3748.9 3650.11 3746.85 3643.18 3742.75 3637.32C3738.65 3631.36 3732.94 3627.21 3725.61 3624.87C3718.38 3622.43 3707.94 3621.21 3694.26 3621.21H3644.61V3695.04ZM3915.6 3701.19C3905.84 3709.49 3896.41 3715.35 3887.33 3718.77C3878.35 3722.18 3868.68 3723.89 3858.33 3723.89C3841.24 3723.89 3828.1 3719.74 3818.92 3711.44C3809.74 3703.04 3805.15 3692.35 3805.15 3679.36C3805.15 3671.74 3806.86 3664.81 3810.28 3658.56C3813.79 3652.21 3818.34 3647.14 3823.9 3643.33C3829.57 3639.52 3835.91 3636.64 3842.95 3634.68C3848.12 3633.32 3855.93 3632 3866.38 3630.73C3887.67 3628.19 3903.35 3625.16 3913.4 3621.65C3913.5 3618.03 3913.55 3615.74 3913.55 3614.76C3913.55 3604.02 3911.06 3596.45 3906.08 3592.06C3899.34 3586.1 3889.33 3583.12 3876.05 3583.12C3863.65 3583.12 3854.47 3585.32 3848.51 3589.71C3842.65 3594.01 3838.31 3601.68 3835.47 3612.71L3809.69 3609.2C3812.04 3598.16 3815.89 3589.27 3821.27 3582.54C3826.64 3575.7 3834.4 3570.48 3844.56 3566.86C3854.71 3563.15 3866.48 3561.3 3879.86 3561.3C3893.14 3561.3 3903.93 3562.86 3912.23 3565.98C3920.53 3569.11 3926.64 3573.06 3930.54 3577.85C3934.45 3582.54 3937.18 3588.49 3938.75 3595.72C3939.62 3600.21 3940.06 3608.32 3940.06 3620.04V3655.19C3940.06 3679.7 3940.6 3695.23 3941.68 3701.77C3942.85 3708.22 3945.09 3714.42 3948.41 3720.38H3920.88C3918.14 3714.91 3916.38 3708.51 3915.6 3701.19ZM3913.4 3642.3C3903.83 3646.21 3889.48 3649.53 3870.34 3652.26C3859.5 3653.82 3851.83 3655.58 3847.34 3657.54C3842.85 3659.49 3839.38 3662.37 3836.94 3666.18C3834.5 3669.89 3833.28 3674.04 3833.28 3678.63C3833.28 3685.66 3835.91 3691.52 3841.19 3696.21C3846.56 3700.9 3854.37 3703.24 3864.62 3703.24C3874.78 3703.24 3883.81 3701.04 3891.72 3696.65C3899.63 3692.15 3905.45 3686.05 3909.16 3678.34C3911.99 3672.38 3913.4 3663.59 3913.4 3651.97V3642.3ZM3980.79 3720.38V3564.81H4004.52V3588.4C4010.57 3577.36 4016.14 3570.08 4021.22 3566.57C4026.39 3563.05 4032.06 3561.3 4038.21 3561.3C4047.1 3561.3 4056.13 3564.13 4065.31 3569.79L4056.23 3594.25C4049.78 3590.45 4043.34 3588.54 4036.89 3588.54C4031.13 3588.54 4025.95 3590.3 4021.36 3593.81C4016.77 3597.23 4013.5 3602.02 4011.55 3608.17C4008.62 3617.55 4007.15 3627.8 4007.15 3638.93V3720.38H3980.79Z" fill="white"/>
<line x1="1985.46" y1="1280.38" x2="1985.46" y2="6242.38" stroke="white" stroke-width="18"/>
<line x1="1990.46" y1="1289.38" x2="978.457" y2="1289.38" stroke="white" stroke-width="18"/>
<line x1="1976.46" y1="6233.38" x2="964.457" y2="6233.38" stroke="white" stroke-width="18"/>
</g>
<defs>
<filter id="filter0_d_51_548" x="0.00164986" y="-0.000137329" width="5639.76" height="7778.76" filterUnits="userSpaceOnUse" color-interpolation-filters="sRGB">
<feFlood flood-opacity="0" result="BackgroundImageFix"/>
<feColorMatrix in="SourceAlpha" type="matrix" values="0 0 0 0 0 0 0 0 0 0 0 0 0 0 0 0 0 0 127 0" result="hardAlpha"/>
<feOffset dx="23.9222"/>
<feGaussianBlur stdDeviation="95.6888"/>
<feComposite in2="hardAlpha" operator="out"/>
<feColorMatrix type="matrix" values="0 0 0 0 0 0 0 0 0 0 0 0 0 0 0 0 0 0 0.5 0"/>
<feBlend mode="normal" in2="BackgroundImageFix" result="effect1_dropShadow_51_548"/>
<feBlend mode="normal" in="SourceGraphic" in2="effect1_dropShadow_51_548" result="shape"/>
</filter>
<linearGradient id="paint0_linear_51_548" x1="2795.96" y1="191.377" x2="2795.96" y2="7587.38" gradientUnits="userSpaceOnUse">
<stop stop-color="#080F1C"/>
<stop offset="1" stop-color="#060B14"/>
</linearGradient>
</defs>
</svg>
