<svg width="5640" height="8951" viewBox="0 0 5640 8951" fill="none" xmlns="http://www.w3.org/2000/svg">
<g filter="url(#filter0_d_51_2541)">
<mask id="path-1-inside-1_51_2541" fill="white">
<path d="M167.457 191.377H5424.46V8759.38H167.457V191.377Z"/>
</mask>
<path d="M167.457 191.377H5424.46V8759.38H167.457V191.377Z" fill="url(#paint0_linear_51_2541)" shape-rendering="crispEdges"/>
<path d="M5424.46 191.377H5412.5V8759.38H5424.46H5436.42V191.377H5424.46Z" fill="#1A2840" mask="url(#path-1-inside-1_51_2541)"/>
<path d="M3829.93 3707.38L3856.74 3705.04C3858.01 3715.78 3860.94 3724.62 3865.53 3731.55C3870.22 3738.39 3877.44 3743.96 3887.21 3748.25C3896.97 3752.45 3907.96 3754.55 3920.17 3754.55C3931.01 3754.55 3940.58 3752.94 3948.88 3749.72C3957.18 3746.49 3963.33 3742.1 3967.34 3736.53C3971.44 3730.87 3973.49 3724.72 3973.49 3718.08C3973.49 3711.34 3971.54 3705.48 3967.63 3700.5C3963.72 3695.42 3957.28 3691.17 3948.29 3687.75C3942.53 3685.51 3929.79 3682.04 3910.06 3677.35C3890.33 3672.57 3876.52 3668.08 3868.61 3663.88C3858.35 3658.51 3850.69 3651.87 3845.61 3643.96C3840.63 3635.95 3838.14 3627.01 3838.14 3617.15C3838.14 3606.31 3841.21 3596.2 3847.37 3586.83C3853.52 3577.35 3862.5 3570.18 3874.32 3565.29C3886.13 3560.41 3899.27 3557.97 3913.72 3557.97C3929.64 3557.97 3943.65 3560.56 3955.76 3565.73C3967.97 3570.81 3977.35 3578.33 3983.89 3588.29C3990.43 3598.25 3993.95 3609.53 3994.44 3622.13L3967.19 3624.18C3965.72 3610.61 3960.74 3600.35 3952.25 3593.42C3943.85 3586.48 3931.4 3583.02 3914.89 3583.02C3897.71 3583.02 3885.16 3586.19 3877.25 3592.54C3869.44 3598.79 3865.53 3606.36 3865.53 3615.24C3865.53 3622.96 3868.31 3629.31 3873.88 3634.29C3879.35 3639.27 3893.61 3644.4 3916.65 3649.67C3939.8 3654.84 3955.67 3659.39 3964.26 3663.29C3976.76 3669.05 3985.99 3676.38 3991.95 3685.26C3997.9 3694.05 4000.88 3704.21 4000.88 3715.73C4000.88 3727.16 3997.61 3737.95 3991.07 3748.11C3984.52 3758.16 3975.1 3766.03 3962.79 3771.69C3950.59 3777.26 3936.82 3780.04 3921.49 3780.04C3902.05 3780.04 3885.74 3777.21 3872.56 3771.54C3859.47 3765.88 3849.17 3757.38 3841.65 3746.06C3834.23 3734.63 3830.32 3721.74 3829.93 3707.38ZM4036.33 3776.38V3561.63H4062.7V3638.68C4075 3624.42 4090.53 3617.3 4109.28 3617.3C4120.8 3617.3 4130.81 3619.59 4139.31 3624.18C4147.8 3628.67 4153.86 3634.92 4157.47 3642.93C4161.18 3650.94 4163.04 3662.56 4163.04 3677.79V3776.38H4136.67V3677.79C4136.67 3664.61 4133.79 3655.04 4128.03 3649.08C4122.37 3643.03 4114.31 3640 4103.86 3640C4096.05 3640 4088.67 3642.05 4081.74 3646.15C4074.9 3650.16 4070.02 3655.63 4067.09 3662.56C4064.16 3669.49 4062.7 3679.06 4062.7 3691.27V3776.38H4036.33ZM4203.47 3591.95V3561.63H4229.84V3591.95H4203.47ZM4203.47 3776.38V3620.81H4229.84V3776.38H4203.47ZM4270.12 3836V3620.81H4294.14V3641.03C4299.81 3633.12 4306.2 3627.21 4313.33 3623.3C4320.46 3619.3 4329.1 3617.3 4339.26 3617.3C4352.54 3617.3 4364.26 3620.71 4374.42 3627.55C4384.57 3634.39 4392.24 3644.05 4397.41 3656.55C4402.59 3668.96 4405.18 3682.58 4405.18 3697.42C4405.18 3713.34 4402.3 3727.7 4396.54 3740.49C4390.87 3753.18 4382.57 3762.95 4371.63 3769.79C4360.79 3776.52 4349.37 3779.89 4337.36 3779.89C4328.57 3779.89 4320.66 3778.04 4313.62 3774.33C4306.69 3770.62 4300.98 3765.93 4296.49 3760.26V3836H4270.12ZM4294 3699.47C4294 3719.49 4298.05 3734.29 4306.15 3743.86C4314.26 3753.43 4324.07 3758.21 4335.6 3758.21C4347.32 3758.21 4357.33 3753.28 4365.63 3743.42C4374.03 3733.46 4378.22 3718.08 4378.22 3697.28C4378.22 3677.45 4374.12 3662.61 4365.92 3652.74C4357.81 3642.88 4348.1 3637.95 4336.77 3637.95C4325.54 3637.95 4315.58 3643.22 4306.89 3653.77C4298.29 3664.22 4294 3679.45 4294 3699.47ZM3829.93 4052.38L3856.74 4050.04C3858.01 4060.78 3860.94 4069.62 3865.53 4076.55C3870.22 4083.39 3877.44 4088.96 3887.21 4093.25C3896.97 4097.45 3907.96 4099.55 3920.17 4099.55C3931.01 4099.55 3940.58 4097.94 3948.88 4094.72C3957.18 4091.49 3963.33 4087.1 3967.34 4081.53C3971.44 4075.87 3973.49 4069.72 3973.49 4063.08C3973.49 4056.34 3971.54 4050.48 3967.63 4045.5C3963.72 4040.42 3957.28 4036.17 3948.29 4032.75C3942.53 4030.51 3929.79 4027.04 3910.06 4022.35C3890.33 4017.57 3876.52 4013.08 3868.61 4008.88C3858.35 4003.51 3850.69 3996.87 3845.61 3988.96C3840.63 3980.95 3838.14 3972.01 3838.14 3962.15C3838.14 3951.31 3841.21 3941.2 3847.37 3931.83C3853.52 3922.35 3862.5 3915.18 3874.32 3910.29C3886.13 3905.41 3899.27 3902.97 3913.72 3902.97C3929.64 3902.97 3943.65 3905.56 3955.76 3910.73C3967.97 3915.81 3977.35 3923.33 3983.89 3933.29C3990.43 3943.25 3993.95 3954.53 3994.44 3967.13L3967.19 3969.18C3965.72 3955.61 3960.74 3945.35 3952.25 3938.42C3943.85 3931.48 3931.4 3928.02 3914.89 3928.02C3897.71 3928.02 3885.16 3931.19 3877.25 3937.54C3869.44 3943.79 3865.53 3951.36 3865.53 3960.24C3865.53 3967.96 3868.31 3974.31 3873.88 3979.29C3879.35 3984.27 3893.61 3989.4 3916.65 3994.67C3939.8 3999.84 3955.67 4004.39 3964.26 4008.29C3976.76 4014.05 3985.99 4021.38 3991.95 4030.26C3997.9 4039.05 4000.88 4049.21 4000.88 4060.73C4000.88 4072.16 3997.61 4082.95 3991.07 4093.11C3984.52 4103.16 3975.1 4111.03 3962.79 4116.69C3950.59 4122.26 3936.82 4125.04 3921.49 4125.04C3902.05 4125.04 3885.74 4122.21 3872.56 4116.54C3859.47 4110.88 3849.17 4102.38 3841.65 4091.06C3834.23 4079.63 3830.32 4066.74 3829.93 4052.38ZM4093.9 4097.79L4097.71 4121.08C4090.29 4122.65 4083.64 4123.43 4077.79 4123.43C4068.21 4123.43 4060.79 4121.91 4055.52 4118.89C4050.25 4115.86 4046.54 4111.9 4044.39 4107.02C4042.24 4102.04 4041.16 4091.64 4041.16 4075.82V3986.32H4021.83V3965.81H4041.16V3927.29L4067.38 3911.47V3965.81H4093.9V3986.32H4067.38V4077.29C4067.38 4084.81 4067.82 4089.64 4068.7 4091.79C4069.68 4093.94 4071.19 4095.65 4073.24 4096.91C4075.39 4098.18 4078.42 4098.82 4082.33 4098.82C4085.26 4098.82 4089.11 4098.48 4093.9 4097.79ZM4221.34 4102.19C4211.57 4110.49 4202.15 4116.35 4193.07 4119.77C4184.08 4123.18 4174.42 4124.89 4164.06 4124.89C4146.97 4124.89 4133.84 4120.74 4124.66 4112.44C4115.48 4104.04 4110.89 4093.35 4110.89 4080.36C4110.89 4072.74 4112.6 4065.81 4116.02 4059.56C4119.53 4053.21 4124.07 4048.14 4129.64 4044.33C4135.3 4040.52 4141.65 4037.64 4148.68 4035.68C4153.86 4034.32 4161.67 4033 4172.12 4031.73C4193.41 4029.19 4209.08 4026.16 4219.14 4022.65C4219.24 4019.03 4219.29 4016.74 4219.29 4015.76C4219.29 4005.02 4216.8 3997.45 4211.82 3993.06C4205.08 3987.1 4195.07 3984.12 4181.79 3984.12C4169.39 3984.12 4160.21 3986.32 4154.25 3990.71C4148.39 3995.01 4144.04 4002.68 4141.21 4013.71L4115.43 4010.2C4117.78 3999.16 4121.63 3990.27 4127 3983.54C4132.38 3976.7 4140.14 3971.48 4150.29 3967.86C4160.45 3964.15 4172.22 3962.3 4185.6 3962.3C4198.88 3962.3 4209.67 3963.86 4217.97 3966.98C4226.27 3970.11 4232.38 3974.06 4236.28 3978.85C4240.19 3983.54 4242.92 3989.49 4244.48 3996.72C4245.36 4001.21 4245.8 4009.32 4245.8 4021.04V4056.19C4245.8 4080.7 4246.34 4096.23 4247.41 4102.77C4248.59 4109.22 4250.83 4115.42 4254.15 4121.38H4226.61C4223.88 4115.91 4222.12 4109.51 4221.34 4102.19ZM4219.14 4043.3C4209.57 4047.21 4195.22 4050.53 4176.08 4053.26C4165.24 4054.82 4157.57 4056.58 4153.08 4058.54C4148.59 4060.49 4145.12 4063.37 4142.68 4067.18C4140.24 4070.89 4139.02 4075.04 4139.02 4079.63C4139.02 4086.66 4141.65 4092.52 4146.93 4097.21C4152.3 4101.9 4160.11 4104.24 4170.36 4104.24C4180.52 4104.24 4189.55 4102.04 4197.46 4097.65C4205.37 4093.15 4211.18 4087.05 4214.89 4079.34C4217.73 4073.38 4219.14 4064.59 4219.14 4052.97V4043.3ZM4344.39 4097.79L4348.2 4121.08C4340.77 4122.65 4334.13 4123.43 4328.27 4123.43C4318.7 4123.43 4311.28 4121.91 4306.01 4118.89C4300.73 4115.86 4297.02 4111.9 4294.88 4107.02C4292.73 4102.04 4291.65 4091.64 4291.65 4075.82V3986.32H4272.32V3965.81H4291.65V3927.29L4317.87 3911.47V3965.81H4344.39V3986.32H4317.87V4077.29C4317.87 4084.81 4318.31 4089.64 4319.19 4091.79C4320.17 4093.94 4321.68 4095.65 4323.73 4096.91C4325.88 4098.18 4328.91 4098.82 4332.81 4098.82C4335.74 4098.82 4339.6 4098.48 4344.39 4097.79ZM4472.27 4121.38V4098.53C4460.16 4116.1 4443.7 4124.89 4422.9 4124.89C4413.72 4124.89 4405.13 4123.14 4397.12 4119.62C4389.21 4116.1 4383.3 4111.71 4379.4 4106.44C4375.59 4101.06 4372.9 4094.52 4371.34 4086.81C4370.27 4081.63 4369.73 4073.43 4369.73 4062.2V3965.81H4396.1V4052.09C4396.1 4065.86 4396.63 4075.14 4397.71 4079.92C4399.37 4086.86 4402.88 4092.32 4408.25 4096.33C4413.62 4100.23 4420.27 4102.19 4428.18 4102.19C4436.09 4102.19 4443.51 4100.19 4450.44 4096.18C4457.38 4092.08 4462.26 4086.56 4465.09 4079.63C4468.02 4072.6 4469.48 4062.44 4469.48 4049.16V3965.81H4495.85V4121.38H4472.27ZM4526.76 4074.94L4552.83 4070.84C4554.3 4081.29 4558.35 4089.3 4564.99 4094.86C4571.73 4100.43 4581.11 4103.21 4593.12 4103.21C4605.23 4103.21 4614.21 4100.77 4620.07 4095.89C4625.93 4090.91 4628.86 4085.1 4628.86 4078.46C4628.86 4072.5 4626.27 4067.81 4621.1 4064.4C4617.48 4062.05 4608.5 4059.07 4594.14 4055.46C4574.81 4050.58 4561.38 4046.38 4553.86 4042.86C4546.44 4039.25 4540.77 4034.32 4536.87 4028.07C4533.06 4021.72 4531.15 4014.74 4531.15 4007.12C4531.15 4000.19 4532.72 3993.79 4535.84 3987.93C4539.06 3981.97 4543.41 3977.04 4548.88 3973.14C4552.98 3970.11 4558.55 3967.57 4565.58 3965.52C4572.71 3963.37 4580.32 3962.3 4588.43 3962.3C4600.64 3962.3 4611.33 3964.05 4620.51 3967.57C4629.79 3971.08 4636.62 3975.87 4641.02 3981.92C4645.41 3987.88 4648.44 3995.89 4650.1 4005.95L4624.32 4009.46C4623.15 4001.46 4619.73 3995.21 4614.06 3990.71C4608.5 3986.22 4600.59 3983.98 4590.33 3983.98C4578.22 3983.98 4569.58 3985.98 4564.41 3989.98C4559.23 3993.98 4556.64 3998.67 4556.64 4004.04C4556.64 4007.46 4557.72 4010.54 4559.87 4013.27C4562.01 4016.1 4565.38 4018.45 4569.97 4020.3C4572.61 4021.28 4580.37 4023.53 4593.26 4027.04C4611.92 4032.02 4624.9 4036.12 4632.23 4039.35C4639.65 4042.47 4645.46 4047.06 4649.66 4053.12C4653.86 4059.17 4655.96 4066.69 4655.96 4075.67C4655.96 4084.46 4653.37 4092.76 4648.2 4100.58C4643.12 4108.29 4635.74 4114.3 4626.08 4118.59C4616.41 4122.79 4605.47 4124.89 4593.26 4124.89C4573.05 4124.89 4557.62 4120.69 4546.97 4112.3C4536.43 4103.9 4529.69 4091.45 4526.76 4074.94Z" fill="white"/>
<line x1="3604.46" y1="1804.38" x2="3604.46" y2="6992.38" stroke="white" stroke-width="18"/>
<line x1="3595.46" y1="1813.38" x2="2928.46" y2="1813.38" stroke="white" stroke-width="18"/>
<line x1="3595.46" y1="7001.38" x2="2928.46" y2="7001.38" stroke="white" stroke-width="18"/>
<mask id="path-7-inside-2_51_2541" fill="white">
<path d="M506.457 2255.04C506.457 2090.65 639.725 1957.38 804.12 1957.38H2499.28C2663.67 1957.38 2796.94 2090.65 2796.94 2255.04V2255.04C2796.94 2419.43 2663.67 2552.7 2499.28 2552.7H804.12C639.725 2552.7 506.457 2419.43 506.457 2255.04V2255.04Z"/>
</mask>
<path d="M506.457 2255.04C506.457 2090.65 639.725 1957.38 804.12 1957.38H2499.28C2663.67 1957.38 2796.94 2090.65 2796.94 2255.04V2255.04C2796.94 2419.43 2663.67 2552.7 2499.28 2552.7H804.12C639.725 2552.7 506.457 2419.43 506.457 2255.04V2255.04Z" fill="#10D98A" fill-opacity="0.1"/>
<path d="M506.457 2255.04M2796.94 2255.04M2796.94 2255.04M506.457 2255.04M804.12 1957.38V1988.71H2499.28V1957.38V1926.04H804.12V1957.38ZM2796.94 2255.04M2499.28 2552.7V2521.37H804.12V2552.7V2584.04H2499.28V2552.7ZM506.457 2255.04M804.12 2552.7V2521.37C657.03 2521.37 537.79 2402.13 537.79 2255.04H506.457H475.124C475.124 2436.74 622.42 2584.04 804.12 2584.04V2552.7ZM2796.94 2255.04H2765.61C2765.61 2402.13 2646.37 2521.37 2499.28 2521.37V2552.7V2584.04C2680.98 2584.04 2828.27 2436.74 2828.27 2255.04H2796.94ZM2499.28 1957.38V1988.71C2646.37 1988.71 2765.61 2107.95 2765.61 2255.04H2796.94H2828.27C2828.27 2073.34 2680.98 1926.04 2499.28 1926.04V1957.38ZM804.12 1957.38V1926.04C622.42 1926.04 475.124 2073.34 475.124 2255.04H506.457H537.79C537.79 2107.95 657.03 1988.71 804.12 1988.71V1957.38Z" fill="#10D98A" fill-opacity="0.25" mask="url(#path-7-inside-2_51_2541)"/>
<path d="M997.868 2133.09H1042.12V2292.69C1042.12 2310.18 1037.99 2325.57 1029.72 2338.85C1021.53 2352.13 1009.99 2362.51 995.125 2369.98C980.255 2377.38 962.88 2381.07 943 2381.07C923.041 2381.07 905.626 2377.38 890.756 2369.98C875.886 2362.51 864.356 2352.13 856.165 2338.85C847.975 2325.57 843.879 2310.18 843.879 2292.69V2133.09H888.132V2288.99C888.132 2299.17 890.358 2308.23 894.811 2316.19C899.344 2324.14 905.706 2330.38 913.896 2334.91C922.087 2339.37 931.788 2341.59 943 2341.59C954.212 2341.59 963.914 2339.37 972.104 2334.91C980.374 2330.38 986.736 2324.14 991.189 2316.19C995.642 2308.23 997.868 2299.17 997.868 2288.99V2133.09ZM1131.49 2270.03V2377.38H1088.31V2194.16H1129.58V2225.3H1131.73C1135.94 2215.04 1142.66 2206.89 1151.89 2200.84C1161.19 2194.8 1172.68 2191.78 1186.36 2191.78C1199 2191.78 1210.02 2194.48 1219.4 2199.89C1228.86 2205.3 1236.18 2213.13 1241.35 2223.39C1246.59 2233.65 1249.18 2246.09 1249.1 2260.72V2377.38H1205.92V2267.4C1205.92 2255.16 1202.74 2245.57 1196.38 2238.65C1190.1 2231.74 1181.39 2228.28 1170.26 2228.28C1162.7 2228.28 1155.98 2229.95 1150.1 2233.29C1144.29 2236.55 1139.72 2241.28 1136.38 2247.48C1133.12 2253.68 1131.49 2261.2 1131.49 2270.03ZM1360.98 2380.6C1346.59 2380.6 1333.71 2376.9 1322.34 2369.5C1310.96 2362.11 1301.98 2351.37 1295.38 2337.3C1288.78 2323.22 1285.48 2306.13 1285.48 2286.01C1285.48 2265.65 1288.82 2248.48 1295.5 2234.48C1302.26 2220.41 1311.36 2209.79 1322.81 2202.63C1334.26 2195.4 1347.03 2191.78 1361.1 2191.78C1371.84 2191.78 1380.66 2193.61 1387.58 2197.27C1394.5 2200.84 1399.99 2205.18 1404.04 2210.27C1408.1 2215.28 1411.24 2220.01 1413.47 2224.46H1415.25V2133.09H1458.55V2377.38H1416.09V2348.51H1413.47C1411.24 2352.96 1408.02 2357.69 1403.8 2362.7C1399.59 2367.63 1394.02 2371.85 1387.1 2375.35C1380.19 2378.85 1371.48 2380.6 1360.98 2380.6ZM1373.03 2345.17C1382.17 2345.17 1389.97 2342.71 1396.41 2337.78C1402.85 2332.77 1407.74 2325.81 1411.08 2316.9C1414.42 2308 1416.09 2297.62 1416.09 2285.77C1416.09 2273.92 1414.42 2263.62 1411.08 2254.88C1407.82 2246.13 1402.97 2239.33 1396.53 2234.48C1390.17 2229.63 1382.33 2227.2 1373.03 2227.2C1363.41 2227.2 1355.38 2229.71 1348.94 2234.72C1342.49 2239.73 1337.64 2246.65 1334.38 2255.47C1331.12 2264.3 1329.49 2274.4 1329.49 2285.77C1329.49 2297.22 1331.12 2307.44 1334.38 2316.42C1337.72 2325.33 1342.61 2332.37 1349.05 2337.54C1355.58 2342.63 1363.57 2345.17 1373.03 2345.17ZM1585.67 2380.95C1567.3 2380.95 1551.44 2377.14 1538.08 2369.5C1524.8 2361.79 1514.58 2350.9 1507.43 2336.82C1500.27 2322.67 1496.69 2306.01 1496.69 2286.84C1496.69 2268 1500.27 2251.46 1507.43 2237.22C1514.66 2222.91 1524.76 2211.78 1537.72 2203.83C1550.69 2195.79 1565.91 2191.78 1583.41 2191.78C1594.7 2191.78 1605.35 2193.61 1615.37 2197.27C1625.47 2200.84 1634.38 2206.41 1642.09 2213.96C1649.89 2221.52 1656.01 2231.14 1660.46 2242.83C1664.91 2254.44 1667.14 2268.28 1667.14 2284.34V2297.58H1516.97V2268.47H1625.75C1625.67 2260.2 1623.88 2252.85 1620.38 2246.41C1616.88 2239.89 1611.99 2234.76 1605.71 2231.02C1599.51 2227.28 1592.27 2225.41 1584 2225.41C1575.18 2225.41 1567.42 2227.56 1560.74 2231.86C1554.06 2236.07 1548.86 2241.64 1545.12 2248.55C1541.46 2255.39 1539.59 2262.91 1539.51 2271.1V2296.51C1539.51 2307.16 1541.46 2316.31 1545.36 2323.94C1549.25 2331.49 1554.7 2337.3 1561.7 2341.35C1568.7 2345.33 1576.89 2347.32 1586.27 2347.32C1592.55 2347.32 1598.24 2346.44 1603.33 2344.69C1608.42 2342.86 1612.83 2340.2 1616.57 2336.7C1620.3 2333.2 1623.13 2328.87 1625.04 2323.7L1665.35 2328.23C1662.81 2338.89 1657.96 2348.19 1650.8 2356.14C1643.72 2364.02 1634.66 2370.14 1623.6 2374.51C1612.55 2378.81 1599.91 2380.95 1585.67 2380.95ZM1703.67 2377.38V2194.16H1745.54V2224.7H1747.45C1750.79 2214.12 1756.51 2205.97 1764.62 2200.25C1772.81 2194.44 1782.16 2191.54 1792.65 2191.54C1795.04 2191.54 1797.7 2191.66 1800.64 2191.9C1803.67 2192.06 1806.17 2192.33 1808.16 2192.73V2232.45C1806.33 2231.82 1803.43 2231.26 1799.45 2230.78C1795.55 2230.23 1791.78 2229.95 1788.12 2229.95C1780.25 2229.95 1773.17 2231.66 1766.89 2235.08C1760.69 2238.42 1755.79 2243.07 1752.22 2249.03C1748.64 2255 1746.85 2261.87 1746.85 2269.67V2377.38H1703.67ZM1877.61 2377.38L1825.84 2194.16H1869.86L1902.06 2322.98H1903.73L1936.65 2194.16H1980.19L2013.11 2322.27H2014.9L2046.63 2194.16H2090.76L2038.87 2377.38H1993.9L1959.55 2253.56H1957.05L1922.7 2377.38H1877.61ZM2173.63 2381.07C2162.02 2381.07 2151.56 2379.01 2142.26 2374.87C2133.03 2370.66 2125.72 2364.45 2120.31 2356.26C2114.98 2348.07 2112.32 2337.97 2112.32 2325.97C2112.32 2315.63 2114.23 2307.08 2118.04 2300.32C2121.86 2293.56 2127.07 2288.16 2133.67 2284.1C2140.27 2280.04 2147.7 2276.98 2155.97 2274.92C2164.32 2272.77 2172.95 2271.22 2181.86 2270.26C2192.59 2269.15 2201.3 2268.16 2207.98 2267.28C2214.66 2266.33 2219.51 2264.9 2222.53 2262.99C2225.63 2261 2227.18 2257.94 2227.18 2253.8V2253.09C2227.18 2244.1 2224.52 2237.14 2219.19 2232.21C2213.86 2227.28 2206.19 2224.82 2196.17 2224.82C2185.6 2224.82 2177.21 2227.12 2171 2231.74C2164.88 2236.35 2160.75 2241.8 2158.6 2248.08L2118.28 2242.35C2121.46 2231.22 2126.71 2221.92 2134.03 2214.44C2141.34 2206.89 2150.29 2201.24 2160.87 2197.5C2171.44 2193.69 2183.13 2191.78 2195.93 2191.78C2204.76 2191.78 2213.55 2192.81 2222.29 2194.88C2231.04 2196.95 2239.03 2200.37 2246.27 2205.14C2253.51 2209.83 2259.31 2216.23 2263.68 2224.34C2268.14 2232.45 2270.36 2242.59 2270.36 2254.76V2377.38H2228.85V2352.21H2227.42C2224.8 2357.3 2221.1 2362.07 2216.33 2366.52C2211.64 2370.9 2205.71 2374.43 2198.56 2377.14C2191.48 2379.76 2183.17 2381.07 2173.63 2381.07ZM2184.84 2349.35C2193.51 2349.35 2201.02 2347.64 2207.38 2344.22C2213.75 2340.72 2218.64 2336.11 2222.06 2330.38C2225.55 2324.65 2227.3 2318.41 2227.3 2311.65V2290.06C2225.95 2291.18 2223.65 2292.21 2220.39 2293.17C2217.2 2294.12 2213.63 2294.95 2209.65 2295.67C2205.67 2296.39 2201.74 2297.02 2197.84 2297.58C2193.95 2298.14 2190.57 2298.61 2187.7 2299.01C2181.26 2299.88 2175.5 2301.32 2170.41 2303.3C2165.32 2305.29 2161.3 2308.08 2158.36 2311.65C2155.42 2315.15 2153.95 2319.68 2153.95 2325.25C2153.95 2333.2 2156.85 2339.21 2162.65 2343.26C2168.46 2347.32 2175.85 2349.35 2184.84 2349.35ZM2334.06 2446.08C2328.17 2446.08 2322.73 2445.6 2317.72 2444.65C2312.79 2443.77 2308.85 2442.74 2305.91 2441.55L2315.93 2407.91C2322.21 2409.74 2327.82 2410.61 2332.75 2410.54C2337.68 2410.46 2342.01 2408.91 2345.75 2405.88C2349.56 2402.94 2352.78 2398.01 2355.41 2391.09L2359.11 2381.19L2292.67 2194.16H2338.47L2380.7 2332.53H2382.6L2424.95 2194.16H2470.87L2397.51 2399.56C2394.09 2409.26 2389.56 2417.57 2383.92 2424.49C2378.27 2431.49 2371.35 2436.82 2363.16 2440.47C2355.05 2444.21 2345.35 2446.08 2334.06 2446.08Z" fill="#10D98A"/>
<mask id="path-10-inside-3_51_2541" fill="white">
<path d="M506.457 6695.03C506.457 6530.64 639.725 6397.37 804.12 6397.37H2499.28C2663.67 6397.37 2796.94 6530.64 2796.94 6695.03V6695.03C2796.94 6859.43 2663.67 6992.69 2499.28 6992.69H804.12C639.725 6992.69 506.457 6859.43 506.457 6695.03V6695.03Z"/>
</mask>
<path d="M506.457 6695.03C506.457 6530.64 639.725 6397.37 804.12 6397.37H2499.28C2663.67 6397.37 2796.94 6530.64 2796.94 6695.03V6695.03C2796.94 6859.43 2663.67 6992.69 2499.28 6992.69H804.12C639.725 6992.69 506.457 6859.43 506.457 6695.03V6695.03Z" fill="#FFD166" fill-opacity="0.1"/>
<path d="M506.457 6695.03M2796.94 6695.03M2796.94 6695.03M506.457 6695.03M804.12 6397.37V6428.7H2499.28V6397.37V6366.04H804.12V6397.37ZM2796.94 6695.03M2499.28 6992.69V6961.36H804.12V6992.69V7024.03H2499.28V6992.69ZM506.457 6695.03M804.12 6992.69V6961.36C657.03 6961.36 537.79 6842.12 537.79 6695.03H506.457H475.124C475.124 6876.73 622.42 7024.03 804.12 7024.03V6992.69ZM2796.94 6695.03H2765.61C2765.61 6842.12 2646.37 6961.36 2499.28 6961.36V6992.69V7024.03C2680.98 7024.03 2828.27 6876.73 2828.27 6695.03H2796.94ZM2499.28 6397.37V6428.7C2646.37 6428.7 2765.61 6547.94 2765.61 6695.03H2796.94H2828.27C2828.27 6513.33 2680.98 6366.04 2499.28 6366.04V6397.37ZM804.12 6397.37V6366.04C622.42 6366.04 475.124 6513.33 475.124 6695.03H506.457H537.79C537.79 6547.94 657.03 6428.7 804.12 6428.7V6397.37Z" fill="#FFD166" fill-opacity="0.22" mask="url(#path-10-inside-3_51_2541)"/>
<path d="M875.25 6817.37H828.015L914.015 6573.08H968.645L1054.76 6817.37H1007.53L942.284 6623.18H940.376L875.25 6817.37ZM876.8 6721.59H1005.62V6757.13H876.8V6721.59ZM1165.04 6634.15V6667.55H1059.71V6634.15H1165.04ZM1085.72 6590.26H1128.9V6762.26C1128.9 6768.07 1129.77 6772.52 1131.52 6775.62C1133.35 6778.64 1135.73 6780.71 1138.68 6781.82C1141.62 6782.94 1144.88 6783.49 1148.46 6783.49C1151.16 6783.49 1153.63 6783.29 1155.85 6782.9C1158.16 6782.5 1159.91 6782.14 1161.1 6781.82L1168.38 6815.58C1166.07 6816.37 1162.77 6817.25 1158.48 6818.2C1154.26 6819.16 1149.09 6819.71 1142.97 6819.87C1132.16 6820.19 1122.42 6818.56 1113.75 6814.98C1105.08 6811.32 1098.2 6805.68 1093.11 6798.04C1088.1 6790.41 1085.64 6780.87 1085.72 6769.42V6590.26ZM1317.74 6817.37H1270.51L1356.51 6573.08H1411.14L1497.26 6817.37H1450.02L1384.78 6623.18H1382.87L1317.74 6817.37ZM1319.29 6721.59H1448.12V6757.13H1319.29V6721.59ZM1570.7 6710.02V6817.37H1527.53V6634.15H1568.8V6665.29H1570.94C1575.16 6655.03 1581.88 6646.88 1591.1 6640.83C1600.4 6634.79 1611.9 6631.77 1625.57 6631.77C1638.22 6631.77 1649.23 6634.47 1658.61 6639.88C1668.08 6645.29 1675.39 6653.12 1680.56 6663.38C1685.81 6673.64 1688.39 6686.08 1688.31 6700.71V6817.37H1645.13V6707.39C1645.13 6695.15 1641.95 6685.56 1635.59 6678.65C1629.31 6671.73 1620.6 6668.27 1609.47 6668.27C1601.92 6668.27 1595.2 6669.94 1589.31 6673.28C1583.51 6676.54 1578.93 6681.27 1575.59 6687.47C1572.33 6693.67 1570.7 6701.19 1570.7 6710.02ZM1812.12 6820.95C1793.83 6820.95 1778.13 6816.93 1765.01 6808.9C1751.97 6800.87 1741.91 6789.77 1734.83 6775.62C1727.83 6761.39 1724.34 6745 1724.34 6726.48C1724.34 6707.87 1727.91 6691.45 1735.07 6677.21C1742.23 6662.9 1752.33 6651.77 1765.37 6643.82C1778.49 6635.78 1793.99 6631.77 1811.89 6631.77C1826.76 6631.77 1839.92 6634.51 1851.37 6640C1862.9 6645.41 1872.08 6653.08 1878.92 6663.02C1885.76 6672.88 1889.66 6684.41 1890.61 6697.61H1849.34C1847.67 6688.78 1843.69 6681.43 1837.41 6675.54C1831.21 6669.58 1822.9 6666.6 1812.48 6666.6C1803.66 6666.6 1795.9 6668.98 1789.22 6673.76C1782.54 6678.45 1777.33 6685.21 1773.6 6694.03C1769.94 6702.86 1768.11 6713.44 1768.11 6725.76C1768.11 6738.25 1769.94 6748.98 1773.6 6757.97C1777.26 6766.87 1782.38 6773.75 1788.98 6778.6C1795.66 6783.37 1803.5 6785.76 1812.48 6785.76C1818.84 6785.76 1824.53 6784.57 1829.54 6782.18C1834.63 6779.71 1838.88 6776.18 1842.3 6771.56C1845.72 6766.95 1848.07 6761.35 1849.34 6754.75H1890.61C1889.58 6767.71 1885.76 6779.2 1879.16 6789.22C1872.56 6799.16 1863.57 6806.95 1852.2 6812.6C1840.83 6818.16 1827.47 6820.95 1812.12 6820.95ZM1969.24 6710.02V6817.37H1926.07V6573.08H1968.29V6665.29H1970.44C1974.73 6654.95 1981.37 6646.8 1990.36 6640.83C1999.42 6634.79 2010.95 6631.77 2024.95 6631.77C2037.67 6631.77 2048.76 6634.43 2058.23 6639.76C2067.69 6645.09 2075 6652.88 2080.17 6663.14C2085.42 6673.4 2088.05 6685.92 2088.05 6700.71V6817.37H2044.87V6707.39C2044.87 6695.07 2041.69 6685.48 2035.32 6678.65C2029.04 6671.73 2020.22 6668.27 2008.84 6668.27C2001.21 6668.27 1994.37 6669.94 1988.33 6673.28C1982.36 6676.54 1977.67 6681.27 1974.25 6687.47C1970.91 6693.67 1969.24 6701.19 1969.24 6710.02ZM2211.98 6820.95C2194.08 6820.95 2178.58 6817.01 2165.46 6809.14C2152.34 6801.26 2142.16 6790.25 2134.92 6776.1C2127.77 6761.94 2124.19 6745.4 2124.19 6726.48C2124.19 6707.55 2127.77 6690.97 2134.92 6676.74C2142.16 6662.5 2152.34 6651.45 2165.46 6643.58C2178.58 6635.71 2194.08 6631.77 2211.98 6631.77C2229.87 6631.77 2245.37 6635.71 2258.49 6643.58C2271.62 6651.45 2281.75 6662.5 2288.91 6676.74C2296.15 6690.97 2299.77 6707.55 2299.77 6726.48C2299.77 6745.4 2296.15 6761.94 2288.91 6776.1C2281.75 6790.25 2271.62 6801.26 2258.49 6809.14C2245.37 6817.01 2229.87 6820.95 2211.98 6820.95ZM2212.21 6786.35C2221.92 6786.35 2230.03 6783.69 2236.55 6778.36C2243.07 6772.96 2247.92 6765.72 2251.1 6756.65C2254.36 6747.59 2255.99 6737.49 2255.99 6726.36C2255.99 6715.15 2254.36 6705.01 2251.1 6695.94C2247.92 6686.8 2243.07 6679.52 2236.55 6674.11C2230.03 6668.71 2221.92 6666 2212.21 6666C2202.27 6666 2194 6668.71 2187.4 6674.11C2180.88 6679.52 2175.99 6686.8 2172.73 6695.94C2169.55 6705.01 2167.96 6715.15 2167.96 6726.36C2167.96 6737.49 2169.55 6747.59 2172.73 6756.65C2175.99 6765.72 2180.88 6772.96 2187.4 6778.36C2194 6783.69 2202.27 6786.35 2212.21 6786.35ZM2336.41 6817.37V6634.15H2378.28V6664.69H2380.19C2383.53 6654.11 2389.25 6645.96 2397.37 6640.24C2405.56 6634.43 2414.9 6631.53 2425.4 6631.53C2427.78 6631.53 2430.45 6631.65 2433.39 6631.89C2436.41 6632.05 2438.91 6632.33 2440.9 6632.72V6672.44C2439.07 6671.81 2436.17 6671.25 2432.19 6670.77C2428.3 6670.22 2424.52 6669.94 2420.86 6669.94C2412.99 6669.94 2405.91 6671.65 2399.63 6675.07C2393.43 6678.41 2388.54 6683.06 2384.96 6689.02C2381.38 6694.99 2379.59 6701.87 2379.59 6709.66V6817.37H2336.41Z" fill="#FFD166"/>
</g>
<defs>
<filter id="filter0_d_51_2541" x="0.00164986" y="-0.000137329" width="5639.76" height="8950.76" filterUnits="userSpaceOnUse" color-interpolation-filters="sRGB">
<feFlood flood-opacity="0" result="BackgroundImageFix"/>
<feColorMatrix in="SourceAlpha" type="matrix" values="0 0 0 0 0 0 0 0 0 0 0 0 0 0 0 0 0 0 127 0" result="hardAlpha"/>
<feOffset dx="23.9222"/>
<feGaussianBlur stdDeviation="95.6888"/>
<feComposite in2="hardAlpha" operator="out"/>
<feColorMatrix type="matrix" values="0 0 0 0 0 0 0 0 0 0 0 0 0 0 0 0 0 0 0.5 0"/>
<feBlend mode="normal" in2="BackgroundImageFix" result="effect1_dropShadow_51_2541"/>
<feBlend mode="normal" in="SourceGraphic" in2="effect1_dropShadow_51_2541" result="shape"/>
</filter>
<linearGradient id="paint0_linear_51_2541" x1="2795.96" y1="191.377" x2="2795.96" y2="8759.38" gradientUnits="userSpaceOnUse">
<stop stop-color="#080F1C"/>
<stop offset="1" stop-color="#060B14"/>
</linearGradient>
</defs>
</svg>
