<svg width="5640" height="8951" viewBox="0 0 5640 8951" fill="none" xmlns="http://www.w3.org/2000/svg">
<g filter="url(#filter0_d_51_2454)">
<mask id="path-1-inside-1_51_2454" fill="white">
<path d="M167.457 191.378H5424.46V8759.38H167.457V191.378Z"/>
</mask>
<path d="M167.457 191.378H5424.46V8759.38H167.457V191.378Z" fill="url(#paint0_linear_51_2454)" shape-rendering="crispEdges"/>
<path d="M5424.46 191.378H5412.5V8759.38H5424.46H5436.42V191.378H5424.46Z" fill="#1A2840" mask="url(#path-1-inside-1_51_2454)"/>
<path d="M3829.93 3707.38L3856.74 3705.04C3858.01 3715.78 3860.94 3724.62 3865.53 3731.55C3870.22 3738.39 3877.44 3743.96 3887.21 3748.25C3896.97 3752.45 3907.96 3754.55 3920.17 3754.55C3931.01 3754.55 3940.58 3752.94 3948.88 3749.72C3957.18 3746.49 3963.33 3742.1 3967.34 3736.53C3971.44 3730.87 3973.49 3724.72 3973.49 3718.08C3973.49 3711.34 3971.54 3705.48 3967.63 3700.5C3963.72 3695.42 3957.28 3691.17 3948.29 3687.75C3942.53 3685.51 3929.79 3682.04 3910.06 3677.35C3890.33 3672.57 3876.52 3668.08 3868.61 3663.88C3858.35 3658.51 3850.69 3651.87 3845.61 3643.96C3840.63 3635.95 3838.14 3627.01 3838.14 3617.15C3838.14 3606.31 3841.21 3596.2 3847.37 3586.83C3853.52 3577.35 3862.5 3570.18 3874.32 3565.29C3886.13 3560.41 3899.27 3557.97 3913.72 3557.97C3929.64 3557.97 3943.65 3560.56 3955.76 3565.73C3967.97 3570.81 3977.35 3578.33 3983.89 3588.29C3990.43 3598.25 3993.95 3609.53 3994.44 3622.13L3967.19 3624.18C3965.72 3610.61 3960.74 3600.35 3952.25 3593.42C3943.85 3586.49 3931.4 3583.02 3914.89 3583.02C3897.71 3583.02 3885.16 3586.19 3877.25 3592.54C3869.44 3598.79 3865.53 3606.36 3865.53 3615.24C3865.53 3622.96 3868.31 3629.31 3873.88 3634.29C3879.35 3639.27 3893.61 3644.4 3916.65 3649.67C3939.8 3654.84 3955.67 3659.39 3964.26 3663.29C3976.76 3669.05 3985.99 3676.38 3991.95 3685.26C3997.9 3694.05 4000.88 3704.21 4000.88 3715.73C4000.88 3727.16 3997.61 3737.95 3991.07 3748.11C3984.52 3758.16 3975.1 3766.03 3962.79 3771.69C3950.59 3777.26 3936.82 3780.04 3921.49 3780.04C3902.05 3780.04 3885.74 3777.21 3872.56 3771.54C3859.47 3765.88 3849.17 3757.38 3841.65 3746.06C3834.23 3734.63 3830.32 3721.74 3829.93 3707.38ZM4036.33 3776.38V3561.63H4062.7V3638.68C4075 3624.42 4090.53 3617.3 4109.28 3617.3C4120.8 3617.3 4130.81 3619.59 4139.31 3624.18C4147.8 3628.67 4153.86 3634.92 4157.47 3642.93C4161.18 3650.94 4163.04 3662.56 4163.04 3677.79V3776.38H4136.67V3677.79C4136.67 3664.61 4133.79 3655.04 4128.03 3649.08C4122.37 3643.03 4114.31 3640 4103.86 3640C4096.05 3640 4088.67 3642.05 4081.74 3646.15C4074.9 3650.16 4070.02 3655.63 4067.09 3662.56C4064.16 3669.49 4062.7 3679.06 4062.7 3691.27V3776.38H4036.33ZM4203.47 3591.95V3561.63H4229.84V3591.95H4203.47ZM4203.47 3776.38V3620.81H4229.84V3776.38H4203.47ZM4270.12 3836V3620.81H4294.14V3641.03C4299.81 3633.12 4306.2 3627.21 4313.33 3623.3C4320.46 3619.3 4329.1 3617.3 4339.26 3617.3C4352.54 3617.3 4364.26 3620.71 4374.42 3627.55C4384.57 3634.39 4392.24 3644.05 4397.41 3656.55C4402.59 3668.96 4405.18 3682.58 4405.18 3697.42C4405.18 3713.34 4402.3 3727.7 4396.54 3740.49C4390.87 3753.18 4382.57 3762.95 4371.63 3769.79C4360.79 3776.52 4349.37 3779.89 4337.36 3779.89C4328.57 3779.89 4320.66 3778.04 4313.62 3774.33C4306.69 3770.62 4300.98 3765.93 4296.49 3760.26V3836H4270.12ZM4294 3699.47C4294 3719.49 4298.05 3734.29 4306.15 3743.86C4314.26 3753.43 4324.07 3758.21 4335.6 3758.21C4347.32 3758.21 4357.33 3753.28 4365.63 3743.42C4374.03 3733.46 4378.22 3718.08 4378.22 3697.28C4378.22 3677.45 4374.12 3662.61 4365.92 3652.74C4357.81 3642.88 4348.1 3637.95 4336.77 3637.95C4325.54 3637.95 4315.58 3643.22 4306.89 3653.77C4298.29 3664.22 4294 3679.45 4294 3699.47ZM4573.05 3776.38V3586.97H4502.3V3561.63H4672.51V3586.97H4601.47V3776.38H4573.05ZM4680.57 3836.29L4677.64 3811.53C4683.4 3813.1 4688.43 3813.88 4692.73 3813.88C4698.59 3813.88 4703.27 3812.9 4706.79 3810.95C4710.3 3808.99 4713.19 3806.26 4715.43 3802.74C4717.09 3800.11 4719.78 3793.57 4723.49 3783.12C4723.98 3781.65 4724.76 3779.5 4725.83 3776.67L4666.8 3620.81H4695.22L4727.59 3710.9C4731.79 3722.32 4735.55 3734.34 4738.87 3746.93C4741.9 3734.82 4745.51 3723.01 4749.71 3711.49L4782.96 3620.81H4809.33L4750.15 3779.01C4743.8 3796.1 4738.87 3807.87 4735.35 3814.32C4730.67 3823.01 4725.29 3829.36 4719.24 3833.36C4713.19 3837.46 4705.96 3839.51 4697.56 3839.51C4692.48 3839.51 4686.82 3838.44 4680.57 3836.29ZM4831.74 3836V3620.81H4855.76V3641.03C4861.43 3633.12 4867.82 3627.21 4874.95 3623.3C4882.08 3619.3 4890.72 3617.3 4900.88 3617.3C4914.16 3617.3 4925.88 3620.71 4936.04 3627.55C4946.19 3634.39 4953.86 3644.05 4959.04 3656.55C4964.21 3668.96 4966.8 3682.58 4966.8 3697.42C4966.8 3713.34 4963.92 3727.7 4958.16 3740.49C4952.49 3753.18 4944.19 3762.95 4933.25 3769.79C4922.41 3776.52 4910.99 3779.89 4898.98 3779.89C4890.19 3779.89 4882.28 3778.04 4875.25 3774.33C4868.31 3770.62 4862.6 3765.93 4858.11 3760.26V3836H4831.74ZM4855.62 3699.47C4855.62 3719.49 4859.67 3734.29 4867.78 3743.86C4875.88 3753.43 4885.7 3758.21 4897.22 3758.21C4908.94 3758.21 4918.95 3753.28 4927.25 3743.42C4935.65 3733.46 4939.85 3718.08 4939.85 3697.28C4939.85 3677.45 4935.74 3662.61 4927.54 3652.74C4919.44 3642.88 4909.72 3637.95 4898.39 3637.95C4887.16 3637.95 4877.2 3643.22 4868.51 3653.77C4859.91 3664.22 4855.62 3679.45 4855.62 3699.47ZM5105.23 3726.28L5132.47 3729.65C5128.18 3745.57 5120.22 3757.92 5108.6 3766.71C5096.97 3775.5 5082.13 3779.89 5064.06 3779.89C5041.31 3779.89 5023.24 3772.91 5009.87 3758.95C4996.58 3744.88 4989.94 3725.21 4989.94 3699.91C4989.94 3673.74 4996.68 3653.43 5010.16 3638.98C5023.63 3624.52 5041.12 3617.3 5062.6 3617.3C5083.4 3617.3 5100.39 3624.38 5113.58 3638.54C5126.76 3652.7 5133.35 3672.62 5133.35 3698.3C5133.35 3699.86 5133.3 3702.21 5133.21 3705.33H5017.19C5018.17 3722.42 5023 3735.51 5031.69 3744.59C5040.38 3753.67 5051.22 3758.21 5064.21 3758.21C5073.88 3758.21 5082.13 3755.67 5088.97 3750.6C5095.8 3745.52 5101.22 3737.41 5105.23 3726.28ZM5018.65 3683.65H5105.52C5104.35 3670.57 5101.03 3660.75 5095.56 3654.21C5087.16 3644.05 5076.27 3638.98 5062.89 3638.98C5050.78 3638.98 5040.58 3643.03 5032.28 3651.13C5024.07 3659.24 5019.53 3670.08 5018.65 3683.65ZM5155.18 3729.94L5181.25 3725.84C5182.72 3736.29 5186.77 3744.3 5193.41 3749.86C5200.15 3755.43 5209.52 3758.21 5221.54 3758.21C5233.64 3758.21 5242.63 3755.77 5248.49 3750.89C5254.35 3745.91 5257.28 3740.1 5257.28 3733.46C5257.28 3727.5 5254.69 3722.81 5249.51 3719.4C5245.9 3717.05 5236.92 3714.07 5222.56 3710.46C5203.22 3705.58 5189.8 3701.38 5182.28 3697.86C5174.86 3694.25 5169.19 3689.32 5165.29 3683.07C5161.48 3676.72 5159.57 3669.74 5159.57 3662.12C5159.57 3655.19 5161.13 3648.79 5164.26 3642.93C5167.48 3636.97 5171.83 3632.04 5177.3 3628.14C5181.4 3625.11 5186.96 3622.57 5194 3620.52C5201.12 3618.37 5208.74 3617.3 5216.85 3617.3C5229.05 3617.3 5239.75 3619.05 5248.93 3622.57C5258.21 3626.08 5265.04 3630.87 5269.44 3636.92C5273.83 3642.88 5276.86 3650.89 5278.52 3660.95L5252.74 3664.46C5251.56 3656.46 5248.15 3650.21 5242.48 3645.71C5236.92 3641.22 5229.01 3638.98 5218.75 3638.98C5206.64 3638.98 5198 3640.98 5192.82 3644.98C5187.65 3648.99 5185.06 3653.67 5185.06 3659.04C5185.06 3662.46 5186.13 3665.54 5188.28 3668.27C5190.43 3671.1 5193.8 3673.45 5198.39 3675.3C5201.03 3676.28 5208.79 3678.53 5221.68 3682.04C5240.33 3687.02 5253.32 3691.12 5260.65 3694.35C5268.07 3697.47 5273.88 3702.06 5278.08 3708.12C5282.28 3714.17 5284.38 3721.69 5284.38 3730.67C5284.38 3739.46 5281.79 3747.76 5276.61 3755.58C5271.54 3763.29 5264.16 3769.3 5254.49 3773.59C5244.83 3777.79 5233.89 3779.89 5221.68 3779.89C5201.47 3779.89 5186.04 3775.69 5175.39 3767.3C5164.85 3758.9 5158.11 3746.45 5155.18 3729.94Z" fill="white"/>
<line x1="3604.46" y1="568.378" x2="3604.46" y2="8606.38" stroke="white" stroke-width="18"/>
<line x1="3595.46" y1="577.378" x2="2583.46" y2="577.378" stroke="white" stroke-width="18"/>
<line x1="3595.46" y1="8595.38" x2="2583.46" y2="8595.38" stroke="white" stroke-width="18"/>
<mask id="path-7-inside-2_51_2454" fill="white">
<path d="M336.32 762.187C336.32 655.149 423.092 568.378 530.13 568.378H1793.79C1900.82 568.378 1987.6 655.149 1987.6 762.187V762.187C1987.6 869.225 1900.82 955.997 1793.79 955.997H530.13C423.092 955.997 336.32 869.225 336.32 762.187V762.187Z"/>
</mask>
<path d="M336.32 762.187C336.32 655.149 423.092 568.378 530.13 568.378H1793.79C1900.82 568.378 1987.6 655.149 1987.6 762.187V762.187C1987.6 869.225 1900.82 955.997 1793.79 955.997H530.13C423.092 955.997 336.32 869.225 336.32 762.187V762.187Z" fill="#6C5CE7" fill-opacity="0.1"/>
<path d="M336.32 762.187M1987.6 762.187M1987.6 762.187M336.32 762.187M530.13 568.378V586.836H1793.79V568.378V549.92H530.13V568.378ZM1987.6 762.187M1793.79 955.997V937.539H530.13V955.997V974.455H1793.79V955.997ZM336.32 762.187M530.13 955.997V937.539C433.286 937.539 354.778 859.031 354.778 762.187H336.32H317.862C317.862 879.419 412.898 974.455 530.13 974.455V955.997ZM1987.6 762.187H1969.14C1969.14 859.031 1890.63 937.539 1793.79 937.539V955.997V974.455C1911.02 974.455 2006.05 879.419 2006.05 762.187H1987.6ZM1793.79 568.378V586.836C1890.63 586.836 1969.14 665.343 1969.14 762.187H1987.6H2006.05C2006.05 644.955 1911.02 549.92 1793.79 549.92V568.378ZM530.13 568.378V549.92C412.898 549.92 317.862 644.955 317.862 762.187H336.32H354.778C354.778 665.343 433.286 586.836 530.13 586.836V568.378Z" fill="#6C5CE7" fill-opacity="0.314" mask="url(#path-7-inside-2_51_2454)"/>
<path d="M528.89 713.335V691.156H645.419V713.335H600.276V837.21H574.032V713.335H528.89ZM721.655 791.14V727.67H747.471V837.21H722.439V817.741H721.298C718.826 823.874 714.761 828.89 709.103 832.788C703.493 836.687 696.576 838.636 688.351 838.636C681.171 838.636 674.824 837.044 669.309 833.858C663.842 830.625 659.563 825.942 656.473 819.809C653.382 813.628 651.837 806.164 651.837 797.416V727.67H677.653V793.422C677.653 800.364 679.555 805.879 683.358 809.968C687.162 814.056 692.154 816.101 698.335 816.101C702.138 816.101 705.823 815.174 709.388 813.319C712.954 811.465 715.878 808.708 718.16 805.047C720.49 801.338 721.655 796.703 721.655 791.14ZM821.657 880.57C812.386 880.57 804.422 879.31 797.766 876.79C791.11 874.318 785.761 870.99 781.72 866.806C777.679 862.622 774.874 857.986 773.305 852.899L796.554 847.265C797.599 849.405 799.121 851.521 801.118 853.612C803.115 855.752 805.801 857.511 809.176 858.89C812.599 860.316 816.902 861.029 822.084 861.029C829.406 861.029 835.468 859.246 840.27 855.681C845.072 852.162 847.473 846.362 847.473 838.28V817.527H846.189C844.858 820.189 842.908 822.923 840.341 825.728C837.821 828.533 834.469 830.887 830.286 832.788C826.149 834.69 820.943 835.641 814.668 835.641C806.252 835.641 798.622 833.668 791.775 829.722C784.977 825.728 779.557 819.785 775.516 811.893C771.522 803.953 769.525 794.017 769.525 782.083C769.525 770.055 771.522 759.904 775.516 751.632C779.557 743.312 785 737.012 791.847 732.733C798.693 728.407 806.324 726.243 814.739 726.243C821.157 726.243 826.435 727.337 830.571 729.524C834.755 731.663 838.083 734.255 840.555 737.297C843.027 740.293 844.905 743.121 846.189 745.784H847.615V727.67H873.075V838.993C873.075 848.359 870.84 856.108 866.371 862.242C861.902 868.375 855.793 872.963 848.043 876.005C840.294 879.048 831.498 880.57 821.657 880.57ZM821.87 815.388C827.338 815.388 831.997 814.056 835.848 811.394C839.699 808.731 842.623 804.904 844.62 799.912C846.617 794.92 847.615 788.93 847.615 781.941C847.615 775.047 846.617 769.009 844.62 763.827C842.671 758.644 839.771 754.627 835.92 751.774C832.116 748.874 827.433 747.424 821.87 747.424C816.118 747.424 811.316 748.922 807.465 751.917C803.614 754.912 800.714 759.025 798.764 764.254C796.815 769.437 795.84 775.332 795.84 781.941C795.84 788.644 796.815 794.516 798.764 799.556C800.761 804.548 803.685 808.446 807.536 811.251C811.435 814.009 816.213 815.388 821.87 815.388ZM1008.97 684.31L961.898 859.175H939.291L986.359 684.31H1008.97ZM1155.77 731.307C1155.1 725.079 1152.3 720.229 1147.35 716.759C1142.46 713.288 1136.09 711.553 1128.24 711.553C1122.73 711.553 1118 712.385 1114.05 714.049C1110.1 715.713 1107.08 717.971 1104.99 720.823C1102.9 723.676 1101.83 726.933 1101.78 730.594C1101.78 733.636 1102.47 736.275 1103.85 738.51C1105.28 740.744 1107.2 742.646 1109.63 744.215C1112.05 745.736 1114.74 747.02 1117.69 748.066C1120.63 749.112 1123.61 749.991 1126.6 750.705L1140.29 754.128C1145.81 755.411 1151.11 757.147 1156.2 759.334C1161.33 761.521 1165.92 764.278 1169.96 767.606C1174.05 770.934 1177.28 774.952 1179.66 779.659C1182.04 784.365 1183.22 789.88 1183.22 796.204C1183.22 804.762 1181.04 812.297 1176.66 818.811C1172.29 825.277 1165.97 830.34 1157.69 834.001C1149.47 837.614 1139.51 839.421 1127.81 839.421C1116.45 839.421 1106.58 837.662 1098.22 834.143C1089.9 830.625 1083.38 825.49 1078.68 818.739C1074.02 811.988 1071.5 803.763 1071.12 794.064H1097.15C1097.53 799.151 1099.1 803.383 1101.85 806.758C1104.61 810.134 1108.2 812.654 1112.62 814.318C1117.09 815.982 1122.08 816.814 1127.6 816.814C1133.35 816.814 1138.39 815.958 1142.72 814.246C1147.09 812.487 1150.51 810.063 1152.99 806.972C1155.46 803.834 1156.72 800.174 1156.77 795.99C1156.72 792.186 1155.6 789.048 1153.41 786.576C1151.23 784.056 1148.16 781.964 1144.22 780.3C1140.32 778.589 1135.75 777.067 1130.52 775.736L1113.91 771.457C1101.88 768.367 1092.37 763.684 1085.38 757.408C1078.44 751.085 1074.97 742.694 1074.97 732.234C1074.97 723.629 1077.3 716.093 1081.96 709.627C1086.66 703.161 1093.06 698.145 1101.14 694.579C1109.22 690.966 1118.38 689.16 1128.6 689.16C1138.96 689.16 1148.04 690.966 1155.84 694.579C1163.68 698.145 1169.84 703.114 1174.31 709.484C1178.78 715.808 1181.09 723.082 1181.23 731.307H1155.77ZM1254.17 839.349C1243.18 839.349 1233.7 837.067 1225.71 832.503C1217.77 827.891 1211.66 821.378 1207.38 812.963C1203.1 804.5 1200.96 794.54 1200.96 783.082C1200.96 771.814 1203.1 761.925 1207.38 753.415C1211.71 744.857 1217.75 738.201 1225.5 733.446C1233.25 728.644 1242.35 726.243 1252.81 726.243C1259.56 726.243 1265.93 727.337 1271.92 729.524C1277.96 731.663 1283.29 734.991 1287.9 739.508C1292.56 744.025 1296.22 749.777 1298.88 756.766C1301.54 763.708 1302.87 771.98 1302.87 781.584V789.5H1213.09V772.099H1278.13C1278.08 767.155 1277.01 762.757 1274.92 758.906C1272.83 755.007 1269.9 751.941 1266.15 749.706C1262.44 747.472 1258.11 746.354 1253.17 746.354C1247.89 746.354 1243.25 747.638 1239.26 750.205C1235.27 752.725 1232.15 756.053 1229.92 760.19C1227.73 764.278 1226.61 768.771 1226.57 773.668V788.858C1226.57 795.229 1227.73 800.697 1230.06 805.261C1232.39 809.777 1235.65 813.248 1239.83 815.673C1244.02 818.05 1248.91 819.239 1254.52 819.239C1258.28 819.239 1261.68 818.716 1264.72 817.67C1267.76 816.576 1270.4 814.983 1272.64 812.891C1274.87 810.8 1276.56 808.208 1277.7 805.118L1301.8 807.828C1300.28 814.199 1297.38 819.762 1293.1 824.516C1288.87 829.223 1283.45 832.884 1276.84 835.498C1270.24 838.066 1262.68 839.349 1254.17 839.349ZM1324.71 837.21V727.67H1349.75V745.926H1350.89C1352.88 739.603 1356.31 734.73 1361.16 731.307C1366.05 727.836 1371.64 726.101 1377.92 726.101C1379.34 726.101 1380.93 726.172 1382.69 726.315C1384.5 726.41 1386 726.576 1387.19 726.814V750.562C1386.09 750.182 1384.36 749.849 1381.98 749.564C1379.65 749.231 1377.39 749.064 1375.21 749.064C1370.5 749.064 1366.27 750.087 1362.51 752.131C1358.8 754.128 1355.88 756.909 1353.74 760.475C1351.6 764.041 1350.53 768.153 1350.53 772.812V837.21H1324.71ZM1505.52 727.67L1466.51 837.21H1437.98L1398.97 727.67H1426.5L1451.67 809.04H1452.81L1478.06 727.67H1505.52ZM1523.38 837.21V727.67H1549.2V837.21H1523.38ZM1536.36 712.123C1532.27 712.123 1528.75 710.768 1525.81 708.058C1522.86 705.301 1521.38 701.996 1521.38 698.145C1521.38 694.247 1522.86 690.942 1525.81 688.232C1528.75 685.475 1532.27 684.096 1536.36 684.096C1540.5 684.096 1544.01 685.475 1546.91 688.232C1549.86 690.942 1551.34 694.247 1551.34 698.145C1551.34 701.996 1549.86 705.301 1546.91 708.058C1544.01 710.768 1540.5 712.123 1536.36 712.123ZM1623.52 839.349C1612.59 839.349 1603.2 836.948 1595.36 832.147C1587.56 827.345 1581.54 820.712 1577.31 812.25C1573.13 803.739 1571.04 793.945 1571.04 782.868C1571.04 771.743 1573.18 761.925 1577.46 753.415C1581.73 744.857 1587.77 738.201 1595.57 733.446C1603.41 728.644 1612.69 726.243 1623.38 726.243C1632.27 726.243 1640.14 727.884 1646.99 731.164C1653.88 734.397 1659.37 738.985 1663.46 744.928C1667.55 750.823 1669.88 757.717 1670.45 765.609H1645.78C1644.78 760.332 1642.4 755.934 1638.64 752.416C1634.94 748.85 1629.97 747.068 1623.74 747.068C1618.46 747.068 1613.83 748.494 1609.83 751.346C1605.84 754.151 1602.72 758.193 1600.49 763.47C1598.3 768.747 1597.21 775.071 1597.21 782.44C1597.21 789.904 1598.3 796.323 1600.49 801.695C1602.68 807.02 1605.74 811.132 1609.69 814.033C1613.68 816.885 1618.37 818.311 1623.74 818.311C1627.54 818.311 1630.94 817.598 1633.94 816.172C1636.98 814.698 1639.52 812.582 1641.57 809.825C1643.61 807.067 1645.01 803.716 1645.78 799.769H1670.45C1669.83 807.519 1667.55 814.389 1663.6 820.38C1659.66 826.323 1654.29 830.982 1647.49 834.357C1640.69 837.685 1632.7 839.349 1623.52 839.349ZM1740.14 839.349C1729.16 839.349 1719.68 837.067 1711.69 832.503C1703.75 827.891 1697.64 821.378 1693.36 812.963C1689.08 804.5 1686.94 794.54 1686.94 783.082C1686.94 771.814 1689.08 761.925 1693.36 753.415C1697.69 744.857 1703.72 738.201 1711.47 733.446C1719.22 728.644 1728.33 726.243 1738.79 726.243C1745.54 726.243 1751.91 727.337 1757.9 729.524C1763.94 731.663 1769.26 734.991 1773.88 739.508C1778.53 744.025 1782.2 749.777 1784.86 756.766C1787.52 763.708 1788.85 771.98 1788.85 781.584V789.5H1699.07V772.099H1764.11C1764.06 767.155 1762.99 762.757 1760.9 758.906C1758.8 755.007 1755.88 751.941 1752.12 749.706C1748.42 747.472 1744.09 746.354 1739.14 746.354C1733.87 746.354 1729.23 747.638 1725.24 750.205C1721.24 752.725 1718.13 756.053 1715.9 760.19C1713.71 764.278 1712.59 768.771 1712.54 773.668V788.858C1712.54 795.229 1713.71 800.697 1716.04 805.261C1718.37 809.777 1721.62 813.248 1725.81 815.673C1729.99 818.05 1734.89 819.239 1740.5 819.239C1744.26 819.239 1747.66 818.716 1750.7 817.67C1753.74 816.576 1756.38 814.983 1758.61 812.891C1760.85 810.8 1762.54 808.208 1763.68 805.118L1787.78 807.828C1786.26 814.199 1783.36 819.762 1779.08 824.516C1774.85 829.223 1769.43 832.884 1762.82 835.498C1756.21 838.066 1748.65 839.349 1740.14 839.349Z" fill="#6C5CE7"/>
<mask id="path-10-inside-3_51_2454" fill="white">
<path d="M248.934 2033.99C248.934 1926.95 335.705 1840.18 442.743 1840.18H1881.17C1988.21 1840.18 2074.98 1926.95 2074.98 2033.99V2033.99C2074.98 2141.03 1988.21 2227.8 1881.17 2227.8H442.743C335.705 2227.8 248.934 2141.03 248.934 2033.99V2033.99Z"/>
</mask>
<path d="M248.934 2033.99C248.934 1926.95 335.705 1840.18 442.743 1840.18H1881.17C1988.21 1840.18 2074.98 1926.95 2074.98 2033.99V2033.99C2074.98 2141.03 1988.21 2227.8 1881.17 2227.8H442.743C335.705 2227.8 248.934 2141.03 248.934 2033.99V2033.99Z" fill="#636E72" fill-opacity="0.1"/>
<path d="M248.934 2033.99M2074.98 2033.99M2074.98 2033.99M248.934 2033.99M442.743 1840.18V1858.64H1881.17V1840.18V1821.72H442.743V1840.18ZM2074.98 2033.99M1881.17 2227.8V2209.34H442.743V2227.8V2246.26H1881.17V2227.8ZM248.934 2033.99M442.743 2227.8V2209.34C345.899 2209.34 267.392 2130.83 267.392 2033.99H248.934H230.476C230.476 2151.22 325.511 2246.26 442.743 2246.26V2227.8ZM2074.98 2033.99H2056.53C2056.53 2130.83 1978.02 2209.34 1881.17 2209.34V2227.8V2246.26C1998.41 2246.26 2093.44 2151.22 2093.44 2033.99H2074.98ZM1881.17 1840.18V1858.64C1978.02 1858.64 2056.53 1937.15 2056.53 2033.99H2074.98H2093.44C2093.44 1916.76 1998.41 1821.72 1881.17 1821.72V1840.18ZM442.743 1840.18V1821.72C325.511 1821.72 230.476 1916.76 230.476 2033.99H248.934H267.392C267.392 1937.15 345.899 1858.64 442.743 1858.64V1840.18Z" fill="#636E72" fill-opacity="0.314" mask="url(#path-10-inside-3_51_2454)"/>
<path d="M567.945 1962.96V2109.01H544.411L475.592 2009.53H474.379V2109.01H447.921V1962.96H471.598L540.346 2062.52H541.63V1962.96H567.945ZM627.154 2111.22C620.213 2111.22 613.961 2109.99 608.398 2107.52C602.883 2105 598.509 2101.29 595.276 2096.39C592.091 2091.49 590.498 2085.46 590.498 2078.28C590.498 2072.1 591.639 2066.98 593.921 2062.94C596.203 2058.9 599.318 2055.67 603.264 2053.24C607.21 2050.82 611.655 2048.99 616.6 2047.75C621.592 2046.47 626.75 2045.54 632.075 2044.97C638.493 2044.31 643.699 2043.71 647.693 2043.19C651.687 2042.62 654.587 2041.76 656.394 2040.62C658.248 2039.43 659.175 2037.6 659.175 2035.13V2034.7C659.175 2029.33 657.582 2025.17 654.397 2022.22C651.211 2019.28 646.623 2017.8 640.633 2017.8C634.31 2017.8 629.294 2019.18 625.585 2021.94C621.925 2024.7 619.452 2027.95 618.169 2031.71L594.064 2028.28C595.966 2021.63 599.104 2016.07 603.478 2011.6C607.852 2007.08 613.2 2003.7 619.524 2001.47C625.847 1999.19 632.836 1998.05 640.49 1998.05C645.768 1998.05 651.021 1998.66 656.251 1999.9C661.481 2001.14 666.259 2003.18 670.585 2006.03C674.912 2008.84 678.382 2012.67 680.997 2017.52C683.66 2022.37 684.991 2028.43 684.991 2035.7V2109.01H660.173V2093.97H659.317C657.749 2097.01 655.538 2099.86 652.685 2102.52C649.88 2105.14 646.338 2107.25 642.059 2108.87C637.828 2110.44 632.86 2111.22 627.154 2111.22ZM633.858 2092.25C639.04 2092.25 643.533 2091.23 647.337 2089.19C651.14 2087.1 654.064 2084.34 656.108 2080.92C658.2 2077.49 659.246 2073.76 659.246 2069.72V2056.81C658.438 2057.48 657.059 2058.09 655.11 2058.66C653.208 2059.24 651.069 2059.73 648.691 2060.16C646.314 2060.59 643.961 2060.97 641.631 2061.3C639.302 2061.64 637.281 2061.92 635.569 2062.16C631.718 2062.68 628.272 2063.54 625.229 2064.73C622.186 2065.92 619.785 2067.58 618.026 2069.72C616.267 2071.81 615.387 2074.52 615.387 2077.85C615.387 2082.6 617.123 2086.19 620.593 2088.62C624.064 2091.04 628.486 2092.25 633.858 2092.25ZM804.872 1999.47L765.862 2109.01H737.336L698.327 1999.47H725.855L751.029 2080.84H752.17L777.415 1999.47H804.872ZM851.12 2111.22C844.178 2111.22 837.926 2109.99 832.364 2107.52C826.849 2105 822.475 2101.29 819.242 2096.39C816.056 2091.49 814.464 2085.46 814.464 2078.28C814.464 2072.1 815.605 2066.98 817.887 2062.94C820.169 2058.9 823.283 2055.67 827.229 2053.24C831.175 2050.82 835.621 2048.99 840.565 2047.75C845.557 2046.47 850.716 2045.54 856.041 2044.97C862.459 2044.31 867.665 2043.71 871.659 2043.19C875.652 2042.62 878.552 2041.76 880.359 2040.62C882.213 2039.43 883.14 2037.6 883.14 2035.13V2034.7C883.14 2029.33 881.548 2025.17 878.362 2022.22C875.177 2019.28 870.589 2017.8 864.598 2017.8C858.275 2017.8 853.259 2019.18 849.551 2021.94C845.89 2024.7 843.418 2027.95 842.134 2031.71L818.029 2028.28C819.931 2021.63 823.069 2016.07 827.443 2011.6C831.817 2007.08 837.166 2003.7 843.489 2001.47C849.812 1999.19 856.801 1998.05 864.456 1998.05C869.733 1998.05 874.987 1998.66 880.216 1999.9C885.446 2001.14 890.224 2003.18 894.551 2006.03C898.877 2008.84 902.348 2012.67 904.963 2017.52C907.625 2022.37 908.956 2028.43 908.956 2035.7V2109.01H884.139V2093.97H883.283C881.714 2097.01 879.503 2099.86 876.651 2102.52C873.846 2105.14 870.304 2107.25 866.025 2108.87C861.793 2110.44 856.825 2111.22 851.12 2111.22ZM857.823 2092.25C863.006 2092.25 867.498 2091.23 871.302 2089.19C875.105 2087.1 878.029 2084.34 880.074 2080.92C882.166 2077.49 883.212 2073.76 883.212 2069.72V2056.81C882.403 2057.48 881.025 2058.09 879.075 2058.66C877.174 2059.24 875.034 2059.73 872.657 2060.16C870.28 2060.59 867.926 2060.97 865.597 2061.3C863.267 2061.64 861.247 2061.92 859.535 2062.16C855.684 2062.68 852.237 2063.54 849.194 2064.73C846.151 2065.92 843.751 2067.58 841.991 2069.72C840.232 2071.81 839.353 2074.52 839.353 2077.85C839.353 2082.6 841.088 2086.19 844.559 2088.62C848.029 2091.04 852.451 2092.25 857.823 2092.25ZM960.731 1962.96V2109.01H934.915V1962.96H960.731ZM1096.71 1956.11L1049.64 2130.98H1027.04L1074.1 1956.11H1096.71ZM1164.14 1962.96H1196.52L1239.88 2068.79H1241.59L1284.95 1962.96H1317.33V2109.01H1291.94V2008.67H1290.58L1250.22 2108.59H1231.25L1190.88 2008.46H1189.53V2109.01H1164.14V1962.96ZM1345 2109.01V1999.47H1370.81V2109.01H1345ZM1357.97 1983.93C1353.89 1983.93 1350.37 1982.57 1347.42 1979.86C1344.47 1977.1 1343 1973.8 1343 1969.95C1343 1966.05 1344.47 1962.75 1347.42 1960.04C1350.37 1957.28 1353.89 1955.9 1357.97 1955.9C1362.11 1955.9 1365.63 1957.28 1368.53 1960.04C1371.48 1962.75 1372.95 1966.05 1372.95 1969.95C1372.95 1973.8 1371.48 1977.1 1368.53 1979.86C1365.63 1982.57 1362.11 1983.93 1357.97 1983.93ZM1423.17 1962.96V2109.01H1397.36V1962.96H1423.17ZM1449.72 2109.01V1999.47H1475.54V2109.01H1449.72ZM1462.7 1983.93C1458.61 1983.93 1455.09 1982.57 1452.15 1979.86C1449.2 1977.1 1447.73 1973.8 1447.73 1969.95C1447.73 1966.05 1449.2 1962.75 1452.15 1960.04C1455.09 1957.28 1458.61 1955.9 1462.7 1955.9C1466.84 1955.9 1470.36 1957.28 1473.26 1960.04C1476.2 1962.75 1477.68 1966.05 1477.68 1969.95C1477.68 1973.8 1476.2 1977.1 1473.26 1979.86C1470.36 1982.57 1466.84 1983.93 1462.7 1983.93ZM1556.78 1999.47V2019.44H1493.81V1999.47H1556.78ZM1509.36 1973.23H1535.18V2076.07C1535.18 2079.54 1535.7 2082.2 1536.74 2084.05C1537.84 2085.86 1539.26 2087.1 1541.02 2087.76C1542.78 2088.43 1544.73 2088.76 1546.87 2088.76C1548.49 2088.76 1549.96 2088.64 1551.29 2088.4C1552.67 2088.17 1553.72 2087.95 1554.43 2087.76L1558.78 2107.94C1557.4 2108.42 1555.43 2108.94 1552.86 2109.51C1550.34 2110.08 1547.25 2110.42 1543.59 2110.51C1537.12 2110.7 1531.3 2109.73 1526.12 2107.59C1520.94 2105.4 1516.82 2102.02 1513.78 2097.46C1510.79 2092.9 1509.31 2087.19 1509.36 2080.34V1973.23ZM1609.9 2111.22C1602.95 2111.22 1596.7 2109.99 1591.14 2107.52C1585.63 2105 1581.25 2101.29 1578.02 2096.39C1574.83 2091.49 1573.24 2085.46 1573.24 2078.28C1573.24 2072.1 1574.38 2066.98 1576.66 2062.94C1578.95 2058.9 1582.06 2055.67 1586.01 2053.24C1589.95 2050.82 1594.4 2048.99 1599.34 2047.75C1604.33 2046.47 1609.49 2045.54 1614.82 2044.97C1621.24 2044.31 1626.44 2043.71 1630.43 2043.19C1634.43 2042.62 1637.33 2041.76 1639.14 2040.62C1640.99 2039.43 1641.92 2037.6 1641.92 2035.13V2034.7C1641.92 2029.33 1640.32 2025.17 1637.14 2022.22C1633.95 2019.28 1629.37 2017.8 1623.37 2017.8C1617.05 2017.8 1612.04 2019.18 1608.33 2021.94C1604.67 2024.7 1602.19 2027.95 1600.91 2031.71L1576.81 2028.28C1578.71 2021.63 1581.85 2016.07 1586.22 2011.6C1590.59 2007.08 1595.94 2003.7 1602.27 2001.47C1608.59 1999.19 1615.58 1998.05 1623.23 1998.05C1628.51 1998.05 1633.76 1998.66 1638.99 1999.9C1644.22 2001.14 1649 2003.18 1653.33 2006.03C1657.65 2008.84 1661.12 2012.67 1663.74 2017.52C1666.4 2022.37 1667.73 2028.43 1667.73 2035.7V2109.01H1642.91V2093.97H1642.06C1640.49 2097.01 1638.28 2099.86 1635.43 2102.52C1632.62 2105.14 1629.08 2107.25 1624.8 2108.87C1620.57 2110.44 1615.6 2111.22 1609.9 2111.22ZM1616.6 2092.25C1621.78 2092.25 1626.27 2091.23 1630.08 2089.19C1633.88 2087.1 1636.81 2084.34 1638.85 2080.92C1640.94 2077.49 1641.99 2073.76 1641.99 2069.72V2056.81C1641.18 2057.48 1639.8 2058.09 1637.85 2058.66C1635.95 2059.24 1633.81 2059.73 1631.43 2060.16C1629.06 2060.59 1626.7 2060.97 1624.37 2061.3C1622.04 2061.64 1620.02 2061.92 1618.31 2062.16C1614.46 2062.68 1611.01 2063.54 1607.97 2064.73C1604.93 2065.92 1602.53 2067.58 1600.77 2069.72C1599.01 2071.81 1598.13 2074.52 1598.13 2077.85C1598.13 2082.6 1599.86 2086.19 1603.33 2088.62C1606.81 2091.04 1611.23 2092.25 1616.6 2092.25ZM1693.69 2109.01V1999.47H1718.72V2017.73H1719.86C1721.86 2011.41 1725.28 2006.53 1730.13 2003.11C1735.03 1999.64 1740.62 1997.9 1746.89 1997.9C1748.32 1997.9 1749.91 1997.98 1751.67 1998.12C1753.48 1998.21 1754.97 1998.38 1756.16 1998.62V2022.37C1755.07 2021.99 1753.33 2021.65 1750.96 2021.37C1748.63 2021.03 1746.37 2020.87 1744.18 2020.87C1739.48 2020.87 1735.24 2021.89 1731.49 2023.93C1727.78 2025.93 1724.86 2028.71 1722.72 2032.28C1720.58 2035.84 1719.51 2039.96 1719.51 2044.62V2109.01H1693.69ZM1792.69 2150.09C1789.18 2150.09 1785.92 2149.81 1782.92 2149.24C1779.98 2148.71 1777.62 2148.09 1775.86 2147.38L1781.85 2127.27C1785.61 2128.36 1788.96 2128.89 1791.91 2128.84C1794.86 2128.79 1797.45 2127.86 1799.68 2126.06C1801.97 2124.3 1803.89 2121.35 1805.46 2117.21L1807.67 2111.3L1767.95 1999.47H1795.33L1820.58 2082.2H1821.72L1847.04 1999.47H1874.49L1830.63 2122.28C1828.59 2128.08 1825.88 2133.05 1822.5 2137.18C1819.13 2141.37 1814.99 2144.55 1810.1 2146.74C1805.25 2148.97 1799.45 2150.09 1792.69 2150.09Z" fill="#636E72"/>
<mask id="path-13-inside-4_51_2454" fill="white">
<path d="M405.32 3305.8C405.32 3198.76 492.092 3111.99 599.13 3111.99H1724.78C1831.82 3111.99 1918.59 3198.76 1918.59 3305.8V3305.8C1918.59 3412.83 1831.82 3499.6 1724.78 3499.6H599.13C492.092 3499.6 405.32 3412.83 405.32 3305.8V3305.8Z"/>
</mask>
<path d="M405.32 3305.8C405.32 3198.76 492.092 3111.99 599.13 3111.99H1724.78C1831.82 3111.99 1918.59 3198.76 1918.59 3305.8V3305.8C1918.59 3412.83 1831.82 3499.6 1724.78 3499.6H599.13C492.092 3499.6 405.32 3412.83 405.32 3305.8V3305.8Z" fill="#3498DB" fill-opacity="0.1"/>
<path d="M405.32 3305.8M1918.59 3305.8M1918.59 3305.8M405.32 3305.8M599.13 3111.99V3130.44H1724.78V3111.99V3093.53H599.13V3111.99ZM1918.59 3305.8M1724.78 3499.6V3481.15H599.13V3499.6V3518.06H1724.78V3499.6ZM405.32 3305.8M599.13 3499.6V3481.15C502.286 3481.15 423.778 3402.64 423.778 3305.8H405.32H386.862C386.862 3423.03 481.898 3518.06 599.13 3518.06V3499.6ZM1918.59 3305.8H1900.13C1900.13 3402.64 1821.63 3481.15 1724.78 3481.15V3499.6V3518.06C1842.02 3518.06 1937.05 3423.03 1937.05 3305.8H1918.59ZM1724.78 3111.99V3130.44C1821.63 3130.44 1900.13 3208.95 1900.13 3305.8H1918.59H1937.05C1937.05 3188.56 1842.02 3093.53 1724.78 3093.53V3111.99ZM599.13 3111.99V3093.53C481.898 3093.53 386.862 3188.56 386.862 3305.8H405.32H423.778C423.778 3208.95 502.286 3130.44 599.13 3130.44V3111.99Z" fill="#3498DB" fill-opacity="0.314" mask="url(#path-13-inside-4_51_2454)"/>
<path d="M604.308 3380.82V3234.76H630.766V3358.64H695.092V3380.82H604.308ZM838.079 3234.76V3380.82H814.545L745.726 3281.33H744.514V3380.82H718.056V3234.76H741.732L810.48 3334.32H811.764V3234.76H838.079ZM964.753 3281.4C963.564 3277.55 961.924 3274.11 959.832 3271.06C957.788 3267.97 955.316 3265.33 952.415 3263.15C949.563 3260.96 946.282 3259.32 942.574 3258.23C938.866 3257.09 934.824 3256.52 930.45 3256.52C922.606 3256.52 915.617 3258.49 909.484 3262.43C903.351 3266.38 898.525 3272.18 895.007 3279.84C891.536 3287.44 889.801 3296.71 889.801 3307.65C889.801 3318.68 891.536 3328.02 895.007 3335.68C898.477 3343.33 903.303 3349.15 909.484 3353.15C915.664 3357.09 922.843 3359.07 931.021 3359.07C938.438 3359.07 944.856 3357.64 950.276 3354.79C955.744 3351.93 959.951 3347.89 962.899 3342.66C965.847 3337.39 967.32 3331.21 967.32 3324.12L973.311 3325.05H933.66V3304.37H992.923V3321.91C992.923 3334.42 990.26 3345.23 984.935 3354.36C979.61 3363.49 972.289 3370.52 962.97 3375.47C953.652 3380.37 942.954 3382.81 930.878 3382.81C917.423 3382.81 905.609 3379.8 895.435 3373.76C885.308 3367.67 877.392 3359.04 871.687 3347.87C866.029 3336.65 863.2 3323.34 863.2 3307.93C863.2 3296.14 864.864 3285.61 868.192 3276.34C871.568 3267.07 876.275 3259.2 882.313 3252.74C888.351 3246.22 895.435 3241.28 903.565 3237.9C911.694 3234.48 920.538 3232.77 930.094 3232.77C938.176 3232.77 945.712 3233.96 952.701 3236.33C959.69 3238.66 965.894 3241.99 971.314 3246.32C976.782 3250.64 981.274 3255.78 984.793 3261.72C988.311 3267.66 990.617 3274.23 991.71 3281.4H964.753ZM1193.34 3284.04H1166.66C1165.9 3279.67 1164.5 3275.79 1162.46 3272.42C1160.41 3269 1157.87 3266.1 1154.83 3263.72C1151.78 3261.34 1148.31 3259.56 1144.41 3258.37C1140.56 3257.13 1136.4 3256.52 1131.93 3256.52C1123.99 3256.52 1116.96 3258.51 1110.82 3262.51C1104.69 3266.45 1099.89 3272.25 1096.42 3279.91C1092.95 3287.51 1091.21 3296.81 1091.21 3307.79C1091.21 3318.96 1092.95 3328.38 1096.42 3336.03C1099.94 3343.64 1104.74 3349.39 1110.82 3353.29C1116.96 3357.14 1123.97 3359.07 1131.86 3359.07C1136.24 3359.07 1140.33 3358.5 1144.13 3357.35C1147.98 3356.17 1151.43 3354.43 1154.47 3352.15C1157.56 3349.87 1160.15 3347.06 1162.24 3343.73C1164.38 3340.41 1165.86 3336.6 1166.66 3332.32L1193.34 3332.47C1192.34 3339.41 1190.17 3345.92 1186.85 3352.01C1183.57 3358.09 1179.26 3363.46 1173.94 3368.12C1168.61 3372.74 1162.39 3376.35 1155.25 3378.96C1148.12 3381.53 1140.21 3382.81 1131.51 3382.81C1118.67 3382.81 1107.21 3379.84 1097.13 3373.9C1087.05 3367.96 1079.11 3359.38 1073.31 3348.16C1067.51 3336.93 1064.61 3323.48 1064.61 3307.79C1064.61 3292.05 1067.54 3278.6 1073.38 3267.43C1079.23 3256.21 1087.2 3247.62 1097.27 3241.68C1107.35 3235.74 1118.76 3232.77 1131.51 3232.77C1139.64 3232.77 1147.2 3233.91 1154.18 3236.19C1161.17 3238.47 1167.4 3241.82 1172.87 3246.25C1178.34 3250.62 1182.83 3255.99 1186.35 3262.36C1189.91 3268.69 1192.24 3275.91 1193.34 3284.04ZM1247.95 3383.03C1241 3383.03 1234.75 3381.79 1229.19 3379.32C1223.67 3376.8 1219.3 3373.09 1216.07 3368.19C1212.88 3363.3 1211.29 3357.26 1211.29 3350.08C1211.29 3343.9 1212.43 3338.79 1214.71 3334.75C1216.99 3330.71 1220.11 3327.47 1224.06 3325.05C1228 3322.62 1232.45 3320.79 1237.39 3319.56C1242.38 3318.27 1247.54 3317.35 1252.87 3316.78C1259.28 3316.11 1264.49 3315.52 1268.48 3314.99C1272.48 3314.42 1275.38 3313.57 1277.19 3312.43C1279.04 3311.24 1279.97 3309.41 1279.97 3306.94V3306.51C1279.97 3301.13 1278.37 3296.97 1275.19 3294.03C1272 3291.08 1267.41 3289.61 1261.42 3289.61C1255.1 3289.61 1250.09 3290.98 1246.38 3293.74C1242.72 3296.5 1240.24 3299.76 1238.96 3303.51L1214.86 3300.09C1216.76 3293.43 1219.9 3287.87 1224.27 3283.4C1228.64 3278.88 1233.99 3275.51 1240.32 3273.27C1246.64 3270.99 1253.63 3269.85 1261.28 3269.85C1266.56 3269.85 1271.81 3270.47 1277.04 3271.71C1282.27 3272.94 1287.05 3274.99 1291.38 3277.84C1295.7 3280.64 1299.17 3284.47 1301.79 3289.32C1304.45 3294.17 1305.78 3300.23 1305.78 3307.51V3380.82H1280.96V3365.77H1280.11C1278.54 3368.81 1276.33 3371.67 1273.48 3374.33C1270.67 3376.94 1267.13 3379.06 1262.85 3380.67C1258.62 3382.24 1253.65 3383.03 1247.95 3383.03ZM1254.65 3364.06C1259.83 3364.06 1264.32 3363.04 1268.13 3360.99C1271.93 3358.9 1274.86 3356.14 1276.9 3352.72C1278.99 3349.3 1280.04 3345.56 1280.04 3341.52V3328.61C1279.23 3329.28 1277.85 3329.9 1275.9 3330.47C1274 3331.04 1271.86 3331.54 1269.48 3331.97C1267.11 3332.39 1264.75 3332.77 1262.42 3333.11C1260.09 3333.44 1258.07 3333.73 1256.36 3333.96C1252.51 3334.49 1249.06 3335.34 1246.02 3336.53C1242.98 3337.72 1240.58 3339.38 1238.82 3341.52C1237.06 3343.61 1236.18 3346.32 1236.18 3349.65C1236.18 3354.41 1237.91 3358 1241.38 3360.42C1244.86 3362.85 1249.28 3364.06 1254.65 3364.06ZM1331.74 3380.82V3271.28H1356.77V3289.53H1357.91C1359.91 3283.21 1363.33 3278.34 1368.18 3274.91C1373.08 3271.44 1378.67 3269.71 1384.94 3269.71C1386.37 3269.71 1387.96 3269.78 1389.72 3269.92C1391.53 3270.02 1393.02 3270.18 1394.21 3270.42V3294.17C1393.12 3293.79 1391.38 3293.46 1389.01 3293.17C1386.68 3292.84 1384.42 3292.67 1382.23 3292.67C1377.53 3292.67 1373.29 3293.69 1369.54 3295.74C1365.83 3297.74 1362.91 3300.52 1360.77 3304.08C1358.63 3307.65 1357.56 3311.76 1357.56 3316.42V3380.82H1331.74ZM1411.36 3380.82V3271.28H1436.4V3289.53H1437.54C1439.53 3283.21 1442.96 3278.34 1447.81 3274.91C1452.7 3271.44 1458.29 3269.71 1464.57 3269.71C1465.99 3269.71 1467.58 3269.78 1469.34 3269.92C1471.15 3270.02 1472.65 3270.18 1473.84 3270.42V3294.17C1472.74 3293.79 1471.01 3293.46 1468.63 3293.17C1466.3 3292.84 1464.04 3292.67 1461.86 3292.67C1457.15 3292.67 1452.92 3293.69 1449.16 3295.74C1445.45 3297.74 1442.53 3300.52 1440.39 3304.08C1438.25 3307.65 1437.18 3311.76 1437.18 3316.42V3380.82H1411.36ZM1490.99 3380.82V3271.28H1516.8V3380.82H1490.99ZM1503.97 3255.73C1499.88 3255.73 1496.36 3254.38 1493.41 3251.67C1490.47 3248.91 1488.99 3245.6 1488.99 3241.75C1488.99 3237.85 1490.47 3234.55 1493.41 3231.84C1496.36 3229.08 1499.88 3227.7 1503.97 3227.7C1508.1 3227.7 1511.62 3229.08 1514.52 3231.84C1517.47 3234.55 1518.94 3237.85 1518.94 3241.75C1518.94 3245.6 1517.47 3248.91 1514.52 3251.67C1511.62 3254.38 1508.1 3255.73 1503.97 3255.73ZM1591.85 3382.96C1580.86 3382.96 1571.38 3380.67 1563.39 3376.11C1555.45 3371.5 1549.34 3364.99 1545.06 3356.57C1540.78 3348.11 1538.64 3338.15 1538.64 3326.69C1538.64 3315.42 1540.78 3305.53 1545.06 3297.02C1549.39 3288.46 1555.43 3281.81 1563.18 3277.05C1570.93 3272.25 1580.03 3269.85 1590.49 3269.85C1597.24 3269.85 1603.61 3270.94 1609.6 3273.13C1615.64 3275.27 1620.97 3278.6 1625.58 3283.12C1630.24 3287.63 1633.9 3293.39 1636.56 3300.37C1639.22 3307.32 1640.55 3315.59 1640.55 3325.19V3333.11H1550.77V3315.71H1615.81C1615.76 3310.76 1614.69 3306.36 1612.6 3302.51C1610.51 3298.61 1607.58 3295.55 1603.83 3293.31C1600.12 3291.08 1595.79 3289.96 1590.85 3289.96C1585.57 3289.96 1580.93 3291.25 1576.94 3293.81C1572.95 3296.33 1569.83 3299.66 1567.6 3303.8C1565.41 3307.89 1564.29 3312.38 1564.25 3317.28V3332.47C1564.25 3338.84 1565.41 3344.3 1567.74 3348.87C1570.07 3353.39 1573.33 3356.86 1577.51 3359.28C1581.7 3361.66 1586.59 3362.85 1592.2 3362.85C1595.96 3362.85 1599.36 3362.32 1602.4 3361.28C1605.44 3360.18 1608.08 3358.59 1610.32 3356.5C1612.55 3354.41 1614.24 3351.82 1615.38 3348.73L1639.48 3351.44C1637.96 3357.81 1635.06 3363.37 1630.78 3368.12C1626.55 3372.83 1621.13 3376.49 1614.52 3379.11C1607.92 3381.67 1600.36 3382.96 1591.85 3382.96ZM1662.39 3380.82V3271.28H1687.43V3289.53H1688.57C1690.56 3283.21 1693.99 3278.34 1698.84 3274.91C1703.73 3271.44 1709.32 3269.71 1715.6 3269.71C1717.02 3269.71 1718.61 3269.78 1720.37 3269.92C1722.18 3270.02 1723.68 3270.18 1724.87 3270.42V3294.17C1723.77 3293.79 1722.04 3293.46 1719.66 3293.17C1717.33 3292.84 1715.07 3292.67 1712.89 3292.67C1708.18 3292.67 1703.95 3293.69 1700.19 3295.74C1696.48 3297.74 1693.56 3300.52 1691.42 3304.08C1689.28 3307.65 1688.21 3311.76 1688.21 3316.42V3380.82H1662.39Z" fill="#3498DB"/>
<mask id="path-16-inside-5_51_2454" fill="white">
<path d="M167.457 4577.6C167.457 4470.56 254.229 4383.79 361.267 4383.79H1962.65C2069.69 4383.79 2156.46 4470.56 2156.46 4577.6V4577.6C2156.46 4684.64 2069.69 4771.41 1962.65 4771.41H361.267C254.229 4771.41 167.457 4684.64 167.457 4577.6V4577.6Z"/>
</mask>
<path d="M167.457 4577.6C167.457 4470.56 254.229 4383.79 361.267 4383.79H1962.65C2069.69 4383.79 2156.46 4470.56 2156.46 4577.6V4577.6C2156.46 4684.64 2069.69 4771.41 1962.65 4771.41H361.267C254.229 4771.41 167.457 4684.64 167.457 4577.6V4577.6Z" fill="#E74C3C" fill-opacity="0.1"/>
<path d="M167.457 4577.6M2156.46 4577.6M2156.46 4577.6M167.457 4577.6M361.267 4383.79V4402.25H1962.65V4383.79V4365.33H361.267V4383.79ZM2156.46 4577.6M1962.65 4771.41V4752.95H361.267V4771.41V4789.87H1962.65V4771.41ZM167.457 4577.6M361.267 4771.41V4752.95C264.423 4752.95 185.915 4674.44 185.915 4577.6H167.457H148.999C148.999 4694.83 244.034 4789.87 361.267 4789.87V4771.41ZM2156.46 4577.6H2138C2138 4674.44 2059.49 4752.95 1962.65 4752.95V4771.41V4789.87C2079.88 4789.87 2174.92 4694.83 2174.92 4577.6H2156.46ZM1962.65 4383.79V4402.25C2059.49 4402.25 2138 4480.75 2138 4577.6H2156.46H2174.92C2174.92 4460.37 2079.88 4365.33 1962.65 4365.33V4383.79ZM361.267 4383.79V4365.33C244.034 4365.33 148.999 4460.37 148.999 4577.6H167.457H185.915C185.915 4480.75 264.423 4402.25 361.267 4402.25V4383.79Z" fill="#E74C3C" fill-opacity="0.314" mask="url(#path-16-inside-5_51_2454)"/>
<path d="M491.46 4555.85H464.788C464.028 4551.47 462.625 4547.6 460.581 4544.22C458.536 4540.8 455.993 4537.9 452.95 4535.52C449.907 4533.14 446.437 4531.36 442.538 4530.17C438.687 4528.94 434.527 4528.32 430.058 4528.32C422.118 4528.32 415.082 4530.32 408.949 4534.31C402.816 4538.26 398.014 4544.06 394.543 4551.71C391.072 4559.32 389.337 4568.61 389.337 4579.59C389.337 4590.77 391.072 4600.18 394.543 4607.84C398.061 4615.44 402.863 4621.2 408.949 4625.09C415.082 4628.94 422.094 4630.87 429.987 4630.87C434.361 4630.87 438.449 4630.3 442.253 4629.16C446.104 4627.97 449.551 4626.23 452.594 4623.95C455.684 4621.67 458.275 4618.87 460.367 4615.54C462.506 4612.21 463.98 4608.41 464.788 4604.13L491.46 4604.27C490.462 4611.21 488.299 4617.72 484.971 4623.81C481.69 4629.9 477.387 4635.27 472.063 4639.93C466.738 4644.54 460.51 4648.15 453.378 4650.77C446.246 4653.33 438.33 4654.62 429.63 4654.62C416.793 4654.62 405.335 4651.65 395.256 4645.7C385.177 4639.76 377.237 4631.18 371.437 4619.96C365.636 4608.74 362.736 4595.28 362.736 4579.59C362.736 4563.86 365.66 4550.4 371.508 4539.23C377.356 4528.01 385.32 4519.43 395.399 4513.49C405.478 4507.54 416.888 4504.57 429.63 4504.57C437.76 4504.57 445.319 4505.71 452.308 4507.99C459.297 4510.28 465.525 4513.63 470.993 4518.05C476.46 4522.42 480.953 4527.8 484.471 4534.17C488.037 4540.49 490.367 4547.72 491.46 4555.85ZM514.549 4652.62V4543.08H539.58V4561.34H540.721C542.718 4555.01 546.141 4550.14 550.991 4546.72C555.888 4543.25 561.474 4541.51 567.75 4541.51C569.176 4541.51 570.769 4541.58 572.528 4541.73C574.335 4541.82 575.832 4541.99 577.021 4542.23V4565.97C575.927 4565.59 574.192 4565.26 571.815 4564.97C569.485 4564.64 567.227 4564.48 565.04 4564.48C560.333 4564.48 556.102 4565.5 552.346 4567.54C548.637 4569.54 545.713 4572.32 543.574 4575.89C541.434 4579.45 540.365 4583.56 540.365 4588.22V4652.62H514.549ZM663.99 4606.55V4543.08H689.806V4652.62H664.774V4633.15H663.633C661.161 4639.29 657.096 4644.3 651.438 4648.2C645.828 4652.1 638.911 4654.05 630.686 4654.05C623.506 4654.05 617.159 4652.45 611.644 4649.27C606.177 4646.04 601.898 4641.35 598.808 4635.22C595.717 4629.04 594.172 4621.58 594.172 4612.83V4543.08H619.988V4608.83C619.988 4615.78 621.89 4621.29 625.693 4625.38C629.497 4629.47 634.489 4631.51 640.67 4631.51C644.473 4631.51 648.158 4630.58 651.723 4628.73C655.289 4626.88 658.213 4624.12 660.495 4620.46C662.825 4616.75 663.99 4612.11 663.99 4606.55ZM757.003 4654.55C748.397 4654.55 740.695 4652.34 733.896 4647.91C727.098 4643.49 721.725 4637.07 717.779 4628.66C713.833 4620.24 711.86 4610.02 711.86 4597.99C711.86 4585.82 713.857 4575.55 717.851 4567.19C721.892 4558.77 727.335 4552.42 734.182 4548.14C741.028 4543.82 748.659 4541.65 757.074 4541.65C763.492 4541.65 768.77 4542.75 772.906 4544.94C777.042 4547.07 780.323 4549.67 782.747 4552.71C785.172 4555.7 787.05 4558.53 788.381 4561.2H789.451V4506.57H815.338V4652.62H789.95V4635.36H788.381C787.05 4638.03 785.125 4640.85 782.605 4643.85C780.085 4646.8 776.757 4649.32 772.621 4651.41C768.484 4653.5 763.278 4654.55 757.003 4654.55ZM764.205 4633.37C769.673 4633.37 774.332 4631.89 778.183 4628.94C782.034 4625.95 784.958 4621.79 786.955 4616.46C788.952 4611.14 789.95 4604.94 789.95 4597.85C789.95 4590.77 788.952 4584.61 786.955 4579.38C785.006 4574.15 782.106 4570.09 778.255 4567.19C774.451 4564.29 769.768 4562.84 764.205 4562.84C758.453 4562.84 753.651 4564.33 749.8 4567.33C745.949 4570.32 743.049 4574.46 741.099 4579.74C739.15 4585.01 738.175 4591.05 738.175 4597.85C738.175 4604.7 739.15 4610.81 741.099 4616.18C743.096 4621.5 746.02 4625.71 749.871 4628.8C753.77 4631.84 758.548 4633.37 764.205 4633.37ZM891.343 4654.76C880.36 4654.76 870.875 4652.48 862.888 4647.91C854.948 4643.3 848.839 4636.79 844.56 4628.37C840.281 4619.91 838.142 4609.95 838.142 4598.49C838.142 4587.23 840.281 4577.34 844.56 4568.83C848.886 4560.27 854.924 4553.61 862.674 4548.86C870.424 4544.06 879.528 4541.65 889.988 4541.65C896.739 4541.65 903.11 4542.75 909.1 4544.94C915.138 4547.07 920.463 4550.4 925.075 4554.92C929.734 4559.44 933.395 4565.19 936.057 4572.18C938.72 4579.12 940.051 4587.39 940.051 4597V4604.91H850.265V4587.51H915.305C915.257 4582.57 914.187 4578.17 912.095 4574.32C910.003 4570.42 907.08 4567.35 903.324 4565.12C899.615 4562.88 895.289 4561.77 890.344 4561.77C885.067 4561.77 880.431 4563.05 876.438 4565.62C872.444 4568.14 869.33 4571.46 867.095 4575.6C864.908 4579.69 863.791 4584.18 863.744 4589.08V4604.27C863.744 4610.64 864.908 4616.11 867.238 4620.67C869.568 4625.19 872.824 4628.66 877.008 4631.08C881.192 4633.46 886.089 4634.65 891.699 4634.65C895.455 4634.65 898.855 4634.13 901.897 4633.08C904.94 4631.99 907.579 4630.39 909.813 4628.3C912.048 4626.21 913.736 4623.62 914.877 4620.53L938.981 4623.24C937.46 4629.61 934.56 4635.17 930.281 4639.93C926.049 4644.63 920.629 4648.29 914.021 4650.91C907.412 4653.48 899.853 4654.76 891.343 4654.76ZM1143.35 4579.59C1143.35 4595.33 1140.41 4608.81 1134.51 4620.03C1128.66 4631.2 1120.67 4639.76 1110.55 4645.7C1100.47 4651.65 1089.03 4654.62 1076.25 4654.62C1063.46 4654.62 1052 4651.65 1041.87 4645.7C1031.79 4639.71 1023.8 4631.13 1017.91 4619.96C1012.06 4608.74 1009.14 4595.28 1009.14 4579.59C1009.14 4563.86 1012.06 4550.4 1017.91 4539.23C1023.8 4528.01 1031.79 4519.43 1041.87 4513.49C1052 4507.54 1063.46 4504.57 1076.25 4504.57C1089.03 4504.57 1100.47 4507.54 1110.55 4513.49C1120.67 4519.43 1128.66 4528.01 1134.51 4539.23C1140.41 4550.4 1143.35 4563.86 1143.35 4579.59ZM1116.75 4579.59C1116.75 4568.52 1115.02 4559.17 1111.55 4551.57C1108.12 4543.91 1103.37 4538.14 1097.28 4534.24C1091.2 4530.29 1084.18 4528.32 1076.25 4528.32C1068.31 4528.32 1061.29 4530.29 1055.21 4534.24C1049.12 4538.14 1044.34 4543.91 1040.87 4551.57C1037.45 4559.17 1035.74 4568.52 1035.74 4579.59C1035.74 4590.67 1037.45 4600.04 1040.87 4607.69C1044.34 4615.3 1049.12 4621.08 1055.21 4625.02C1061.29 4628.92 1068.31 4630.87 1076.25 4630.87C1084.18 4630.87 1091.2 4628.92 1097.28 4625.02C1103.37 4621.08 1108.12 4615.3 1111.55 4607.69C1115.02 4600.04 1116.75 4590.67 1116.75 4579.59ZM1167.23 4652.62V4543.08H1193.04V4652.62H1167.23ZM1180.21 4527.53C1176.12 4527.53 1172.6 4526.18 1169.65 4523.47C1166.7 4520.71 1165.23 4517.41 1165.23 4513.56C1165.23 4509.66 1166.7 4506.35 1169.65 4503.64C1172.6 4500.89 1176.12 4499.51 1180.21 4499.51C1184.34 4499.51 1187.86 4500.89 1190.76 4503.64C1193.71 4506.35 1195.18 4509.66 1195.18 4513.56C1195.18 4517.41 1193.71 4520.71 1190.76 4523.47C1187.86 4526.18 1184.34 4527.53 1180.21 4527.53ZM1245.4 4506.57V4652.62H1219.59V4506.57H1245.4ZM1316.49 4528.75V4506.57H1433.02V4528.75H1387.87V4652.62H1361.63V4528.75H1316.49ZM1470.96 4654.83C1464.02 4654.83 1457.76 4653.6 1452.2 4651.12C1446.69 4648.6 1442.31 4644.9 1439.08 4640C1435.89 4635.1 1434.3 4629.06 1434.3 4621.88C1434.3 4615.7 1435.44 4610.59 1437.72 4606.55C1440.01 4602.51 1443.12 4599.28 1447.07 4596.85C1451.01 4594.43 1455.46 4592.6 1460.4 4591.36C1465.39 4590.08 1470.55 4589.15 1475.88 4588.58C1482.3 4587.91 1487.5 4587.32 1491.5 4586.8C1495.49 4586.23 1498.39 4585.37 1500.2 4584.23C1502.05 4583.04 1502.98 4581.21 1502.98 4578.74V4578.31C1502.98 4572.94 1501.39 4568.78 1498.2 4565.83C1495.01 4562.88 1490.43 4561.41 1484.44 4561.41C1478.11 4561.41 1473.1 4562.79 1469.39 4565.55C1465.73 4568.3 1463.26 4571.56 1461.97 4575.32L1437.87 4571.89C1439.77 4565.24 1442.91 4559.67 1447.28 4555.2C1451.65 4550.69 1457 4547.31 1463.33 4545.08C1469.65 4542.8 1476.64 4541.65 1484.29 4541.65C1489.57 4541.65 1494.82 4542.27 1500.05 4543.51C1505.28 4544.75 1510.06 4546.79 1514.39 4549.64C1518.71 4552.45 1522.19 4556.27 1524.8 4561.12C1527.46 4565.97 1528.79 4572.04 1528.79 4579.31V4652.62H1503.98V4637.57H1503.12C1501.55 4640.62 1499.34 4643.47 1496.49 4646.13C1493.68 4648.75 1490.14 4650.86 1485.86 4652.48C1481.63 4654.05 1476.66 4654.83 1470.96 4654.83ZM1477.66 4635.86C1482.84 4635.86 1487.34 4634.84 1491.14 4632.8C1494.94 4630.7 1497.87 4627.95 1499.91 4624.52C1502 4621.1 1503.05 4617.37 1503.05 4613.33V4600.42C1502.24 4601.08 1500.86 4601.7 1498.91 4602.27C1497.01 4602.84 1494.87 4603.34 1492.49 4603.77C1490.12 4604.2 1487.76 4604.58 1485.43 4604.91C1483.1 4605.24 1481.08 4605.53 1479.37 4605.77C1475.52 4606.29 1472.07 4607.15 1469.03 4608.33C1465.99 4609.52 1463.59 4611.19 1461.83 4613.33C1460.07 4615.42 1459.19 4618.13 1459.19 4621.46C1459.19 4626.21 1460.93 4629.8 1464.4 4632.23C1467.87 4634.65 1472.29 4635.86 1477.66 4635.86ZM1580.57 4588.44V4652.62H1554.75V4543.08H1579.43V4561.69H1580.71C1583.23 4555.56 1587.25 4550.69 1592.76 4547.07C1598.33 4543.46 1605.2 4541.65 1613.37 4541.65C1620.93 4541.65 1627.52 4543.27 1633.13 4546.5C1638.79 4549.74 1643.16 4554.42 1646.25 4560.55C1649.39 4566.69 1650.93 4574.13 1650.89 4582.88V4652.62H1625.07V4586.87C1625.07 4579.55 1623.17 4573.82 1619.36 4569.68C1615.61 4565.55 1610.4 4563.48 1603.75 4563.48C1599.23 4563.48 1595.21 4564.48 1591.69 4566.47C1588.22 4568.42 1585.49 4571.25 1583.49 4574.96C1581.54 4578.67 1580.57 4583.16 1580.57 4588.44ZM1700.66 4618.25L1700.59 4587.08H1704.73L1744.09 4543.08H1774.26L1725.84 4597H1720.49L1700.66 4618.25ZM1677.13 4652.62V4506.57H1702.95V4652.62H1677.13ZM1745.88 4652.62L1710.22 4602.77L1727.62 4584.59L1776.76 4652.62H1745.88ZM1835.45 4654.76C1824.47 4654.76 1814.98 4652.48 1806.99 4647.91C1799.05 4643.3 1792.95 4636.79 1788.67 4628.37C1784.39 4619.91 1782.25 4609.95 1782.25 4598.49C1782.25 4587.23 1784.39 4577.34 1788.67 4568.83C1792.99 4560.27 1799.03 4553.61 1806.78 4548.86C1814.53 4544.06 1823.63 4541.65 1834.09 4541.65C1840.85 4541.65 1847.22 4542.75 1853.21 4544.94C1859.24 4547.07 1864.57 4550.4 1869.18 4554.92C1873.84 4559.44 1877.5 4565.19 1880.16 4572.18C1882.83 4579.12 1884.16 4587.39 1884.16 4597V4604.91H1794.37V4587.51H1859.41C1859.36 4582.57 1858.29 4578.17 1856.2 4574.32C1854.11 4570.42 1851.19 4567.35 1847.43 4565.12C1843.72 4562.88 1839.4 4561.77 1834.45 4561.77C1829.17 4561.77 1824.54 4563.05 1820.54 4565.62C1816.55 4568.14 1813.44 4571.46 1811.2 4575.6C1809.02 4579.69 1807.9 4584.18 1807.85 4589.08V4604.27C1807.85 4610.64 1809.02 4616.11 1811.34 4620.67C1813.67 4625.19 1816.93 4628.66 1821.11 4631.08C1825.3 4633.46 1830.2 4634.65 1835.81 4634.65C1839.56 4634.65 1842.96 4634.13 1846 4633.08C1849.05 4631.99 1851.69 4630.39 1853.92 4628.3C1856.15 4626.21 1857.84 4623.62 1858.98 4620.53L1883.09 4623.24C1881.57 4629.61 1878.67 4635.17 1874.39 4639.93C1870.16 4644.63 1864.74 4648.29 1858.13 4650.91C1851.52 4653.48 1843.96 4654.76 1835.45 4654.76ZM1906 4652.62V4543.08H1931.03V4561.34H1932.17C1934.17 4555.01 1937.59 4550.14 1942.44 4546.72C1947.34 4543.25 1952.92 4541.51 1959.2 4541.51C1960.63 4541.51 1962.22 4541.58 1963.98 4541.73C1965.78 4541.82 1967.28 4541.99 1968.47 4542.23V4565.97C1967.38 4565.59 1965.64 4565.26 1963.26 4564.97C1960.93 4564.64 1958.68 4564.48 1956.49 4564.48C1951.78 4564.48 1947.55 4565.5 1943.79 4567.54C1940.09 4569.54 1937.16 4572.32 1935.02 4575.89C1932.88 4579.45 1931.81 4583.56 1931.81 4588.22V4652.62H1906Z" fill="#E74C3C"/>
<mask id="path-19-inside-6_51_2454" fill="white">
<path d="M402.438 5849.4C402.438 5742.37 489.209 5655.59 596.247 5655.59H1727.67C1834.71 5655.59 1921.48 5742.37 1921.48 5849.4V5849.4C1921.48 5956.44 1834.71 6043.21 1727.67 6043.21H596.247C489.209 6043.21 402.438 5956.44 402.438 5849.4V5849.4Z"/>
</mask>
<path d="M402.438 5849.4C402.438 5742.37 489.209 5655.59 596.247 5655.59H1727.67C1834.71 5655.59 1921.48 5742.37 1921.48 5849.4V5849.4C1921.48 5956.44 1834.71 6043.21 1727.67 6043.21H596.247C489.209 6043.21 402.438 5956.44 402.438 5849.4V5849.4Z" fill="#9B59B6" fill-opacity="0.1"/>
<path d="M402.438 5849.4M1921.48 5849.4M1921.48 5849.4M402.438 5849.4M596.247 5655.59V5674.05H1727.67V5655.59V5637.14H596.247V5655.59ZM1921.48 5849.4M1727.67 6043.21V6024.75H596.247V6043.21V6061.67H1727.67V6043.21ZM402.438 5849.4M596.247 6043.21V6024.75C499.403 6024.75 420.896 5946.25 420.896 5849.4H402.438H383.979C383.979 5966.64 479.015 6061.67 596.247 6061.67V6043.21ZM1921.48 5849.4H1903.02C1903.02 5946.25 1824.51 6024.75 1727.67 6024.75V6043.21V6061.67C1844.9 6061.67 1939.94 5966.64 1939.94 5849.4H1921.48ZM1727.67 5655.59V5674.05C1824.51 5674.05 1903.02 5752.56 1903.02 5849.4H1921.48H1939.94C1939.94 5732.17 1844.9 5637.14 1727.67 5637.14V5655.59ZM596.247 5655.59V5637.14C479.015 5637.14 383.979 5732.17 383.979 5849.4H402.438H420.896C420.896 5752.56 499.403 5674.05 596.247 5674.05V5655.59Z" fill="#9B59B6" fill-opacity="0.314" mask="url(#path-19-inside-6_51_2454)"/>
<path d="M601.425 5924.43V5778.37H657.336C667.891 5778.37 676.663 5780.04 683.652 5783.36C690.688 5786.64 695.942 5791.14 699.412 5796.84C702.931 5802.55 704.69 5809.01 704.69 5816.24C704.69 5822.18 703.549 5827.27 701.267 5831.5C698.984 5835.69 695.918 5839.08 692.067 5841.7C688.216 5844.31 683.913 5846.19 679.159 5847.33V5848.76C684.341 5849.05 689.309 5850.64 694.064 5853.54C698.866 5856.39 702.788 5860.43 705.831 5865.66C708.873 5870.89 710.395 5877.21 710.395 5884.63C710.395 5892.19 708.564 5898.99 704.904 5905.03C701.243 5911.02 695.728 5915.75 688.358 5919.22C680.989 5922.69 671.718 5924.43 660.546 5924.43H601.425ZM627.883 5902.32H656.338C665.942 5902.32 672.859 5900.49 677.091 5896.83C681.37 5893.12 683.509 5888.36 683.509 5882.56C683.509 5878.24 682.439 5874.34 680.3 5870.87C678.16 5867.35 675.118 5864.59 671.172 5862.6C667.225 5860.55 662.519 5859.53 657.051 5859.53H627.883V5902.32ZM627.883 5840.49H654.056C658.62 5840.49 662.733 5839.66 666.393 5837.99C670.054 5836.28 672.931 5833.88 675.023 5830.79C677.162 5827.65 678.232 5823.94 678.232 5819.66C678.232 5814.01 676.235 5809.35 672.241 5805.69C668.295 5802.02 662.424 5800.19 654.626 5800.19H627.883V5840.49ZM802.088 5878.36V5814.89H827.905V5924.43H802.873V5904.96H801.732C799.26 5911.09 795.195 5916.11 789.537 5920C783.927 5923.9 777.009 5925.85 768.784 5925.85C761.605 5925.85 755.258 5924.26 749.743 5921.07C744.276 5917.84 739.997 5913.16 736.906 5907.02C733.816 5900.84 732.271 5893.38 732.271 5884.63V5814.89H758.087V5880.64C758.087 5887.58 759.989 5893.09 763.792 5897.18C767.596 5901.27 772.588 5903.32 778.768 5903.32C782.572 5903.32 786.256 5902.39 789.822 5900.53C793.388 5898.68 796.312 5895.92 798.594 5892.26C800.924 5888.55 802.088 5883.92 802.088 5878.36ZM880.268 5778.37V5924.43H854.452V5778.37H880.268ZM930.349 5890.05L930.278 5858.89H934.414L973.78 5814.89H1003.95L955.523 5868.8H950.175L930.349 5890.05ZM906.815 5924.43V5778.37H932.631V5924.43H906.815ZM975.563 5924.43L939.905 5874.58L957.306 5856.39L1006.44 5924.43H975.563ZM1197.12 5827.65H1170.45C1169.69 5823.28 1168.29 5819.4 1166.24 5816.03C1164.2 5812.6 1161.65 5809.7 1158.61 5807.33C1155.57 5804.95 1152.1 5803.17 1148.2 5801.98C1144.35 5800.74 1140.19 5800.12 1135.72 5800.12C1127.78 5800.12 1120.74 5802.12 1114.61 5806.11C1108.48 5810.06 1103.67 5815.86 1100.2 5823.51C1096.73 5831.12 1095 5840.42 1095 5851.4C1095 5862.57 1096.73 5871.99 1100.2 5879.64C1103.72 5887.25 1108.52 5893 1114.61 5896.9C1120.74 5900.75 1127.76 5902.67 1135.65 5902.67C1140.02 5902.67 1144.11 5902.1 1147.91 5900.96C1151.76 5899.77 1155.21 5898.04 1158.25 5895.76C1161.34 5893.47 1163.94 5890.67 1166.03 5887.34C1168.17 5884.01 1169.64 5880.21 1170.45 5875.93L1197.12 5876.07C1196.12 5883.02 1193.96 5889.53 1190.63 5895.61C1187.35 5901.7 1183.05 5907.07 1177.72 5911.73C1172.4 5916.34 1166.17 5919.96 1159.04 5922.57C1151.91 5925.14 1143.99 5926.42 1135.29 5926.42C1122.45 5926.42 1111 5923.45 1100.92 5917.51C1090.84 5911.57 1082.9 5902.98 1077.1 5891.76C1071.3 5880.54 1068.4 5867.09 1068.4 5851.4C1068.4 5835.66 1071.32 5822.21 1077.17 5811.03C1083.02 5799.81 1090.98 5791.23 1101.06 5785.29C1111.14 5779.35 1122.55 5776.38 1135.29 5776.38C1143.42 5776.38 1150.98 5777.52 1157.97 5779.8C1164.96 5782.08 1171.19 5785.43 1176.65 5789.85C1182.12 5794.23 1186.61 5799.6 1190.13 5805.97C1193.7 5812.29 1196.03 5819.52 1197.12 5827.65ZM1251.73 5926.64C1244.79 5926.64 1238.54 5925.4 1232.98 5922.93C1227.46 5920.41 1223.09 5916.7 1219.85 5911.8C1216.67 5906.91 1215.07 5900.87 1215.07 5893.69C1215.07 5887.51 1216.22 5882.4 1218.5 5878.36C1220.78 5874.31 1223.89 5871.08 1227.84 5868.66C1231.79 5866.23 1236.23 5864.4 1241.18 5863.17C1246.17 5861.88 1251.33 5860.95 1256.65 5860.38C1263.07 5859.72 1268.28 5859.12 1272.27 5858.6C1276.26 5858.03 1279.16 5857.18 1280.97 5856.03C1282.82 5854.85 1283.75 5853.02 1283.75 5850.54V5850.12C1283.75 5844.74 1282.16 5840.58 1278.97 5837.63C1275.79 5834.69 1271.2 5833.21 1265.21 5833.21C1258.89 5833.21 1253.87 5834.59 1250.16 5837.35C1246.5 5840.11 1244.03 5843.36 1242.75 5847.12L1218.64 5843.7C1220.54 5837.04 1223.68 5831.48 1228.05 5827.01C1232.43 5822.49 1237.78 5819.12 1244.1 5816.88C1250.42 5814.6 1257.41 5813.46 1265.07 5813.46C1270.34 5813.46 1275.6 5814.08 1280.83 5815.31C1286.06 5816.55 1290.84 5818.59 1295.16 5821.45C1299.49 5824.25 1302.96 5828.08 1305.57 5832.93C1308.24 5837.78 1309.57 5843.84 1309.57 5851.11V5924.43H1284.75V5909.38H1283.89C1282.33 5912.42 1280.11 5915.27 1277.26 5917.94C1274.46 5920.55 1270.91 5922.67 1266.64 5924.28C1262.4 5925.85 1257.44 5926.64 1251.73 5926.64ZM1258.43 5907.67C1263.62 5907.67 1268.11 5906.64 1271.91 5904.6C1275.72 5902.51 1278.64 5899.75 1280.68 5896.33C1282.78 5892.9 1283.82 5889.17 1283.82 5885.13V5872.22C1283.01 5872.89 1281.64 5873.51 1279.69 5874.08C1277.78 5874.65 1275.65 5875.15 1273.27 5875.57C1270.89 5876 1268.54 5876.38 1266.21 5876.72C1263.88 5877.05 1261.86 5877.33 1260.15 5877.57C1256.3 5878.09 1252.85 5878.95 1249.81 5880.14C1246.76 5881.33 1244.36 5882.99 1242.6 5885.13C1240.84 5887.22 1239.96 5889.93 1239.96 5893.26C1239.96 5898.02 1241.7 5901.6 1245.17 5904.03C1248.64 5906.45 1253.06 5907.67 1258.43 5907.67ZM1335.53 5924.43V5814.89H1360.56V5833.14H1361.7C1363.7 5826.82 1367.12 5821.95 1371.97 5818.52C1376.87 5815.05 1382.45 5813.32 1388.73 5813.32C1390.15 5813.32 1391.75 5813.39 1393.51 5813.53C1395.31 5813.63 1396.81 5813.79 1398 5814.03V5837.78C1396.9 5837.4 1395.17 5837.06 1392.79 5836.78C1390.46 5836.45 1388.2 5836.28 1386.02 5836.28C1381.31 5836.28 1377.08 5837.3 1373.32 5839.35C1369.62 5841.34 1366.69 5844.12 1364.55 5847.69C1362.41 5851.26 1361.34 5855.37 1361.34 5860.03V5924.43H1335.53ZM1415.15 5924.43V5814.89H1440.18V5833.14H1441.32C1443.32 5826.82 1446.74 5821.95 1451.59 5818.52C1456.49 5815.05 1462.08 5813.32 1468.35 5813.32C1469.78 5813.32 1471.37 5813.39 1473.13 5813.53C1474.94 5813.63 1476.43 5813.79 1477.62 5814.03V5837.78C1476.53 5837.4 1474.79 5837.06 1472.42 5836.78C1470.09 5836.45 1467.83 5836.28 1465.64 5836.28C1460.93 5836.28 1456.7 5837.3 1452.95 5839.35C1449.24 5841.34 1446.31 5844.12 1444.18 5847.69C1442.04 5851.26 1440.97 5855.37 1440.97 5860.03V5924.43H1415.15ZM1494.77 5924.43V5814.89H1520.59V5924.43H1494.77ZM1507.75 5799.34C1503.66 5799.34 1500.15 5797.98 1497.2 5795.27C1494.25 5792.52 1492.78 5789.21 1492.78 5785.36C1492.78 5781.46 1494.25 5778.16 1497.2 5775.45C1500.15 5772.69 1503.66 5771.31 1507.75 5771.31C1511.89 5771.31 1515.41 5772.69 1518.31 5775.45C1521.25 5778.16 1522.73 5781.46 1522.73 5785.36C1522.73 5789.21 1521.25 5792.52 1518.31 5795.27C1515.41 5797.98 1511.89 5799.34 1507.75 5799.34ZM1595.63 5926.56C1584.65 5926.56 1575.16 5924.28 1567.18 5919.72C1559.24 5915.11 1553.13 5908.59 1548.85 5900.18C1544.57 5891.72 1542.43 5881.76 1542.43 5870.3C1542.43 5859.03 1544.57 5849.14 1548.85 5840.63C1553.17 5832.07 1559.21 5825.42 1566.96 5820.66C1574.71 5815.86 1583.82 5813.46 1594.28 5813.46C1601.03 5813.46 1607.4 5814.55 1613.39 5816.74C1619.43 5818.88 1624.75 5822.21 1629.36 5826.72C1634.02 5831.24 1637.68 5836.99 1640.35 5843.98C1643.01 5850.92 1644.34 5859.2 1644.34 5868.8V5876.72H1554.55V5859.31H1619.59C1619.55 5854.37 1618.48 5849.97 1616.38 5846.12C1614.29 5842.22 1611.37 5839.16 1607.61 5836.92C1603.9 5834.69 1599.58 5833.57 1594.63 5833.57C1589.36 5833.57 1584.72 5834.85 1580.73 5837.42C1576.73 5839.94 1573.62 5843.27 1571.38 5847.41C1569.2 5851.49 1568.08 5855.99 1568.03 5860.88V5876.07C1568.03 5882.44 1569.2 5887.91 1571.53 5892.48C1573.86 5896.99 1577.11 5900.46 1581.3 5902.89C1585.48 5905.27 1590.38 5906.45 1595.99 5906.45C1599.74 5906.45 1603.14 5905.93 1606.19 5904.89C1609.23 5903.79 1611.87 5902.2 1614.1 5900.11C1616.34 5898.02 1618.02 5895.42 1619.16 5892.33L1643.27 5895.04C1641.75 5901.41 1638.85 5906.98 1634.57 5911.73C1630.34 5916.44 1624.92 5920.1 1618.31 5922.71C1611.7 5925.28 1604.14 5926.56 1595.63 5926.56ZM1666.18 5924.43V5814.89H1691.21V5833.14H1692.35C1694.35 5826.82 1697.77 5821.95 1702.62 5818.52C1707.52 5815.05 1713.1 5813.32 1719.38 5813.32C1720.81 5813.32 1722.4 5813.39 1724.16 5813.53C1725.97 5813.63 1727.46 5813.79 1728.65 5814.03V5837.78C1727.56 5837.4 1725.82 5837.06 1723.45 5836.78C1721.12 5836.45 1718.86 5836.28 1716.67 5836.28C1711.96 5836.28 1707.73 5837.3 1703.98 5839.35C1700.27 5841.34 1697.34 5844.12 1695.2 5847.69C1693.07 5851.26 1692 5855.37 1692 5860.03V5924.43H1666.18Z" fill="#9B59B6"/>
<mask id="path-22-inside-7_51_2454" fill="white">
<path d="M238.117 7121.21C238.117 7014.17 324.889 6927.4 431.927 6927.4H1891.99C1999.03 6927.4 2085.8 7014.17 2085.8 7121.21V7121.21C2085.8 7228.24 1999.03 7315.02 1891.99 7315.02H431.927C324.889 7315.02 238.117 7228.24 238.117 7121.21V7121.21Z"/>
</mask>
<path d="M238.117 7121.21C238.117 7014.17 324.889 6927.4 431.927 6927.4H1891.99C1999.03 6927.4 2085.8 7014.17 2085.8 7121.21V7121.21C2085.8 7228.24 1999.03 7315.02 1891.99 7315.02H431.927C324.889 7315.02 238.117 7228.24 238.117 7121.21V7121.21Z" fill="#E67E22" fill-opacity="0.1"/>
<path d="M238.117 7121.21M2085.8 7121.21M2085.8 7121.21M238.117 7121.21M431.927 6927.4V6945.86H1891.99V6927.4V6908.94H431.927V6927.4ZM2085.8 7121.21M1891.99 7315.02V7296.56H431.927V7315.02V7333.47H1891.99V7315.02ZM238.117 7121.21M431.927 7315.02V7296.56C335.083 7296.56 256.575 7218.05 256.575 7121.21H238.117H219.659C219.659 7238.44 314.695 7333.47 431.927 7333.47V7315.02ZM2085.8 7121.21H2067.34C2067.34 7218.05 1988.83 7296.56 1891.99 7296.56V7315.02V7333.47C2009.22 7333.47 2104.26 7238.44 2104.26 7121.21H2085.8ZM1891.99 6927.4V6945.86C1988.83 6945.86 2067.34 7024.36 2067.34 7121.21H2085.8H2104.26C2104.26 7003.97 2009.22 6908.94 1891.99 6908.94V6927.4ZM431.927 6927.4V6908.94C314.695 6908.94 219.659 7003.97 219.659 7121.21H238.117H256.575C256.575 7024.36 335.083 6945.86 431.927 6945.86V6927.4Z" fill="#E67E22" fill-opacity="0.314" mask="url(#path-22-inside-7_51_2454)"/>
<path d="M437.105 7196.23V7050.18H491.875C503.095 7050.18 512.509 7052.27 520.116 7056.45C527.77 7060.64 533.547 7066.39 537.445 7073.71C541.392 7080.98 543.365 7089.26 543.365 7098.53C543.365 7107.89 541.392 7116.21 537.445 7123.49C533.499 7130.76 527.675 7136.49 519.973 7140.67C512.271 7144.81 502.786 7146.88 491.518 7146.88H455.219V7125.13H487.953C494.514 7125.13 499.886 7123.99 504.07 7121.7C508.254 7119.42 511.344 7116.28 513.341 7112.29C515.385 7108.3 516.407 7103.71 516.407 7098.53C516.407 7093.35 515.385 7088.78 513.341 7084.83C511.344 7080.89 508.23 7077.82 503.999 7075.64C499.815 7073.4 494.419 7072.28 487.81 7072.28H463.563V7196.23H437.105ZM565.205 7196.23V7086.69H590.237V7104.95H591.378C593.374 7098.62 596.798 7093.75 601.647 7090.33C606.544 7086.86 612.13 7085.12 618.406 7085.12C619.832 7085.12 621.425 7085.19 623.184 7085.33C624.991 7085.43 626.488 7085.6 627.677 7085.83V7109.58C626.584 7109.2 624.848 7108.87 622.471 7108.58C620.141 7108.25 617.883 7108.08 615.696 7108.08C610.989 7108.08 606.758 7109.11 603.002 7111.15C599.294 7113.15 596.37 7115.93 594.23 7119.49C592.091 7123.06 591.021 7127.17 591.021 7131.83V7196.23H565.205ZM688.099 7198.37C677.402 7198.37 668.131 7196.02 660.286 7191.31C652.441 7186.6 646.356 7180.02 642.029 7171.55C637.75 7163.09 635.611 7153.2 635.611 7141.89C635.611 7130.57 637.75 7120.66 642.029 7112.15C646.356 7103.64 652.441 7097.03 660.286 7092.32C668.131 7087.62 677.402 7085.26 688.099 7085.26C698.796 7085.26 708.067 7087.62 715.912 7092.32C723.756 7097.03 729.818 7103.64 734.097 7112.15C738.424 7120.66 740.587 7130.57 740.587 7141.89C740.587 7153.2 738.424 7163.09 734.097 7171.55C729.818 7180.02 723.756 7186.6 715.912 7191.31C708.067 7196.02 698.796 7198.37 688.099 7198.37ZM688.241 7177.69C694.042 7177.69 698.891 7176.09 702.79 7172.91C706.688 7169.68 709.589 7165.35 711.49 7159.93C713.44 7154.51 714.414 7148.47 714.414 7141.82C714.414 7135.11 713.44 7129.05 711.49 7123.63C709.589 7118.16 706.688 7113.81 702.79 7110.58C698.891 7107.35 694.042 7105.73 688.241 7105.73C682.299 7105.73 677.354 7107.35 673.408 7110.58C669.509 7113.81 666.585 7118.16 664.636 7123.63C662.734 7129.05 661.784 7135.11 661.784 7141.82C661.784 7148.47 662.734 7154.51 664.636 7159.93C666.585 7165.35 669.509 7169.68 673.408 7172.91C677.354 7176.09 682.299 7177.69 688.241 7177.69ZM803.148 7198.15C794.543 7198.15 786.841 7195.94 780.042 7191.52C773.243 7187.1 767.871 7180.68 763.925 7172.27C759.979 7163.85 758.006 7153.63 758.006 7141.6C758.006 7129.43 760.002 7119.16 763.996 7110.79C768.037 7102.38 773.481 7096.03 780.327 7091.75C787.174 7087.43 794.804 7085.26 803.219 7085.26C809.638 7085.26 814.915 7086.36 819.051 7088.54C823.188 7090.68 826.468 7093.27 828.893 7096.32C831.318 7099.31 833.196 7102.14 834.527 7104.8H835.597V7050.18H861.484V7196.23H836.096V7178.97H834.527C833.196 7181.63 831.27 7184.46 828.75 7187.46C826.231 7190.41 822.902 7192.92 818.766 7195.02C814.63 7197.11 809.424 7198.15 803.148 7198.15ZM810.351 7176.97C815.818 7176.97 820.478 7175.5 824.329 7172.55C828.18 7169.56 831.104 7165.4 833.101 7160.07C835.097 7154.75 836.096 7148.54 836.096 7141.46C836.096 7134.38 835.097 7128.22 833.101 7122.99C831.151 7117.76 828.251 7113.69 824.4 7110.79C820.597 7107.89 815.914 7106.44 810.351 7106.44C804.598 7106.44 799.796 7107.94 795.945 7110.94C792.094 7113.93 789.194 7118.07 787.245 7123.35C785.296 7128.62 784.321 7134.66 784.321 7141.46C784.321 7148.31 785.296 7154.41 787.245 7159.79C789.242 7165.11 792.166 7169.32 796.017 7172.41C799.915 7175.45 804.693 7176.97 810.351 7176.97ZM958.811 7150.16V7086.69H984.628V7196.23H959.596V7176.76H958.455C955.983 7182.89 951.918 7187.91 946.26 7191.81C940.65 7195.71 933.732 7197.66 925.507 7197.66C918.328 7197.66 911.981 7196.06 906.466 7192.88C900.999 7189.64 896.72 7184.96 893.629 7178.83C890.539 7172.65 888.994 7165.18 888.994 7156.44V7086.69H914.81V7152.44C914.81 7159.38 916.712 7164.9 920.515 7168.99C924.319 7173.08 929.311 7175.12 935.491 7175.12C939.295 7175.12 942.979 7174.19 946.545 7172.34C950.111 7170.48 953.035 7167.73 955.317 7164.07C957.647 7160.36 958.811 7155.72 958.811 7150.16ZM1058.96 7198.37C1048.02 7198.37 1038.63 7195.97 1030.79 7191.17C1022.99 7186.36 1016.97 7179.73 1012.74 7171.27C1008.56 7162.76 1006.47 7152.96 1006.47 7141.89C1006.47 7130.76 1008.61 7120.94 1012.89 7112.43C1017.17 7103.88 1023.2 7097.22 1031 7092.47C1038.84 7087.66 1048.12 7085.26 1058.81 7085.26C1067.7 7085.26 1075.57 7086.9 1082.42 7090.18C1089.31 7093.42 1094.8 7098 1098.89 7103.95C1102.98 7109.84 1105.31 7116.74 1105.88 7124.63H1081.21C1080.21 7119.35 1077.83 7114.95 1074.07 7111.44C1070.37 7107.87 1065.4 7106.09 1059.17 7106.09C1053.89 7106.09 1049.26 7107.51 1045.26 7110.37C1041.27 7113.17 1038.16 7117.21 1035.92 7122.49C1033.73 7127.77 1032.64 7134.09 1032.64 7141.46C1032.64 7148.92 1033.73 7155.34 1035.92 7160.71C1038.11 7166.04 1041.17 7170.15 1045.12 7173.05C1049.11 7175.9 1053.8 7177.33 1059.17 7177.33C1062.97 7177.33 1066.37 7176.62 1069.37 7175.19C1072.41 7173.72 1074.95 7171.6 1077 7168.84C1079.04 7166.09 1080.45 7162.73 1081.21 7158.79H1105.88C1105.26 7166.54 1102.98 7173.41 1099.04 7179.4C1095.09 7185.34 1089.72 7190 1082.92 7193.38C1076.12 7196.7 1068.13 7198.37 1058.96 7198.37ZM1181.78 7086.69V7106.66H1118.81V7086.69H1181.78ZM1134.35 7060.45H1160.17V7163.28C1160.17 7166.75 1160.69 7169.41 1161.74 7171.27C1162.83 7173.08 1164.26 7174.31 1166.02 7174.98C1167.78 7175.64 1169.73 7175.98 1171.87 7175.98C1173.48 7175.98 1174.96 7175.86 1176.29 7175.62C1177.67 7175.38 1178.71 7175.17 1179.43 7174.98L1183.78 7195.16C1182.4 7195.63 1180.42 7196.16 1177.86 7196.73C1175.34 7197.3 1172.25 7197.63 1168.59 7197.73C1162.12 7197.92 1156.3 7196.94 1151.11 7194.8C1145.93 7192.62 1141.82 7189.24 1138.78 7184.68C1135.78 7180.11 1134.31 7174.41 1134.35 7167.56V7060.45ZM1247.91 7072.35V7050.18H1364.43V7072.35H1319.29V7196.23H1293.05V7072.35H1247.91ZM1402.37 7198.44C1395.43 7198.44 1389.18 7197.2 1383.62 7194.73C1378.1 7192.21 1373.73 7188.5 1370.5 7183.61C1367.31 7178.71 1365.72 7172.67 1365.72 7165.49C1365.72 7159.31 1366.86 7154.2 1369.14 7150.16C1371.42 7146.12 1374.54 7142.89 1378.48 7140.46C1382.43 7138.04 1386.88 7136.21 1391.82 7134.97C1396.81 7133.69 1401.97 7132.76 1407.3 7132.19C1413.71 7131.52 1418.92 7130.93 1422.91 7130.41C1426.91 7129.83 1429.81 7128.98 1431.61 7127.84C1433.47 7126.65 1434.39 7124.82 1434.39 7122.35V7121.92C1434.39 7116.55 1432.8 7112.39 1429.62 7109.44C1426.43 7106.49 1421.84 7105.02 1415.85 7105.02C1409.53 7105.02 1404.51 7106.4 1400.81 7109.15C1397.14 7111.91 1394.67 7115.17 1393.39 7118.92L1369.28 7115.5C1371.19 7108.84 1374.32 7103.28 1378.7 7098.81C1383.07 7094.3 1388.42 7090.92 1394.74 7088.69C1401.07 7086.4 1408.06 7085.26 1415.71 7085.26C1420.99 7085.26 1426.24 7085.88 1431.47 7087.12C1436.7 7088.35 1441.48 7090.4 1445.81 7093.25C1450.13 7096.06 1453.6 7099.88 1456.22 7104.73C1458.88 7109.58 1460.21 7115.64 1460.21 7122.92V7196.23H1435.39V7181.18H1434.54C1432.97 7184.22 1430.76 7187.08 1427.91 7189.74C1425.1 7192.35 1421.56 7194.47 1417.28 7196.09C1413.05 7197.66 1408.08 7198.44 1402.37 7198.44ZM1409.08 7179.47C1414.26 7179.47 1418.75 7178.45 1422.56 7176.4C1426.36 7174.31 1429.28 7171.55 1431.33 7168.13C1433.42 7164.71 1434.47 7160.98 1434.47 7156.93V7144.03C1433.66 7144.69 1432.28 7145.31 1430.33 7145.88C1428.43 7146.45 1426.29 7146.95 1423.91 7147.38C1421.53 7147.81 1419.18 7148.19 1416.85 7148.52C1414.52 7148.85 1412.5 7149.14 1410.79 7149.38C1406.94 7149.9 1403.49 7150.75 1400.45 7151.94C1397.41 7153.13 1395.01 7154.8 1393.25 7156.93C1391.49 7159.03 1390.61 7161.74 1390.61 7165.06C1390.61 7169.82 1392.34 7173.41 1395.81 7175.83C1399.28 7178.26 1403.71 7179.47 1409.08 7179.47ZM1511.99 7132.05V7196.23H1486.17V7086.69H1510.84V7105.3H1512.13C1514.65 7099.17 1518.67 7094.3 1524.18 7090.68C1529.74 7087.07 1536.61 7085.26 1544.79 7085.26C1552.35 7085.26 1558.94 7086.88 1564.55 7090.11C1570.2 7093.35 1574.58 7098.03 1577.67 7104.16C1580.81 7110.29 1582.35 7117.73 1582.3 7126.48V7196.23H1556.49V7130.48C1556.49 7123.15 1554.58 7117.43 1550.78 7113.29C1547.03 7109.15 1541.82 7107.09 1535.16 7107.09C1530.65 7107.09 1526.63 7108.08 1523.11 7110.08C1519.64 7112.03 1516.91 7114.86 1514.91 7118.57C1512.96 7122.28 1511.99 7126.77 1511.99 7132.05ZM1632.08 7161.86L1632.01 7130.69H1636.15L1675.51 7086.69H1705.68L1657.25 7140.6H1651.91L1632.08 7161.86ZM1608.55 7196.23V7050.18H1634.36V7196.23H1608.55ZM1677.29 7196.23L1641.64 7146.38L1659.04 7128.19L1708.17 7196.23H1677.29ZM1766.87 7198.37C1755.88 7198.37 1746.4 7196.09 1738.41 7191.52C1730.47 7186.91 1724.36 7180.4 1720.08 7171.98C1715.8 7163.52 1713.67 7153.56 1713.67 7142.1C1713.67 7130.83 1715.8 7120.94 1720.08 7112.43C1724.41 7103.88 1730.45 7097.22 1738.2 7092.47C1745.95 7087.66 1755.05 7085.26 1765.51 7085.26C1772.26 7085.26 1778.63 7086.36 1784.62 7088.54C1790.66 7090.68 1795.99 7094.01 1800.6 7098.53C1805.26 7103.04 1808.92 7108.8 1811.58 7115.79C1814.24 7122.73 1815.57 7131 1815.57 7140.6V7148.52H1725.79V7131.12H1790.83C1790.78 7126.17 1789.71 7121.78 1787.62 7117.93C1785.53 7114.03 1782.6 7110.96 1778.85 7108.73C1775.14 7106.49 1770.81 7105.37 1765.87 7105.37C1760.59 7105.37 1755.96 7106.66 1751.96 7109.22C1747.97 7111.74 1744.85 7115.07 1742.62 7119.21C1740.43 7123.3 1739.32 7127.79 1739.27 7132.69V7147.88C1739.27 7154.25 1740.43 7159.72 1742.76 7164.28C1745.09 7168.8 1748.35 7172.27 1752.53 7174.69C1756.72 7177.07 1761.61 7178.26 1767.22 7178.26C1770.98 7178.26 1774.38 7177.73 1777.42 7176.69C1780.46 7175.6 1783.1 7174 1785.34 7171.91C1787.57 7169.82 1789.26 7167.23 1790.4 7164.14L1814.51 7166.85C1812.98 7173.22 1810.08 7178.78 1805.8 7183.54C1801.57 7188.24 1796.15 7191.9 1789.54 7194.52C1782.94 7197.09 1775.38 7198.37 1766.87 7198.37ZM1837.42 7196.23V7086.69H1862.45V7104.95H1863.59C1865.58 7098.62 1869.01 7093.75 1873.86 7090.33C1878.75 7086.86 1884.34 7085.12 1890.62 7085.12C1892.04 7085.12 1893.64 7085.19 1895.39 7085.33C1897.2 7085.43 1898.7 7085.6 1899.89 7085.83V7109.58C1898.79 7109.2 1897.06 7108.87 1894.68 7108.58C1892.35 7108.25 1890.09 7108.08 1887.91 7108.08C1883.2 7108.08 1878.97 7109.11 1875.21 7111.15C1871.5 7113.15 1868.58 7115.93 1866.44 7119.49C1864.3 7123.06 1863.23 7127.17 1863.23 7131.83V7196.23H1837.42Z" fill="#E67E22"/>
<mask id="path-25-inside-8_51_2454" fill="white">
<path d="M259.242 8393.01C259.242 8285.97 346.014 8199.2 453.052 8199.2H1870.86C1977.9 8199.2 2064.67 8285.97 2064.67 8393.01V8393.01C2064.67 8500.05 1977.9 8586.82 1870.86 8586.82H453.052C346.014 8586.82 259.242 8500.05 259.242 8393.01V8393.01Z"/>
</mask>
<path d="M259.242 8393.01C259.242 8285.97 346.014 8199.2 453.052 8199.2H1870.86C1977.9 8199.2 2064.67 8285.97 2064.67 8393.01V8393.01C2064.67 8500.05 1977.9 8586.82 1870.86 8586.82H453.052C346.014 8586.82 259.242 8500.05 259.242 8393.01V8393.01Z" fill="#2ECC71" fill-opacity="0.1"/>
<path d="M259.242 8393.01M2064.67 8393.01M2064.67 8393.01M259.242 8393.01M453.052 8199.2V8217.66H1870.86V8199.2V8180.74H453.052V8199.2ZM2064.67 8393.01M1870.86 8586.82V8568.36H453.052V8586.82V8605.28H1870.86V8586.82ZM259.242 8393.01M453.052 8586.82V8568.36C356.208 8568.36 277.7 8489.85 277.7 8393.01H259.242H240.784C240.784 8510.24 335.819 8605.28 453.052 8605.28V8586.82ZM2064.67 8393.01H2046.21C2046.21 8489.85 1967.71 8568.36 1870.86 8568.36V8586.82V8605.28C1988.09 8605.28 2083.13 8510.24 2083.13 8393.01H2064.67ZM1870.86 8199.2V8217.66C1967.71 8217.66 2046.21 8296.17 2046.21 8393.01H2064.67H2083.13C2083.13 8275.78 1988.09 8180.74 1870.86 8180.74V8199.2ZM453.052 8199.2V8180.74C335.82 8180.74 240.784 8275.78 240.784 8393.01H259.242H277.7C277.7 8296.17 356.208 8217.66 453.052 8217.66V8199.2Z" fill="#2ECC71" fill-opacity="0.314" mask="url(#path-25-inside-8_51_2454)"/>
<path d="M583.245 8371.26H556.574C555.813 8366.88 554.41 8363.01 552.366 8359.63C550.322 8356.21 547.778 8353.31 544.735 8350.93C541.692 8348.56 538.222 8346.77 534.323 8345.58C530.472 8344.35 526.312 8343.73 521.843 8343.73C513.903 8343.73 506.867 8345.73 500.734 8349.72C494.601 8353.67 489.799 8359.47 486.328 8367.12C482.857 8374.73 481.122 8384.02 481.122 8395.01C481.122 8406.18 482.857 8415.59 486.328 8423.25C489.846 8430.85 494.648 8436.61 500.734 8440.51C506.867 8444.36 513.88 8446.28 521.772 8446.28C526.146 8446.28 530.235 8445.71 534.038 8444.57C537.889 8443.38 541.336 8441.65 544.379 8439.36C547.469 8437.08 550.06 8434.28 552.152 8430.95C554.292 8427.62 555.765 8423.82 556.574 8419.54L583.245 8419.68C582.247 8426.62 580.084 8433.14 576.756 8439.22C573.475 8445.31 569.173 8450.68 563.848 8455.34C558.523 8459.95 552.295 8463.56 545.163 8466.18C538.032 8468.75 530.116 8470.03 521.415 8470.03C508.578 8470.03 497.12 8467.06 487.041 8461.12C476.962 8455.17 469.022 8446.59 463.222 8435.37C457.422 8424.15 454.522 8410.7 454.522 8395.01C454.522 8379.27 457.445 8365.81 463.293 8354.64C469.141 8343.42 477.105 8334.84 487.184 8328.9C497.263 8322.95 508.674 8319.98 521.415 8319.98C529.545 8319.98 537.105 8321.12 544.093 8323.41C551.082 8325.69 557.311 8329.04 562.778 8333.46C568.246 8337.84 572.738 8343.21 576.257 8349.58C579.822 8355.9 582.152 8363.13 583.245 8371.26ZM654.115 8470.17C643.418 8470.17 634.147 8467.82 626.302 8463.11C618.457 8458.41 612.372 8451.82 608.045 8443.36C603.766 8434.9 601.627 8425.01 601.627 8413.69C601.627 8402.38 603.766 8392.46 608.045 8383.95C612.372 8375.44 618.457 8368.83 626.302 8364.13C634.147 8359.42 643.418 8357.07 654.115 8357.07C664.812 8357.07 674.083 8359.42 681.928 8364.13C689.773 8368.83 695.834 8375.44 700.113 8383.95C704.44 8392.46 706.603 8402.38 706.603 8413.69C706.603 8425.01 704.44 8434.9 700.113 8443.36C695.834 8451.82 689.773 8458.41 681.928 8463.11C674.083 8467.82 664.812 8470.17 654.115 8470.17ZM654.258 8449.49C660.058 8449.49 664.907 8447.9 668.806 8444.71C672.705 8441.48 675.605 8437.15 677.506 8431.73C679.456 8426.31 680.43 8420.28 680.43 8413.62C680.43 8406.92 679.456 8400.85 677.506 8395.43C675.605 8389.97 672.705 8385.62 668.806 8382.38C664.907 8379.15 660.058 8377.53 654.258 8377.53C648.315 8377.53 643.37 8379.15 639.424 8382.38C635.526 8385.62 632.602 8389.97 630.652 8395.43C628.751 8400.85 627.8 8406.92 627.8 8413.62C627.8 8420.28 628.751 8426.31 630.652 8431.73C632.602 8437.15 635.526 8441.48 639.424 8444.71C643.37 8447.9 648.315 8449.49 654.258 8449.49ZM754.331 8403.85V8468.03H728.515V8358.49H753.19V8377.11H754.473C756.993 8370.97 761.011 8366.1 766.526 8362.49C772.088 8358.87 778.958 8357.07 787.136 8357.07C794.695 8357.07 801.28 8358.68 806.89 8361.92C812.548 8365.15 816.922 8369.83 820.012 8375.96C823.15 8382.1 824.695 8389.54 824.648 8398.29V8468.03H798.831V8402.28C798.831 8394.96 796.93 8389.23 793.126 8385.09C789.37 8380.96 784.164 8378.89 777.508 8378.89C772.992 8378.89 768.974 8379.89 765.456 8381.88C761.985 8383.83 759.251 8386.66 757.255 8390.37C755.305 8394.08 754.331 8398.57 754.331 8403.85ZM905.59 8358.49V8378.46H842.619V8358.49H905.59ZM858.166 8332.25H883.982V8435.09C883.982 8438.56 884.505 8441.22 885.551 8443.07C886.644 8444.88 888.071 8446.12 889.83 8446.78C891.589 8447.45 893.538 8447.78 895.678 8447.78C897.294 8447.78 898.768 8447.66 900.099 8447.42C901.478 8447.19 902.524 8446.97 903.237 8446.78L907.587 8466.96C906.208 8467.44 904.235 8467.96 901.668 8468.53C899.148 8469.1 896.058 8469.44 892.397 8469.53C885.931 8469.72 880.107 8468.75 874.925 8466.61C869.743 8464.42 865.63 8461.04 862.587 8456.48C859.592 8451.92 858.118 8446.21 858.166 8439.36V8332.25ZM958.702 8470.24C951.761 8470.24 945.509 8469.01 939.946 8466.54C934.431 8464.02 930.057 8460.31 926.824 8455.41C923.639 8450.51 922.046 8444.48 922.046 8437.3C922.046 8431.12 923.187 8426 925.469 8421.96C927.752 8417.92 930.866 8414.69 934.812 8412.26C938.758 8409.84 943.203 8408.01 948.148 8406.77C953.14 8405.49 958.298 8404.56 963.623 8403.99C970.041 8403.33 975.247 8402.73 979.241 8402.21C983.235 8401.64 986.135 8400.78 987.942 8399.64C989.796 8398.45 990.723 8396.62 990.723 8394.15V8393.72C990.723 8388.35 989.13 8384.19 985.945 8381.24C982.759 8378.29 978.171 8376.82 972.181 8376.82C965.858 8376.82 960.842 8378.2 957.133 8380.96C953.473 8383.71 951 8386.97 949.717 8390.73L925.612 8387.3C927.514 8380.65 930.652 8375.09 935.026 8370.62C939.4 8366.1 944.748 8362.72 951.072 8360.49C957.395 8358.21 964.384 8357.07 972.038 8357.07C977.316 8357.07 982.569 8357.68 987.799 8358.92C993.029 8360.16 997.807 8362.2 1002.13 8365.05C1006.46 8367.86 1009.93 8371.69 1012.55 8376.54C1015.21 8381.38 1016.54 8387.45 1016.54 8394.72V8468.03H991.721V8452.99H990.866C989.297 8456.03 987.086 8458.88 984.233 8461.54C981.428 8464.16 977.886 8466.27 973.607 8467.89C969.376 8469.46 964.408 8470.24 958.702 8470.24ZM965.406 8451.27C970.588 8451.27 975.081 8450.25 978.885 8448.21C982.688 8446.12 985.612 8443.36 987.656 8439.93C989.748 8436.51 990.794 8432.78 990.794 8428.74V8415.83C989.986 8416.5 988.607 8417.11 986.658 8417.68C984.756 8418.25 982.617 8418.75 980.24 8419.18C977.862 8419.61 975.509 8419.99 973.179 8420.32C970.85 8420.66 968.829 8420.94 967.118 8421.18C963.267 8421.7 959.82 8422.56 956.777 8423.75C953.734 8424.93 951.333 8426.6 949.574 8428.74C947.815 8430.83 946.935 8433.54 946.935 8436.87C946.935 8441.62 948.671 8445.21 952.141 8447.64C955.612 8450.06 960.034 8451.27 965.406 8451.27ZM1042.5 8468.03V8358.49H1068.31V8468.03H1042.5ZM1055.48 8342.95C1051.39 8342.95 1047.87 8341.59 1044.92 8338.88C1041.97 8336.12 1040.5 8332.82 1040.5 8328.97C1040.5 8325.07 1041.97 8321.77 1044.92 8319.06C1047.87 8316.3 1051.39 8314.92 1055.48 8314.92C1059.61 8314.92 1063.13 8316.3 1066.03 8319.06C1068.98 8321.77 1070.45 8325.07 1070.45 8328.97C1070.45 8332.82 1068.98 8336.12 1066.03 8338.88C1063.13 8341.59 1059.61 8342.95 1055.48 8342.95ZM1120.68 8403.85V8468.03H1094.86V8358.49H1119.54V8377.11H1120.82C1123.34 8370.97 1127.36 8366.1 1132.87 8362.49C1138.43 8358.87 1145.3 8357.07 1153.48 8357.07C1161.04 8357.07 1167.63 8358.68 1173.24 8361.92C1178.89 8365.15 1183.27 8369.83 1186.36 8375.96C1189.5 8382.1 1191.04 8389.54 1190.99 8398.29V8468.03H1165.18V8402.28C1165.18 8394.96 1163.28 8389.23 1159.47 8385.09C1155.72 8380.96 1150.51 8378.89 1143.85 8378.89C1139.34 8378.89 1135.32 8379.89 1131.8 8381.88C1128.33 8383.83 1125.6 8386.66 1123.6 8390.37C1121.65 8394.08 1120.68 8398.57 1120.68 8403.85ZM1265.73 8470.17C1254.75 8470.17 1245.26 8467.89 1237.28 8463.33C1229.34 8458.71 1223.23 8452.2 1218.95 8443.79C1214.67 8435.32 1212.53 8425.36 1212.53 8413.9C1212.53 8402.64 1214.67 8392.75 1218.95 8384.24C1223.28 8375.68 1229.31 8369.02 1237.06 8364.27C1244.81 8359.47 1253.92 8357.07 1264.38 8357.07C1271.13 8357.07 1277.5 8358.16 1283.49 8360.35C1289.53 8362.49 1294.85 8365.81 1299.46 8370.33C1304.12 8374.85 1307.78 8380.6 1310.45 8387.59C1313.11 8394.53 1314.44 8402.8 1314.44 8412.41V8420.32H1224.65V8402.92H1289.69C1289.65 8397.98 1288.58 8393.58 1286.48 8389.73C1284.39 8385.83 1281.47 8382.76 1277.71 8380.53C1274 8378.29 1269.68 8377.18 1264.73 8377.18C1259.46 8377.18 1254.82 8378.46 1250.83 8381.03C1246.83 8383.55 1243.72 8386.88 1241.49 8391.01C1239.3 8395.1 1238.18 8399.59 1238.13 8404.49V8419.68C1238.13 8426.05 1239.3 8431.52 1241.63 8436.08C1243.96 8440.6 1247.21 8444.07 1251.4 8446.5C1255.58 8448.87 1260.48 8450.06 1266.09 8450.06C1269.84 8450.06 1273.24 8449.54 1276.29 8448.49C1279.33 8447.4 1281.97 8445.81 1284.2 8443.71C1286.44 8441.62 1288.13 8439.03 1289.27 8435.94L1313.37 8438.65C1311.85 8445.02 1308.95 8450.58 1304.67 8455.34C1300.44 8460.05 1295.02 8463.71 1288.41 8466.32C1281.8 8468.89 1274.24 8470.17 1265.73 8470.17ZM1336.28 8468.03V8358.49H1361.31V8376.75H1362.45C1364.45 8370.43 1367.87 8365.55 1372.72 8362.13C1377.62 8358.66 1383.21 8356.92 1389.48 8356.92C1390.91 8356.92 1392.5 8357 1394.26 8357.14C1396.07 8357.23 1397.56 8357.4 1398.75 8357.64V8381.38C1397.66 8381 1395.92 8380.67 1393.55 8380.39C1391.22 8380.05 1388.96 8379.89 1386.77 8379.89C1382.07 8379.89 1377.83 8380.91 1374.08 8382.95C1370.37 8384.95 1367.45 8387.73 1365.31 8391.3C1363.17 8394.86 1362.1 8398.98 1362.1 8403.64V8468.03H1336.28ZM1546.23 8362.13C1545.57 8355.9 1542.76 8351.05 1537.82 8347.58C1532.92 8344.11 1526.55 8342.38 1518.71 8342.38C1513.19 8342.38 1508.46 8343.21 1504.51 8344.87C1500.57 8346.54 1497.55 8348.79 1495.46 8351.65C1493.36 8354.5 1492.29 8357.76 1492.25 8361.42C1492.25 8364.46 1492.94 8367.1 1494.32 8369.33C1495.74 8371.57 1497.67 8373.47 1500.09 8375.04C1502.52 8376.56 1505.2 8377.84 1508.15 8378.89C1511.1 8379.93 1514.07 8380.81 1517.06 8381.53L1530.76 8384.95C1536.27 8386.23 1541.57 8387.97 1546.66 8390.16C1551.8 8392.34 1556.38 8395.1 1560.42 8398.43C1564.51 8401.76 1567.75 8405.77 1570.12 8410.48C1572.5 8415.19 1573.69 8420.7 1573.69 8427.03C1573.69 8435.58 1571.5 8443.12 1567.13 8449.63C1562.75 8456.1 1556.43 8461.16 1548.16 8464.82C1539.93 8468.44 1529.97 8470.24 1518.28 8470.24C1506.91 8470.24 1497.05 8468.48 1488.68 8464.97C1480.36 8461.45 1473.85 8456.31 1469.14 8449.56C1464.48 8442.81 1461.96 8434.59 1461.58 8424.89H1487.61C1487.99 8429.97 1489.56 8434.21 1492.32 8437.58C1495.08 8440.96 1498.67 8443.48 1503.09 8445.14C1507.56 8446.8 1512.55 8447.64 1518.06 8447.64C1523.82 8447.64 1528.86 8446.78 1533.18 8445.07C1537.56 8443.31 1540.98 8440.89 1543.45 8437.8C1545.92 8434.66 1547.18 8431 1547.23 8426.81C1547.18 8423.01 1546.07 8419.87 1543.88 8417.4C1541.69 8414.88 1538.63 8412.79 1534.68 8411.12C1530.78 8409.41 1526.22 8407.89 1520.99 8406.56L1504.37 8402.28C1492.34 8399.19 1482.83 8394.51 1475.84 8388.23C1468.9 8381.91 1465.43 8373.52 1465.43 8363.06C1465.43 8354.45 1467.76 8346.92 1472.42 8340.45C1477.13 8333.98 1483.52 8328.97 1491.61 8325.4C1499.69 8321.79 1508.84 8319.98 1519.06 8319.98C1529.43 8319.98 1538.51 8321.79 1546.3 8325.4C1554.15 8328.97 1560.31 8333.94 1564.77 8340.31C1569.24 8346.63 1571.55 8353.9 1571.69 8362.13H1546.23ZM1621.95 8403.85V8468.03H1596.14V8321.98H1621.38V8377.11H1622.66C1625.23 8370.93 1629.2 8366.05 1634.57 8362.49C1639.99 8358.87 1646.89 8357.07 1655.26 8357.07C1662.86 8357.07 1669.5 8358.66 1675.15 8361.84C1680.81 8365.03 1685.18 8369.69 1688.28 8375.82C1691.41 8381.96 1692.98 8389.44 1692.98 8398.29V8468.03H1667.17V8402.28C1667.17 8394.91 1665.26 8389.18 1661.46 8385.09C1657.7 8380.96 1652.43 8378.89 1645.63 8378.89C1641.06 8378.89 1636.98 8379.89 1633.36 8381.88C1629.8 8383.83 1626.99 8386.66 1624.95 8390.37C1622.95 8394.08 1621.95 8398.57 1621.95 8403.85ZM1719.3 8468.03V8358.49H1745.11V8468.03H1719.3ZM1732.28 8342.95C1728.19 8342.95 1724.67 8341.59 1721.72 8338.88C1718.77 8336.12 1717.3 8332.82 1717.3 8328.97C1717.3 8325.07 1718.77 8321.77 1721.72 8319.06C1724.67 8316.3 1728.19 8314.92 1732.28 8314.92C1736.41 8314.92 1739.93 8316.3 1742.83 8319.06C1745.78 8321.77 1747.25 8325.07 1747.25 8328.97C1747.25 8332.82 1745.78 8336.12 1742.83 8338.88C1739.93 8341.59 1736.41 8342.95 1732.28 8342.95ZM1771.66 8509.11V8358.49H1797.05V8376.61H1798.55C1799.88 8373.94 1801.76 8371.12 1804.18 8368.12C1806.6 8365.08 1809.89 8362.49 1814.02 8360.35C1818.16 8358.16 1823.44 8357.07 1829.85 8357.07C1838.32 8357.07 1845.95 8359.23 1852.75 8363.56C1859.59 8367.84 1865.01 8374.18 1869.01 8382.6C1873.05 8390.96 1875.07 8401.23 1875.07 8413.41C1875.07 8425.43 1873.09 8435.66 1869.15 8444.07C1865.2 8452.49 1859.83 8458.9 1853.03 8463.33C1846.23 8467.75 1838.53 8469.96 1829.92 8469.96C1823.65 8469.96 1818.44 8468.91 1814.31 8466.82C1810.17 8464.73 1806.84 8462.21 1804.32 8459.26C1801.85 8456.27 1799.92 8453.44 1798.55 8450.77H1797.48V8509.11H1771.66ZM1796.98 8413.26C1796.98 8420.35 1797.98 8426.55 1799.97 8431.88C1802.02 8437.2 1804.94 8441.36 1808.74 8444.36C1812.6 8447.3 1817.25 8448.78 1822.72 8448.78C1828.43 8448.78 1833.21 8447.26 1837.06 8444.21C1840.91 8441.12 1843.81 8436.92 1845.76 8431.59C1847.75 8426.22 1848.75 8420.11 1848.75 8413.26C1848.75 8406.46 1847.78 8400.43 1845.83 8395.15C1843.88 8389.87 1840.98 8385.74 1837.13 8382.74C1833.28 8379.74 1828.47 8378.25 1822.72 8378.25C1817.21 8378.25 1812.52 8379.7 1808.67 8382.6C1804.82 8385.5 1801.9 8389.56 1799.9 8394.79C1797.95 8400.02 1796.98 8406.18 1796.98 8413.26Z" fill="#2ECC71"/>
</g>
<defs>
<filter id="filter0_d_51_2454" x="0.00164986" y="0.000106812" width="5639.76" height="8950.76" filterUnits="userSpaceOnUse" color-interpolation-filters="sRGB">
<feFlood flood-opacity="0" result="BackgroundImageFix"/>
<feColorMatrix in="SourceAlpha" type="matrix" values="0 0 0 0 0 0 0 0 0 0 0 0 0 0 0 0 0 0 127 0" result="hardAlpha"/>
<feOffset dx="23.9222"/>
<feGaussianBlur stdDeviation="95.6888"/>
<feComposite in2="hardAlpha" operator="out"/>
<feColorMatrix type="matrix" values="0 0 0 0 0 0 0 0 0 0 0 0 0 0 0 0 0 0 0.5 0"/>
<feBlend mode="normal" in2="BackgroundImageFix" result="effect1_dropShadow_51_2454"/>
<feBlend mode="normal" in="SourceGraphic" in2="effect1_dropShadow_51_2454" result="shape"/>
</filter>
<linearGradient id="paint0_linear_51_2454" x1="2795.96" y1="191.378" x2="2795.96" y2="8759.38" gradientUnits="userSpaceOnUse">
<stop stop-color="#080F1C"/>
<stop offset="1" stop-color="#060B14"/>
</linearGradient>
</defs>
</svg>
