<svg width="5640" height="8951" viewBox="0 0 5640 8951" fill="none" xmlns="http://www.w3.org/2000/svg">
<g filter="url(#filter0_d_51_2361)">
<mask id="path-1-inside-1_51_2361" fill="white">
<path d="M167.457 191.377H5424.46V8759.38H167.457V191.377Z"/>
</mask>
<path d="M167.457 191.377H5424.46V8759.38H167.457V191.377Z" fill="url(#paint0_linear_51_2361)" shape-rendering="crispEdges"/>
<path d="M5424.46 191.377H5412.5V8759.38H5424.46H5436.42V191.377H5424.46Z" fill="#1A2840" mask="url(#path-1-inside-1_51_2361)"/>
<path d="M3304.93 3727.38L3331.74 3725.04C3333.01 3735.78 3335.94 3744.62 3340.53 3751.55C3345.22 3758.39 3352.44 3763.96 3362.21 3768.25C3371.97 3772.45 3382.96 3774.55 3395.17 3774.55C3406.01 3774.55 3415.58 3772.94 3423.88 3769.72C3432.18 3766.49 3438.33 3762.1 3442.34 3756.53C3446.44 3750.87 3448.49 3744.72 3448.49 3738.08C3448.49 3731.34 3446.54 3725.48 3442.63 3720.5C3438.72 3715.42 3432.28 3711.17 3423.29 3707.75C3417.53 3705.51 3404.79 3702.04 3385.06 3697.35C3365.33 3692.57 3351.52 3688.08 3343.61 3683.88C3333.35 3678.51 3325.69 3671.87 3320.61 3663.96C3315.63 3655.95 3313.14 3647.01 3313.14 3637.15C3313.14 3626.31 3316.21 3616.2 3322.37 3606.83C3328.52 3597.35 3337.5 3590.18 3349.32 3585.29C3361.13 3580.41 3374.27 3577.97 3388.72 3577.97C3404.64 3577.97 3418.65 3580.56 3430.76 3585.73C3442.97 3590.81 3452.35 3598.33 3458.89 3608.29C3465.43 3618.25 3468.95 3629.53 3469.44 3642.13L3442.19 3644.18C3440.72 3630.61 3435.74 3620.35 3427.25 3613.42C3418.85 3606.48 3406.4 3603.02 3389.89 3603.02C3372.71 3603.02 3360.16 3606.19 3352.25 3612.54C3344.44 3618.79 3340.53 3626.36 3340.53 3635.24C3340.53 3642.96 3343.31 3649.31 3348.88 3654.29C3354.35 3659.27 3368.61 3664.4 3391.65 3669.67C3414.8 3674.84 3430.67 3679.39 3439.26 3683.29C3451.76 3689.05 3460.99 3696.38 3466.95 3705.26C3472.9 3714.05 3475.88 3724.21 3475.88 3735.73C3475.88 3747.16 3472.61 3757.95 3466.07 3768.11C3459.52 3778.16 3450.1 3786.03 3437.79 3791.69C3425.59 3797.26 3411.82 3800.04 3396.49 3800.04C3377.05 3800.04 3360.74 3797.21 3347.56 3791.54C3334.47 3785.88 3324.17 3777.38 3316.65 3766.06C3309.23 3754.63 3305.32 3741.74 3304.93 3727.38ZM3511.33 3796.38V3581.63H3537.7V3658.68C3550 3644.42 3565.53 3637.3 3584.28 3637.3C3595.8 3637.3 3605.81 3639.59 3614.31 3644.18C3622.8 3648.67 3628.86 3654.92 3632.47 3662.93C3636.18 3670.94 3638.04 3682.56 3638.04 3697.79V3796.38H3611.67V3697.79C3611.67 3684.61 3608.79 3675.04 3603.03 3669.08C3597.37 3663.03 3589.31 3660 3578.86 3660C3571.05 3660 3563.67 3662.05 3556.74 3666.15C3549.9 3670.16 3545.02 3675.63 3542.09 3682.56C3539.16 3689.49 3537.7 3699.06 3537.7 3711.27V3796.38H3511.33ZM3678.47 3611.95V3581.63H3704.84V3611.95H3678.47ZM3678.47 3796.38V3640.81H3704.84V3796.38H3678.47ZM3745.12 3856V3640.81H3769.14V3661.03C3774.81 3653.12 3781.2 3647.21 3788.33 3643.3C3795.46 3639.3 3804.1 3637.3 3814.26 3637.3C3827.54 3637.3 3839.26 3640.71 3849.42 3647.55C3859.57 3654.39 3867.24 3664.05 3872.41 3676.55C3877.59 3688.96 3880.18 3702.58 3880.18 3717.42C3880.18 3733.34 3877.3 3747.7 3871.54 3760.49C3865.87 3773.18 3857.57 3782.95 3846.63 3789.79C3835.79 3796.52 3824.37 3799.89 3812.36 3799.89C3803.57 3799.89 3795.66 3798.04 3788.62 3794.33C3781.69 3790.62 3775.98 3785.93 3771.49 3780.26V3856H3745.12ZM3769 3719.47C3769 3739.49 3773.05 3754.29 3781.15 3763.86C3789.26 3773.43 3799.07 3778.21 3810.6 3778.21C3822.32 3778.21 3832.33 3773.28 3840.63 3763.42C3849.03 3753.46 3853.22 3738.08 3853.22 3717.28C3853.22 3697.45 3849.12 3682.61 3840.92 3672.74C3832.81 3662.88 3823.1 3657.95 3811.77 3657.95C3800.54 3657.95 3790.58 3663.22 3781.89 3673.77C3773.29 3684.22 3769 3699.45 3769 3719.47ZM3901.56 3749.94L3927.64 3745.84C3929.1 3756.29 3933.16 3764.3 3939.8 3769.86C3946.54 3775.43 3955.91 3778.21 3967.92 3778.21C3980.03 3778.21 3989.02 3775.77 3994.88 3770.89C4000.73 3765.91 4003.66 3760.1 4003.66 3753.46C4003.66 3747.5 4001.08 3742.81 3995.9 3739.4C3992.29 3737.05 3983.3 3734.07 3968.95 3730.46C3949.61 3725.58 3936.18 3721.38 3928.66 3717.86C3921.24 3714.25 3915.58 3709.32 3911.67 3703.07C3907.86 3696.72 3905.96 3689.74 3905.96 3682.12C3905.96 3675.19 3907.52 3668.79 3910.65 3662.93C3913.87 3656.97 3918.21 3652.04 3923.68 3648.14C3927.79 3645.11 3933.35 3642.57 3940.38 3640.52C3947.51 3638.37 3955.13 3637.3 3963.23 3637.3C3975.44 3637.3 3986.13 3639.05 3995.31 3642.57C4004.59 3646.08 4011.43 3650.87 4015.82 3656.92C4020.22 3662.88 4023.24 3670.89 4024.9 3680.95L3999.12 3684.46C3997.95 3676.46 3994.53 3670.21 3988.87 3665.71C3983.3 3661.22 3975.39 3658.98 3965.14 3658.98C3953.03 3658.98 3944.39 3660.98 3939.21 3664.98C3934.04 3668.98 3931.45 3673.67 3931.45 3679.04C3931.45 3682.46 3932.52 3685.54 3934.67 3688.27C3936.82 3691.1 3940.19 3693.45 3944.78 3695.3C3947.41 3696.28 3955.18 3698.53 3968.07 3702.04C3986.72 3707.02 3999.71 3711.12 4007.03 3714.35C4014.46 3717.47 4020.27 3722.06 4024.46 3728.12C4028.66 3734.17 4030.76 3741.69 4030.76 3750.67C4030.76 3759.46 4028.18 3767.76 4023 3775.58C4017.92 3783.29 4010.55 3789.3 4000.88 3793.59C3991.21 3797.79 3980.28 3799.89 3968.07 3799.89C3947.85 3799.89 3932.42 3795.69 3921.78 3787.3C3911.23 3778.9 3904.49 3766.45 3901.56 3749.94ZM3304.93 4072.38L3331.74 4070.04C3333.01 4080.78 3335.94 4089.62 3340.53 4096.55C3345.22 4103.39 3352.44 4108.96 3362.21 4113.25C3371.97 4117.45 3382.96 4119.55 3395.17 4119.55C3406.01 4119.55 3415.58 4117.94 3423.88 4114.72C3432.18 4111.49 3438.33 4107.1 3442.34 4101.53C3446.44 4095.87 3448.49 4089.72 3448.49 4083.08C3448.49 4076.34 3446.54 4070.48 3442.63 4065.5C3438.72 4060.42 3432.28 4056.17 3423.29 4052.75C3417.53 4050.51 3404.79 4047.04 3385.06 4042.35C3365.33 4037.57 3351.52 4033.08 3343.61 4028.88C3333.35 4023.51 3325.69 4016.87 3320.61 4008.96C3315.63 4000.95 3313.14 3992.01 3313.14 3982.15C3313.14 3971.31 3316.21 3961.2 3322.37 3951.83C3328.52 3942.35 3337.5 3935.18 3349.32 3930.29C3361.13 3925.41 3374.27 3922.97 3388.72 3922.97C3404.64 3922.97 3418.65 3925.56 3430.76 3930.73C3442.97 3935.81 3452.35 3943.33 3458.89 3953.29C3465.43 3963.25 3468.95 3974.53 3469.44 3987.13L3442.19 3989.18C3440.72 3975.61 3435.74 3965.35 3427.25 3958.42C3418.85 3951.48 3406.4 3948.02 3389.89 3948.02C3372.71 3948.02 3360.16 3951.19 3352.25 3957.54C3344.44 3963.79 3340.53 3971.36 3340.53 3980.24C3340.53 3987.96 3343.31 3994.31 3348.88 3999.29C3354.35 4004.27 3368.61 4009.4 3391.65 4014.67C3414.8 4019.84 3430.67 4024.39 3439.26 4028.29C3451.76 4034.05 3460.99 4041.38 3466.95 4050.26C3472.9 4059.05 3475.88 4069.21 3475.88 4080.73C3475.88 4092.16 3472.61 4102.95 3466.07 4113.11C3459.52 4123.16 3450.1 4131.03 3437.79 4136.69C3425.59 4142.26 3411.82 4145.04 3396.49 4145.04C3377.05 4145.04 3360.74 4142.21 3347.56 4136.54C3334.47 4130.88 3324.17 4122.38 3316.65 4111.06C3309.23 4099.63 3305.32 4086.74 3304.93 4072.38ZM3511.48 3956.95V3926.63H3537.84V3956.95H3511.48ZM3511.48 4141.38V3985.81H3537.84V4141.38H3511.48ZM3577.54 4141.38V3926.63H3603.91V4141.38H3577.54ZM3644.92 4141.38V3926.63H3671.29V4003.68C3683.6 3989.42 3699.12 3982.3 3717.87 3982.3C3729.4 3982.3 3739.41 3984.59 3747.9 3989.18C3756.4 3993.67 3762.45 3999.92 3766.07 4007.93C3769.78 4015.94 3771.63 4027.56 3771.63 4042.79V4141.38H3745.27V4042.79C3745.27 4029.61 3742.38 4020.04 3736.62 4014.08C3730.96 4008.03 3722.9 4005 3712.45 4005C3704.64 4005 3697.27 4007.05 3690.33 4011.15C3683.5 4015.16 3678.62 4020.63 3675.69 4027.56C3672.76 4034.49 3671.29 4044.06 3671.29 4056.27V4141.38H3644.92ZM3802.1 4063.59C3802.1 4034.79 3810.11 4013.45 3826.12 3999.58C3839.5 3988.06 3855.81 3982.3 3875.05 3982.3C3896.44 3982.3 3913.92 3989.33 3927.49 4003.39C3941.07 4017.35 3947.85 4036.69 3947.85 4061.4C3947.85 4081.42 3944.83 4097.19 3938.77 4108.71C3932.81 4120.14 3924.07 4129.02 3912.55 4135.37C3901.12 4141.72 3888.62 4144.89 3875.05 4144.89C3853.27 4144.89 3835.65 4137.91 3822.17 4123.95C3808.79 4109.98 3802.1 4089.86 3802.1 4063.59ZM3829.2 4063.59C3829.2 4083.52 3833.55 4098.46 3842.24 4108.42C3850.93 4118.28 3861.87 4123.21 3875.05 4123.21C3888.14 4123.21 3899.03 4118.23 3907.72 4108.27C3916.41 4098.31 3920.75 4083.13 3920.75 4062.72C3920.75 4043.48 3916.36 4028.93 3907.57 4019.06C3898.88 4009.1 3888.04 4004.12 3875.05 4004.12C3861.87 4004.12 3850.93 4009.05 3842.24 4018.92C3833.55 4028.78 3829.2 4043.67 3829.2 4063.59ZM4080.86 4141.38V4118.53C4068.75 4136.1 4052.3 4144.89 4031.5 4144.89C4022.32 4144.89 4013.72 4143.14 4005.71 4139.62C3997.8 4136.1 3991.9 4131.71 3987.99 4126.44C3984.18 4121.06 3981.5 4114.52 3979.93 4106.81C3978.86 4101.63 3978.32 4093.43 3978.32 4082.2V3985.81H4004.69V4072.09C4004.69 4085.86 4005.23 4095.14 4006.3 4099.92C4007.96 4106.86 4011.48 4112.32 4016.85 4116.33C4022.22 4120.23 4028.86 4122.19 4036.77 4122.19C4044.68 4122.19 4052.1 4120.19 4059.04 4116.18C4065.97 4112.08 4070.85 4106.56 4073.68 4099.63C4076.61 4092.6 4078.08 4082.44 4078.08 4069.16V3985.81H4104.45V4141.38H4080.86ZM4252.39 4091.28L4279.64 4094.65C4275.34 4110.57 4267.38 4122.92 4255.76 4131.71C4244.14 4140.5 4229.3 4144.89 4211.23 4144.89C4188.48 4144.89 4170.41 4137.91 4157.03 4123.95C4143.75 4109.88 4137.11 4090.21 4137.11 4064.91C4137.11 4038.74 4143.85 4018.43 4157.33 4003.98C4170.8 3989.52 4188.28 3982.3 4209.77 3982.3C4230.57 3982.3 4247.56 3989.38 4260.74 4003.54C4273.93 4017.7 4280.52 4037.62 4280.52 4063.3C4280.52 4064.86 4280.47 4067.21 4280.37 4070.33H4164.36C4165.33 4087.42 4170.17 4100.51 4178.86 4109.59C4187.55 4118.67 4198.39 4123.21 4211.38 4123.21C4221.05 4123.21 4229.3 4120.67 4236.13 4115.6C4242.97 4110.52 4248.39 4102.41 4252.39 4091.28ZM4165.82 4048.65H4252.69C4251.52 4035.57 4248.2 4025.75 4242.73 4019.21C4234.33 4009.05 4223.44 4003.98 4210.06 4003.98C4197.95 4003.98 4187.75 4008.03 4179.45 4016.13C4171.24 4024.24 4166.7 4035.08 4165.82 4048.65ZM4370.46 4117.79L4374.27 4141.08C4366.85 4142.65 4360.21 4143.43 4354.35 4143.43C4344.78 4143.43 4337.36 4141.91 4332.08 4138.89C4326.81 4135.86 4323.1 4131.9 4320.95 4127.02C4318.8 4122.04 4317.73 4111.64 4317.73 4095.82V4006.32H4298.39V3985.81H4317.73V3947.29L4343.95 3931.47V3985.81H4370.46V4006.32H4343.95V4097.29C4343.95 4104.81 4344.39 4109.64 4345.27 4111.79C4346.24 4113.94 4347.76 4115.65 4349.81 4116.91C4351.96 4118.18 4354.98 4118.82 4358.89 4118.82C4361.82 4118.82 4365.68 4118.48 4370.46 4117.79ZM4453.96 4117.79L4457.77 4141.08C4450.34 4142.65 4443.7 4143.43 4437.84 4143.43C4428.27 4143.43 4420.85 4141.91 4415.58 4138.89C4410.3 4135.86 4406.59 4131.9 4404.45 4127.02C4402.3 4122.04 4401.22 4111.64 4401.22 4095.82V4006.32H4381.89V3985.81H4401.22V3947.29L4427.44 3931.47V3985.81H4453.96V4006.32H4427.44V4097.29C4427.44 4104.81 4427.88 4109.64 4428.76 4111.79C4429.74 4113.94 4431.25 4115.65 4433.3 4116.91C4435.45 4118.18 4438.48 4118.82 4442.38 4118.82C4445.31 4118.82 4449.17 4118.48 4453.96 4117.79ZM4586.38 4091.28L4613.62 4094.65C4609.33 4110.57 4601.37 4122.92 4589.75 4131.71C4578.13 4140.5 4563.28 4144.89 4545.22 4144.89C4522.46 4144.89 4504.4 4137.91 4491.02 4123.95C4477.74 4109.88 4471.1 4090.21 4471.1 4064.91C4471.1 4038.74 4477.83 4018.43 4491.31 4003.98C4504.79 3989.52 4522.27 3982.3 4543.75 3982.3C4564.55 3982.3 4581.54 3989.38 4594.73 4003.54C4607.91 4017.7 4614.5 4037.62 4614.5 4063.3C4614.5 4064.86 4614.46 4067.21 4614.36 4070.33H4498.34C4499.32 4087.42 4504.15 4100.51 4512.84 4109.59C4521.54 4118.67 4532.38 4123.21 4545.36 4123.21C4555.03 4123.21 4563.28 4120.67 4570.12 4115.6C4576.96 4110.52 4582.38 4102.41 4586.38 4091.28ZM4499.81 4048.65H4586.67C4585.5 4035.57 4582.18 4025.75 4576.71 4019.21C4568.31 4009.05 4557.42 4003.98 4544.04 4003.98C4531.94 4003.98 4521.73 4008.03 4513.43 4016.13C4505.23 4024.24 4500.69 4035.08 4499.81 4048.65Z" fill="white"/>
<line x1="2805.46" y1="765.377" x2="2805.46" y2="8207.38" stroke="white" stroke-width="18"/>
<line x1="2796.46" y1="774.377" x2="1784.46" y2="774.378" stroke="white" stroke-width="18"/>
<line x1="2814.46" y1="8204.38" x2="1802.46" y2="8204.38" stroke="white" stroke-width="18"/>
<g opacity="0.85">
<path d="M563.238 891.016L616.253 912.222H1252.43L1358.45 891.016L1305.44 869.811L1252.43 848.605L1199.41 827.399L1093.38 806.193H881.325L775.296 827.399L669.267 848.605L616.253 869.811L563.238 891.016ZM1040.37 806.193V763.782H1072.18V806.193M934.339 806.193V774.385H987.354V806.193" fill="#6C5CE7"/>
<path d="M1040.37 806.193V763.782H1072.18V806.193M934.339 806.193V774.385H987.354V806.193M563.238 891.016L616.253 912.222H1252.43L1358.45 891.016L1305.44 869.811L1252.43 848.605L1199.41 827.399L1093.38 806.193H881.325L775.296 827.399L669.267 848.605L616.253 869.811L563.238 891.016Z" stroke="#6C5CE7" stroke-width="5.30144"/>
</g>
<g opacity="0.85">
<path d="M510.242 1800.3L616.271 1821.5H1358.47L1464.5 1800.3L1411.49 1779.09L1358.47 1757.89L1305.46 1736.68L1252.44 1715.48L987.372 1694.27L934.358 1673.06H881.343L828.329 1694.27L669.286 1715.48L616.271 1757.89L563.257 1779.09L510.242 1800.3ZM934.358 1673.06V1641.26H955.563V1673.06M1040.39 1694.27V1662.46H1061.59V1694.27M1093.4 1715.48H1199.43V1694.27H1093.4V1715.48Z" fill="#636E72"/>
<path d="M934.358 1673.06L987.372 1694.27L1252.44 1715.48L1305.46 1736.68L1358.47 1757.89L1411.49 1779.09L1464.5 1800.3L1358.47 1821.5H616.271L510.242 1800.3L563.257 1779.09L616.271 1757.89L669.286 1715.48L828.329 1694.27L881.343 1673.06H934.358ZM934.358 1673.06V1641.26H955.563V1673.06M1040.39 1694.27V1662.46H1061.59V1694.27M1093.4 1715.48H1199.43V1694.27H1093.4V1715.48Z" stroke="#636E72" stroke-width="5.30144"/>
</g>
<g opacity="0.85">
<path d="M510.156 2730.77L563.171 2751.97H1411.4L1464.42 2730.77L1411.4 2688.35L1358.39 2667.15L1305.37 2645.94L1252.36 2624.74H722.214L669.2 2645.94L616.185 2688.35L563.171 2709.56L510.156 2730.77ZM775.228 2624.74V2571.72C845.914 2550.52 916.6 2550.52 987.286 2571.72V2624.74M1040.3 2624.74V2571.72C1110.99 2550.52 1181.67 2550.52 1252.36 2571.72V2624.74" fill="#3498DB"/>
<path d="M1252.36 2624.74L1305.37 2645.94L1358.39 2667.15L1411.4 2688.35L1464.42 2730.77L1411.4 2751.97H563.171L510.156 2730.77L563.171 2709.56L616.185 2688.35L669.2 2645.94L722.214 2624.74H1252.36ZM1252.36 2624.74V2571.72C1181.67 2550.52 1110.99 2550.52 1040.3 2571.72V2624.74M775.228 2624.74V2571.72C845.914 2550.52 916.6 2550.52 987.286 2571.72V2624.74" stroke="#3498DB" stroke-width="5.30144"/>
</g>
<g opacity="0.85">
<path d="M510.539 3640.01L563.554 3661.22H1411.78L1464.8 3640.01L1432.99 3618.81L1358.77 3597.6L1305.76 3555.19L1252.74 3533.98H1199.73L1146.71 3555.19H1093.7H1040.68H669.582L616.568 3576.4L563.554 3618.81L510.539 3640.01ZM1220.93 3533.98V3491.57H1242.14V3533.98M881.64 3555.19V3512.78H1040.68V3555.19" fill="#E74C3C"/>
<path d="M1040.68 3555.19H1093.7H1146.71L1199.73 3533.98H1252.74L1305.76 3555.19L1358.77 3597.6L1432.99 3618.81L1464.8 3640.01L1411.78 3661.22H563.554L510.539 3640.01L563.554 3618.81L616.568 3576.4L669.582 3555.19H1040.68ZM1040.68 3555.19V3512.78H881.64V3555.19M1220.93 3533.98V3491.57H1242.14V3533.98" stroke="#E74C3C" stroke-width="5.30144"/>
</g>
<g opacity="0.85">
<path d="M563.629 4528.07L616.643 4549.28H1252.82L1358.85 4528.07L1305.83 4506.86L1252.82 4485.66L1199.8 4464.45L1093.77 4443.25H881.716L775.687 4464.45L669.658 4485.66L616.643 4506.86L563.629 4528.07ZM1040.76 4443.25V4400.84H1072.57V4443.25M934.73 4443.25V4411.44H987.744V4443.25" fill="#6C5CE7"/>
<path d="M1040.76 4443.25V4400.84H1072.57V4443.25M934.73 4443.25V4411.44H987.744V4443.25M563.629 4528.07L616.643 4549.28H1252.82L1358.85 4528.07L1305.83 4506.86L1252.82 4485.66L1199.8 4464.45L1093.77 4443.25H881.716L775.687 4464.45L669.658 4485.66L616.643 4506.86L563.629 4528.07Z" stroke="#6C5CE7" stroke-width="5.30144"/>
</g>
<g opacity="0.85">
<path d="M510.539 5458.54L563.554 5479.75H1411.78L1464.8 5458.54L1411.78 5416.13L1358.77 5373.72L1305.76 5352.52H722.597L669.582 5373.72L616.568 5416.13L563.554 5437.34L510.539 5458.54ZM775.611 5352.52V5320.71H1252.74V5352.52M1199.73 5320.71L1220.93 5288.9H1242.14V5320.71" fill="#9B59B6"/>
<path d="M775.611 5352.52V5320.71H1252.74V5352.52M1199.73 5320.71L1220.93 5288.9H1242.14V5320.71M510.539 5458.54L563.554 5479.75H1411.78L1464.8 5458.54L1411.78 5416.13L1358.77 5373.72L1305.76 5352.52H722.597L669.582 5373.72L616.568 5416.13L563.554 5437.34L510.539 5458.54Z" stroke="#9B59B6" stroke-width="5.30144"/>
</g>
<g opacity="0.85">
<path d="M510.539 6367.81L563.554 6389.02H1411.78L1464.8 6367.81L1432.99 6346.61L1358.77 6325.4L1305.76 6282.99L1252.74 6261.78H1199.73L1146.71 6282.99H1093.7H1040.68H669.582L616.568 6304.2L563.554 6346.61L510.539 6367.81ZM1220.93 6261.78V6219.37H1242.14V6261.78M881.64 6282.99V6240.58H1040.68V6282.99" fill="#E67E22"/>
<path d="M1040.68 6282.99H1093.7H1146.71L1199.73 6261.78H1252.74L1305.76 6282.99L1358.77 6325.4L1432.99 6346.61L1464.8 6367.81L1411.78 6389.02H563.554L510.539 6367.81L563.554 6346.61L616.568 6304.2L669.582 6282.99H1040.68ZM1040.68 6282.99V6240.58H881.64V6282.99M1220.93 6261.78V6219.37H1242.14V6261.78" stroke="#E67E22" stroke-width="5.30144"/>
</g>
<g opacity="0.85">
<path d="M510.539 7277.09L563.554 7298.29H1411.78L1464.8 7277.09L1432.99 7234.67L1390.58 7192.26L1326.96 7160.45L1284.55 7139.25H722.597L669.582 7171.06L616.568 7213.47L563.554 7255.88L510.539 7277.09ZM754.405 7139.25V7107.44H1252.74V7139.25M1263.34 7139.25L1284.55 7096.84H1305.76V7139.25M775.611 7139.25V7107.44ZM881.64 7139.25V7107.44ZM987.669 7139.25V7107.44ZM1093.7 7139.25V7107.44ZM1199.73 7139.25V7107.44Z" fill="#2ECC71"/>
<path d="M754.405 7139.25V7107.44H1252.74V7139.25M1263.34 7139.25L1284.55 7096.84H1305.76V7139.25M775.611 7139.25V7107.44M881.64 7139.25V7107.44M987.669 7139.25V7107.44M1093.7 7139.25V7107.44M1199.73 7139.25V7107.44M510.539 7277.09L563.554 7298.29H1411.78L1464.8 7277.09L1432.99 7234.67L1390.58 7192.26L1326.96 7160.45L1284.55 7139.25H722.597L669.582 7171.06L616.568 7213.47L563.554 7255.88L510.539 7277.09Z" stroke="#2ECC71" stroke-width="5.30144"/>
</g>
<g opacity="0.85">
<path d="M510.242 8186.35L563.257 8207.56H1411.49L1464.5 8186.35L1411.49 8143.94L1358.47 8101.53L1284.25 8080.32H722.3L669.286 8101.53L616.271 8143.94L563.257 8165.14L510.242 8186.35ZM1093.4 8080.32V8027.31H1146.42V8080.32M1114.61 8027.31V8006.1H1125.21V8027.31M775.314 8080.32V8048.51H987.372V8080.32" fill="#E84393"/>
<path d="M1093.4 8080.32V8027.31H1146.42V8080.32M1114.61 8027.31V8006.1H1125.21V8027.31M775.314 8080.32V8048.51H987.372V8080.32M510.242 8186.35L563.257 8207.56H1411.49L1464.5 8186.35L1411.49 8143.94L1358.47 8101.53L1284.25 8080.32H722.3L669.286 8101.53L616.271 8143.94L563.257 8165.14L510.242 8186.35Z" stroke="#E84393" stroke-width="5.30144"/>
</g>
</g>
<defs>
<filter id="filter0_d_51_2361" x="0.00164986" y="-0.000137329" width="5639.76" height="8950.76" filterUnits="userSpaceOnUse" color-interpolation-filters="sRGB">
<feFlood flood-opacity="0" result="BackgroundImageFix"/>
<feColorMatrix in="SourceAlpha" type="matrix" values="0 0 0 0 0 0 0 0 0 0 0 0 0 0 0 0 0 0 127 0" result="hardAlpha"/>
<feOffset dx="23.9222"/>
<feGaussianBlur stdDeviation="95.6888"/>
<feComposite in2="hardAlpha" operator="out"/>
<feColorMatrix type="matrix" values="0 0 0 0 0 0 0 0 0 0 0 0 0 0 0 0 0 0 0.5 0"/>
<feBlend mode="normal" in2="BackgroundImageFix" result="effect1_dropShadow_51_2361"/>
<feBlend mode="normal" in="SourceGraphic" in2="effect1_dropShadow_51_2361" result="shape"/>
</filter>
<linearGradient id="paint0_linear_51_2361" x1="2795.96" y1="191.377" x2="2795.96" y2="8759.38" gradientUnits="userSpaceOnUse">
<stop stop-color="#080F1C"/>
<stop offset="1" stop-color="#060B14"/>
</linearGradient>
</defs>
</svg>
