<svg width="17599" height="10174" viewBox="0 0 17599 10174" fill="none" xmlns="http://www.w3.org/2000/svg">
<mask id="path-1-inside-1_52_3481" fill="white">
<path d="M0 0H17599V10174H0V0Z"/>
</mask>
<path d="M0 0H17599V10174H0V0Z" fill="#0C1220"/>
<path d="M0 10174H19.3658V0H0H-19.3658V10174H0Z" fill="#1A2840" mask="url(#path-1-inside-1_52_3481)"/>
<path d="M4700 3176C4630 3176 4575 3156.33 4535 3117C4495 3077.67 4475 3024 4475 2956H4565C4565 3000.67 4576.67 3035.33 4600 3060C4624 3084 4657.33 3096 4700 3096C4742.67 3096 4775.67 3084 4799 3060C4823 3035.33 4835 3000.67 4835 2956V2518H4660V2436H4925V2956C4925 3024 4904.67 3077.67 4864 3117C4824 3156.33 4769.33 3176 4700 3176ZM5329.61 3176C5286.28 3176 5248.28 3167.33 5215.61 3150C5183.61 3132.67 5158.61 3108.33 5140.61 3077C5123.28 3045 5114.61 3008 5114.61 2966V2816C5114.61 2773.33 5123.28 2736.33 5140.61 2705C5158.61 2673.67 5183.61 2649.33 5215.61 2632C5248.28 2614.67 5286.28 2606 5329.61 2606C5372.94 2606 5410.61 2614.67 5442.61 2632C5475.28 2649.33 5500.28 2673.67 5517.61 2705C5535.61 2736.33 5544.61 2773.33 5544.61 2816V2913H5202.61V2966C5202.61 3009.33 5213.61 3042.67 5235.61 3066C5257.61 3088.67 5288.94 3100 5329.61 3100C5364.28 3100 5392.28 3094 5413.61 3082C5434.94 3069.33 5447.94 3050.67 5452.61 3026H5542.61C5536.61 3072 5513.94 3108.67 5474.61 3136C5435.94 3162.67 5387.61 3176 5329.61 3176ZM5456.61 2853V2816C5456.61 2772.67 5445.61 2739.33 5423.61 2716C5402.28 2692.67 5370.94 2681 5329.61 2681C5288.94 2681 5257.61 2692.67 5235.61 2716C5213.61 2739.33 5202.61 2772.67 5202.61 2816V2845H5463.61L5456.61 2853ZM5989.22 3166C5941.89 3166 5904.89 3153.33 5878.22 3128C5852.22 3102.67 5839.22 3067 5839.22 3021V2698H5684.22V2616H5839.22V2461H5929.22V2616H6149.22V2698H5929.22V3021C5929.22 3063 5949.22 3084 5989.22 3084H6139.22V3166H5989.22ZM6321.83 3166V2436H6528.83C6595.49 2436 6647.49 2452.67 6684.83 2486C6722.83 2519.33 6741.83 2565.67 6741.83 2625C6741.83 2658.33 6734.83 2687.33 6720.83 2712C6706.83 2736.67 6686.83 2755.67 6660.83 2769C6635.49 2782.33 6604.83 2788.67 6568.83 2788V2773C6607.49 2772.33 6640.83 2779.67 6668.83 2795C6697.49 2810.33 6719.49 2832.33 6734.83 2861C6750.83 2889.67 6758.83 2923.67 6758.83 2963C6758.83 3004.33 6750.16 3040.33 6732.83 3071C6715.49 3101.67 6690.83 3125.33 6658.83 3142C6626.83 3158 6588.49 3166 6543.83 3166H6321.83ZM6409.83 3085H6533.83C6575.83 3085 6608.83 3074 6632.83 3052C6657.49 3029.33 6669.83 2998.67 6669.83 2960C6669.83 2920 6657.49 2887.67 6632.83 2863C6608.83 2837.67 6575.83 2825 6533.83 2825H6409.83V3085ZM6409.83 2747H6527.83C6566.49 2747 6596.83 2736.67 6618.83 2716C6641.49 2695.33 6652.83 2667.33 6652.83 2632C6652.83 2596.67 6641.83 2568.67 6619.83 2548C6597.83 2527.33 6567.49 2517 6528.83 2517H6409.83V2747ZM6939.44 3166V2616H7027.44V2721H7048.44L7019.44 2786C7019.44 2726.67 7032.1 2682 7057.44 2652C7083.44 2621.33 7121.77 2606 7172.44 2606C7230.44 2606 7276.44 2624.33 7310.44 2661C7345.1 2697 7362.44 2746 7362.44 2808V2841H7272.44V2816C7272.44 2772.67 7261.77 2739.67 7240.44 2717C7219.77 2693.67 7190.1 2682 7151.44 2682C7113.44 2682 7083.44 2693.67 7061.44 2717C7040.1 2740.33 7029.44 2773.33 7029.44 2816V3166H6939.44ZM7680.05 3176C7622.05 3176 7576.38 3161.33 7543.05 3132C7509.71 3102 7493.05 3061.67 7493.05 3011C7493.05 2959.67 7509.71 2919.33 7543.05 2890C7576.38 2860.67 7621.38 2846 7678.05 2846H7848.05V2791C7848.05 2757 7837.71 2731 7817.05 2713C7797.05 2694.33 7768.38 2685 7731.05 2685C7698.38 2685 7671.05 2692 7649.05 2706C7627.05 2719.33 7614.38 2737.67 7611.05 2761H7521.05C7527.05 2713.67 7549.38 2676 7588.05 2648C7626.71 2620 7675.05 2606 7733.05 2606C7796.38 2606 7846.38 2622.33 7883.05 2655C7919.71 2687.67 7938.05 2732 7938.05 2788V3166H7850.05V3061H7835.05L7850.05 3046C7850.05 3086 7834.38 3117.67 7803.05 3141C7772.38 3164.33 7731.38 3176 7680.05 3176ZM7702.05 3105C7744.71 3105 7779.71 3094.33 7807.05 3073C7834.38 3051.67 7848.05 3024.33 7848.05 2991V2913H7680.05C7650.05 2913 7626.38 2921.33 7609.05 2938C7591.71 2954.67 7583.05 2977.33 7583.05 3006C7583.05 3036.67 7593.38 3061 7614.05 3079C7635.38 3096.33 7664.71 3105 7702.05 3105ZM8112.66 3166V3084H8307.66V2698H8137.66V2616H8397.66V3084H8582.66V3166H8112.66ZM8342.66 2517C8320.66 2517 8303.32 2511.33 8290.66 2500C8277.99 2488.67 8271.66 2473.33 8271.66 2454C8271.66 2434 8277.99 2418.33 8290.66 2407C8303.32 2395 8320.66 2389 8342.66 2389C8364.66 2389 8381.99 2395 8394.66 2407C8407.32 2418.33 8413.66 2434 8413.66 2454C8413.66 2473.33 8407.32 2488.67 8394.66 2500C8381.99 2511.33 8364.66 2517 8342.66 2517ZM8719.27 3166V2616H8809.27V2721H8828.27L8809.27 2742C8809.27 2698.67 8822.27 2665.33 8848.27 2642C8874.27 2618 8910.27 2606 8956.27 2606C9011.6 2606 9055.6 2623 9088.27 2657C9120.93 2691 9137.27 2737.33 9137.27 2796V3166H9047.27V2806C9047.27 2766.67 9036.6 2736.67 9015.27 2716C8994.6 2694.67 8966.27 2684 8930.27 2684C8892.93 2684 8863.27 2695.33 8841.27 2718C8819.93 2740.67 8809.27 2773.33 8809.27 2816V3166H8719.27ZM9509.88 3174C9472.54 3174 9439.88 3168.33 9411.88 3157C9384.54 3145 9362.54 3128.33 9345.88 3107C9329.88 3085.67 9320.21 3060.33 9316.88 3031H9406.88C9410.88 3050.33 9421.54 3065.67 9438.88 3077C9456.88 3088.33 9480.54 3094 9509.88 3094H9551.88C9587.21 3094 9613.54 3087 9630.88 3073C9648.21 3058.33 9656.88 3039 9656.88 3015C9656.88 2991.67 9648.88 2973.33 9632.88 2960C9617.54 2946 9594.54 2936.67 9563.88 2932L9489.88 2920C9435.88 2910.67 9395.54 2894 9368.88 2870C9342.88 2845.33 9329.88 2809.67 9329.88 2763C9329.88 2713.67 9345.54 2675.67 9376.88 2649C9408.21 2621.67 9455.21 2608 9517.88 2608H9555.88C9608.54 2608 9650.88 2620.33 9682.88 2645C9714.88 2669.67 9734.21 2703 9740.87 2745H9650.88C9646.88 2727.67 9636.88 2714 9620.88 2704C9604.88 2693.33 9583.21 2688 9555.88 2688H9517.88C9483.88 2688 9458.88 2694.33 9442.88 2707C9427.54 2719.67 9419.88 2738.67 9419.88 2764C9419.88 2786.67 9426.54 2803.33 9439.88 2814C9453.21 2824.67 9474.21 2832.33 9502.88 2837L9576.88 2849C9636.21 2858.33 9679.21 2875.67 9705.88 2901C9733.21 2926.33 9746.88 2963 9746.88 3011C9746.88 3061.67 9730.54 3101.67 9697.88 3131C9665.88 3159.67 9617.21 3174 9551.88 3174H9509.88ZM10502.1 3166V2436H10620.1L10696.1 2672C10703.4 2693.33 10710.1 2714.67 10716.1 2736C10722.1 2756.67 10726.4 2772.67 10729.1 2784C10732.4 2772.67 10736.8 2756.67 10742.1 2736C10747.4 2714.67 10753.4 2693 10760.1 2671L10832.1 2436H10950.1V3166H10862.1V2901C10862.1 2871.67 10863.1 2838.33 10865.1 2801C10867.1 2763.67 10869.8 2725.67 10873.1 2687C10876.4 2647.67 10879.8 2610.33 10883.1 2575C10887.1 2539 10890.4 2507.67 10893.1 2481L10775.1 2846H10680.1L10561.1 2481C10564.4 2507 10567.8 2537.33 10571.1 2572C10574.4 2606 10577.4 2642.33 10580.1 2681C10582.8 2719 10585.1 2757 10587.1 2795C10589.1 2833 10590.1 2868.33 10590.1 2901V3166H10502.1ZM11325.7 3174C11281.7 3174 11243.7 3165.67 11211.7 3149C11179.7 3132.33 11154.7 3108.33 11136.7 3077C11119.4 3045 11110.7 3007.33 11110.7 2964V2818C11110.7 2774 11119.4 2736.33 11136.7 2705C11154.7 2673.67 11179.7 2649.67 11211.7 2633C11243.7 2616.33 11281.7 2608 11325.7 2608C11369.7 2608 11407.7 2616.33 11439.7 2633C11471.7 2649.67 11496.4 2673.67 11513.7 2705C11531.7 2736.33 11540.7 2773.67 11540.7 2817V2964C11540.7 3007.33 11531.7 3045 11513.7 3077C11496.4 3108.33 11471.7 3132.33 11439.7 3149C11407.7 3165.67 11369.7 3174 11325.7 3174ZM11325.7 3094C11365 3094 11395.7 3083 11417.7 3061C11439.7 3039 11450.7 3006.67 11450.7 2964V2818C11450.7 2775.33 11439.7 2743 11417.7 2721C11395.7 2699 11365 2688 11325.7 2688C11287 2688 11256.4 2699 11233.7 2721C11211.7 2743 11200.7 2775.33 11200.7 2818V2964C11200.7 3006.67 11211.7 3039 11233.7 3061C11256.4 3083 11287 3094 11325.7 3094ZM11717.3 3166V2616H11807.3V2721H11826.3L11807.3 2742C11807.3 2698.67 11820.3 2665.33 11846.3 2642C11872.3 2618 11908.3 2606 11954.3 2606C12009.6 2606 12053.6 2623 12086.3 2657C12119 2691 12135.3 2737.33 12135.3 2796V3166H12045.3V2806C12045.3 2766.67 12034.6 2736.67 12013.3 2716C11992.6 2694.67 11964.3 2684 11928.3 2684C11891 2684 11861.3 2695.33 11839.3 2718C11818 2740.67 11807.3 2773.33 11807.3 2816V3166H11717.3ZM12524.9 3174C12480.9 3174 12442.9 3165.67 12410.9 3149C12378.9 3132.33 12353.9 3108.33 12335.9 3077C12318.6 3045 12309.9 3007.33 12309.9 2964V2818C12309.9 2774 12318.6 2736.33 12335.9 2705C12353.9 2673.67 12378.9 2649.67 12410.9 2633C12442.9 2616.33 12480.9 2608 12524.9 2608C12568.9 2608 12606.9 2616.33 12638.9 2633C12670.9 2649.67 12695.6 2673.67 12712.9 2705C12730.9 2736.33 12739.9 2773.67 12739.9 2817V2964C12739.9 3007.33 12730.9 3045 12712.9 3077C12695.6 3108.33 12670.9 3132.33 12638.9 3149C12606.9 3165.67 12568.9 3174 12524.9 3174ZM12524.9 3094C12564.3 3094 12594.9 3083 12616.9 3061C12638.9 3039 12649.9 3006.67 12649.9 2964V2818C12649.9 2775.33 12638.9 2743 12616.9 2721C12594.9 2699 12564.3 2688 12524.9 2688C12486.3 2688 12455.6 2699 12432.9 2721C12410.9 2743 12399.9 2775.33 12399.9 2818V2964C12399.9 3006.67 12410.9 3039 12432.9 3061C12455.6 3083 12486.3 3094 12524.9 3094Z" fill="white"/>
<path d="M7895.57 7059.73V7787H7807.5V7059.73H7895.57ZM8144.59 7458.88V7787H8060.79V7241.55H8141.75V7326.77H8148.85C8161.64 7299.07 8181.05 7276.82 8207.09 7260.01C8233.14 7242.97 8266.75 7234.44 8307.95 7234.44C8344.88 7234.44 8377.19 7242.02 8404.89 7257.17C8432.59 7272.09 8454.13 7294.81 8469.52 7325.35C8484.91 7355.66 8492.6 7394.01 8492.6 7440.41V7787H8408.8V7446.09C8408.8 7403.24 8397.67 7369.86 8375.42 7345.95C8353.16 7321.8 8322.62 7309.73 8283.8 7309.73C8257.05 7309.73 8233.14 7315.53 8212.06 7327.13C8191.23 7338.73 8174.78 7355.66 8162.7 7377.91C8150.63 7400.16 8144.59 7427.15 8144.59 7458.88ZM8882.96 7241.55V7312.57H8600.29V7241.55H8882.96ZM8682.68 7110.86H8766.49V7630.75C8766.49 7654.42 8769.92 7672.18 8776.78 7684.02C8783.89 7695.62 8792.88 7703.43 8803.77 7707.45C8814.9 7711.24 8826.62 7713.14 8838.93 7713.14C8848.16 7713.14 8855.74 7712.66 8861.66 7711.72C8867.58 7710.53 8872.31 7709.59 8875.86 7708.88L8892.91 7784.16C8887.22 7786.29 8879.29 7788.42 8869.11 7790.55C8858.93 7792.92 8846.03 7794.1 8830.41 7794.1C8806.73 7794.1 8783.53 7789.01 8760.8 7778.83C8738.31 7768.65 8719.61 7753.15 8704.7 7732.31C8690.02 7711.48 8682.68 7685.2 8682.68 7653.48V7110.86ZM9231.86 7798.36C9179.31 7798.36 9133.97 7786.76 9095.85 7763.56C9057.98 7740.12 9028.74 7707.45 9008.14 7665.55C8987.78 7623.41 8977.6 7574.41 8977.6 7518.53C8977.6 7462.66 8987.78 7413.42 9008.14 7370.81C9028.74 7327.96 9057.38 7294.58 9094.08 7270.66C9131.01 7246.52 9174.1 7234.44 9223.34 7234.44C9251.75 7234.44 9279.8 7239.18 9307.5 7248.65C9335.2 7258.12 9360.41 7273.51 9383.14 7294.81C9405.87 7315.88 9423.98 7343.82 9437.47 7378.62C9450.97 7413.42 9457.71 7456.27 9457.71 7507.17V7542.68H9037.26V7470.24H9372.49C9372.49 7439.46 9366.33 7412 9354.02 7387.85C9341.95 7363.7 9324.67 7344.65 9302.18 7330.68C9279.92 7316.71 9253.64 7309.73 9223.34 7309.73C9189.96 7309.73 9161.08 7318.01 9136.69 7334.59C9112.54 7350.92 9093.96 7372.23 9080.94 7398.51C9067.92 7424.78 9061.41 7452.96 9061.41 7483.02V7531.32C9061.41 7572.51 9068.51 7607.43 9082.71 7636.08C9097.16 7664.49 9117.16 7686.15 9142.73 7701.06C9168.3 7715.74 9198.01 7723.08 9231.86 7723.08C9253.88 7723.08 9273.77 7720 9291.52 7713.85C9309.51 7707.45 9325.02 7697.98 9338.04 7685.44C9351.06 7672.65 9361.12 7656.79 9368.23 7637.85L9449.19 7660.58C9440.67 7688.04 9426.35 7712.19 9406.22 7733.02C9386.1 7753.62 9361.24 7769.72 9331.65 7781.32C9302.06 7792.68 9268.79 7798.36 9231.86 7798.36ZM9585.2 7787V7241.55H9666.17V7323.93H9671.85C9681.79 7296.94 9699.78 7275.04 9725.83 7258.24C9751.87 7241.43 9781.22 7233.02 9813.89 7233.02C9820.05 7233.02 9827.74 7233.14 9836.98 7233.38C9846.21 7233.61 9853.19 7233.97 9857.93 7234.44V7319.67C9855.09 7318.96 9848.58 7317.89 9838.4 7316.47C9828.45 7314.82 9817.92 7313.99 9806.79 7313.99C9780.28 7313.99 9756.6 7319.55 9735.77 7330.68C9715.17 7341.57 9698.84 7356.72 9686.76 7376.13C9674.93 7395.31 9669.01 7417.21 9669.01 7441.83V7787H9585.2Z" fill="white"/>
</svg>
